<svg id="svg" version="1.1" width="400" height="398.88682745825605" xmlns="http://www.w3.org/2000/svg" xmlns:xlink="http://www.w3.org/1999/xlink" style="display: block;"><g id="svgg"><path id="path0" d="M183.673 0.574 C 61.345 10.608,-22.504 125.522,5.168 245.214 C 23.646 325.141,91.209 386.366,172.913 397.224 C 308.023 415.180,421.324 296.733,396.832 163.136 C 378.420 62.706,285.949 -7.815,183.673 0.574 M213.173 17.075 C 309.743 25.104,382.540 103.482,382.552 199.443 C 382.564 299.995,300.740 381.540,199.893 381.478 C 81.643 381.404,-5.511 271.852,21.570 157.328 C 42.123 70.413,125.002 9.746,213.173 17.075 M192.481 75.333 C 174.595 78.154,161.547 87.921,153.433 104.563 L 151.949 107.607 137.292 107.615 C 123.897 107.622,122.507 107.681,121.150 108.301 C 114.756 111.221,114.396 120.424,120.549 123.639 L 122.534 124.675 199.872 124.675 C 276.358 124.675,277.225 124.667,278.657 123.937 C 284.131 121.144,284.157 111.353,278.699 108.470 C 277.065 107.607,277.050 107.607,262.001 107.602 L 246.939 107.598 245.923 105.097 C 237.738 84.952,214.291 71.893,192.481 75.333 M206.191 92.189 C 214.774 94.016,222.292 98.868,227.267 105.793 L 228.570 107.607 199.999 107.607 C 184.285 107.607,171.429 107.514,171.429 107.401 C 171.429 106.810,174.580 102.692,176.483 100.795 C 183.737 93.568,195.989 90.019,206.191 92.189 M121.150 141.694 C 113.503 145.177,115.288 157.328,123.446 157.328 L 124.669 157.328 124.765 237.755 L 124.861 318.182 125.761 319.754 C 126.256 320.618,127.327 321.787,128.141 322.351 L 129.621 323.377 199.597 323.377 L 269.573 323.377 271.121 322.327 C 271.972 321.749,273.140 320.580,273.718 319.729 L 274.768 318.182 274.863 237.803 L 274.959 157.424 276.633 157.236 C 283.673 156.442,285.172 145.285,278.699 141.866 L 277.063 141.002 199.849 141.010 C 125.953 141.018,122.571 141.047,121.150 141.694 M257.514 231.911 L 257.514 306.494 199.443 306.494 L 141.373 306.494 141.373 231.911 L 141.373 157.328 199.443 157.328 L 257.514 157.328 257.514 231.911 M162.591 174.938 C 160.479 175.894,159.198 176.999,158.340 178.603 L 157.514 180.148 157.413 230.794 C 157.305 285.448,157.264 284.231,159.304 286.900 C 163.763 292.732,173.257 290.580,174.748 283.400 C 175.034 282.020,175.125 266.446,175.054 230.794 L 174.954 180.148 174.026 178.494 C 172.134 175.119,166.239 173.286,162.591 174.938 M195.733 175.279 C 193.573 176.298,192.469 177.392,191.669 179.307 C 191.160 180.525,191.095 186.513,191.098 231.992 L 191.102 283.302 191.979 285.158 C 195.016 291.581,203.634 292.055,206.954 285.981 C 207.747 284.530,208.203 182.189,207.429 179.516 C 206.144 175.082,200.492 173.035,195.733 175.279 M228.666 175.347 C 227.111 176.122,226.586 176.647,225.811 178.203 L 224.861 180.109 224.861 232.096 L 224.861 284.084 225.834 286.037 C 228.730 291.849,237.343 291.578,240.554 285.575 L 241.373 284.045 241.479 233.024 C 241.555 196.527,241.468 181.528,241.173 180.334 C 239.930 175.300,233.726 172.826,228.666 175.347 " stroke="none" fill="#ffffff" fill-rule="evenodd"></path><path id="path1" d="M183.673 0.574 C 61.345 10.608,-22.504 125.522,5.168 245.214 C 23.646 325.141,91.209 386.366,172.913 397.224 C 308.023 415.180,421.324 296.733,396.832 163.136 C 378.420 62.706,285.949 -7.815,183.673 0.574 M213.173 17.075 C 309.743 25.104,382.540 103.482,382.552 199.443 C 382.564 299.995,300.740 381.540,199.893 381.478 C 81.643 381.404,-5.511 271.852,21.570 157.328 C 42.123 70.413,125.002 9.746,213.173 17.075 M192.481 75.333 C 174.595 78.154,161.547 87.921,153.433 104.563 L 151.949 107.607 137.292 107.615 C 123.897 107.622,122.507 107.681,121.150 108.301 C 114.756 111.221,114.396 120.424,120.549 123.639 L 122.534 124.675 199.872 124.675 C 276.358 124.675,277.225 124.667,278.657 123.937 C 284.131 121.144,284.157 111.353,278.699 108.470 C 277.065 107.607,277.050 107.607,262.001 107.602 L 246.939 107.598 245.923 105.097 C 237.738 84.952,214.291 71.893,192.481 75.333 M206.191 92.189 C 214.774 94.016,222.292 98.868,227.267 105.793 L 228.570 107.607 199.999 107.607 C 184.285 107.607,171.429 107.514,171.429 107.401 C 171.429 106.810,174.580 102.692,176.483 100.795 C 183.737 93.568,195.989 90.019,206.191 92.189 M121.150 141.694 C 113.503 145.177,115.288 157.328,123.446 157.328 L 124.669 157.328 124.765 237.755 L 124.861 318.182 125.761 319.754 C 126.256 320.618,127.327 321.787,128.141 322.351 L 129.621 323.377 199.597 323.377 L 269.573 323.377 271.121 322.327 C 271.972 321.749,273.140 320.580,273.718 319.729 L 274.768 318.182 274.863 237.803 L 274.959 157.424 276.633 157.236 C 283.673 156.442,285.172 145.285,278.699 141.866 L 277.063 141.002 199.849 141.010 C 125.953 141.018,122.571 141.047,121.150 141.694 M257.514 231.911 L 257.514 306.494 199.443 306.494 L 141.373 306.494 141.373 231.911 L 141.373 157.328 199.443 157.328 L 257.514 157.328 257.514 231.911 M162.591 174.938 C 160.479 175.894,159.198 176.999,158.340 178.603 L 157.514 180.148 157.413 230.794 C 157.305 285.448,157.264 284.231,159.304 286.900 C 163.763 292.732,173.257 290.580,174.748 283.400 C 175.034 282.020,175.125 266.446,175.054 230.794 L 174.954 180.148 174.026 178.494 C 172.134 175.119,166.239 173.286,162.591 174.938 M195.733 175.279 C 193.573 176.298,192.469 177.392,191.669 179.307 C 191.160 180.525,191.095 186.513,191.098 231.992 L 191.102 283.302 191.979 285.158 C 195.016 291.581,203.634 292.055,206.954 285.981 C 207.747 284.530,208.203 182.189,207.429 179.516 C 206.144 175.082,200.492 173.035,195.733 175.279 M228.666 175.347 C 227.111 176.122,226.586 176.647,225.811 178.203 L 224.861 180.109 224.861 232.096 L 224.861 284.084 225.834 286.037 C 228.730 291.849,237.343 291.578,240.554 285.575 L 241.373 284.045 241.479 233.024 C 241.555 196.527,241.468 181.528,241.173 180.334 C 239.930 175.300,233.726 172.826,228.666 175.347 " stroke="none" fill="#ffffff" fill-rule="evenodd"></path><path id="path2" d="M183.673 0.574 C 61.345 10.608,-22.504 125.522,5.168 245.214 C 23.646 325.141,91.209 386.366,172.913 397.224 C 308.023 415.180,421.324 296.733,396.832 163.136 C 378.420 62.706,285.949 -7.815,183.673 0.574 M213.173 17.075 C 309.743 25.104,382.540 103.482,382.552 199.443 C 382.564 299.995,300.740 381.540,199.893 381.478 C 81.643 381.404,-5.511 271.852,21.570 157.328 C 42.123 70.413,125.002 9.746,213.173 17.075 M192.481 75.333 C 174.595 78.154,161.547 87.921,153.433 104.563 L 151.949 107.607 137.292 107.615 C 123.897 107.622,122.507 107.681,121.150 108.301 C 114.756 111.221,114.396 120.424,120.549 123.639 L 122.534 124.675 199.872 124.675 C 276.358 124.675,277.225 124.667,278.657 123.937 C 284.131 121.144,284.157 111.353,278.699 108.470 C 277.065 107.607,277.050 107.607,262.001 107.602 L 246.939 107.598 245.923 105.097 C 237.738 84.952,214.291 71.893,192.481 75.333 M206.191 92.189 C 214.774 94.016,222.292 98.868,227.267 105.793 L 228.570 107.607 199.999 107.607 C 184.285 107.607,171.429 107.514,171.429 107.401 C 171.429 106.810,174.580 102.692,176.483 100.795 C 183.737 93.568,195.989 90.019,206.191 92.189 M121.150 141.694 C 113.503 145.177,115.288 157.328,123.446 157.328 L 124.669 157.328 124.765 237.755 L 124.861 318.182 125.761 319.754 C 126.256 320.618,127.327 321.787,128.141 322.351 L 129.621 323.377 199.597 323.377 L 269.573 323.377 271.121 322.327 C 271.972 321.749,273.140 320.580,273.718 319.729 L 274.768 318.182 274.863 237.803 L 274.959 157.424 276.633 157.236 C 283.673 156.442,285.172 145.285,278.699 141.866 L 277.063 141.002 199.849 141.010 C 125.953 141.018,122.571 141.047,121.150 141.694 M257.514 231.911 L 257.514 306.494 199.443 306.494 L 141.373 306.494 141.373 231.911 L 141.373 157.328 199.443 157.328 L 257.514 157.328 257.514 231.911 M162.591 174.938 C 160.479 175.894,159.198 176.999,158.340 178.603 L 157.514 180.148 157.413 230.794 C 157.305 285.448,157.264 284.231,159.304 286.900 C 163.763 292.732,173.257 290.580,174.748 283.400 C 175.034 282.020,175.125 266.446,175.054 230.794 L 174.954 180.148 174.026 178.494 C 172.134 175.119,166.239 173.286,162.591 174.938 M195.733 175.279 C 193.573 176.298,192.469 177.392,191.669 179.307 C 191.160 180.525,191.095 186.513,191.098 231.992 L 191.102 283.302 191.979 285.158 C 195.016 291.581,203.634 292.055,206.954 285.981 C 207.747 284.530,208.203 182.189,207.429 179.516 C 206.144 175.082,200.492 173.035,195.733 175.279 M228.666 175.347 C 227.111 176.122,226.586 176.647,225.811 178.203 L 224.861 180.109 224.861 232.096 L 224.861 284.084 225.834 286.037 C 228.730 291.849,237.343 291.578,240.554 285.575 L 241.373 284.045 241.479 233.024 C 241.555 196.527,241.468 181.528,241.173 180.334 C 239.930 175.300,233.726 172.826,228.666 175.347 " stroke="none" fill="#ffffff" fill-rule="evenodd"></path><path id="path3" d="M183.673 0.574 C 61.345 10.608,-22.504 125.522,5.168 245.214 C 23.646 325.141,91.209 386.366,172.913 397.224 C 308.023 415.180,421.324 296.733,396.832 163.136 C 378.420 62.706,285.949 -7.815,183.673 0.574 M213.173 17.075 C 309.743 25.104,382.540 103.482,382.552 199.443 C 382.564 299.995,300.740 381.540,199.893 381.478 C 81.643 381.404,-5.511 271.852,21.570 157.328 C 42.123 70.413,125.002 9.746,213.173 17.075 M192.481 75.333 C 174.595 78.154,161.547 87.921,153.433 104.563 L 151.949 107.607 137.292 107.615 C 123.897 107.622,122.507 107.681,121.150 108.301 C 114.756 111.221,114.396 120.424,120.549 123.639 L 122.534 124.675 199.872 124.675 C 276.358 124.675,277.225 124.667,278.657 123.937 C 284.131 121.144,284.157 111.353,278.699 108.470 C 277.065 107.607,277.050 107.607,262.001 107.602 L 246.939 107.598 245.923 105.097 C 237.738 84.952,214.291 71.893,192.481 75.333 M206.191 92.189 C 214.774 94.016,222.292 98.868,227.267 105.793 L 228.570 107.607 199.999 107.607 C 184.285 107.607,171.429 107.514,171.429 107.401 C 171.429 106.810,174.580 102.692,176.483 100.795 C 183.737 93.568,195.989 90.019,206.191 92.189 M121.150 141.694 C 113.503 145.177,115.288 157.328,123.446 157.328 L 124.669 157.328 124.765 237.755 L 124.861 318.182 125.761 319.754 C 126.256 320.618,127.327 321.787,128.141 322.351 L 129.621 323.377 199.597 323.377 L 269.573 323.377 271.121 322.327 C 271.972 321.749,273.140 320.580,273.718 319.729 L 274.768 318.182 274.863 237.803 L 274.959 157.424 276.633 157.236 C 283.673 156.442,285.172 145.285,278.699 141.866 L 277.063 141.002 199.849 141.010 C 125.953 141.018,122.571 141.047,121.150 141.694 M257.514 231.911 L 257.514 306.494 199.443 306.494 L 141.373 306.494 141.373 231.911 L 141.373 157.328 199.443 157.328 L 257.514 157.328 257.514 231.911 M162.591 174.938 C 160.479 175.894,159.198 176.999,158.340 178.603 L 157.514 180.148 157.413 230.794 C 157.305 285.448,157.264 284.231,159.304 286.900 C 163.763 292.732,173.257 290.580,174.748 283.400 C 175.034 282.020,175.125 266.446,175.054 230.794 L 174.954 180.148 174.026 178.494 C 172.134 175.119,166.239 173.286,162.591 174.938 M195.733 175.279 C 193.573 176.298,192.469 177.392,191.669 179.307 C 191.160 180.525,191.095 186.513,191.098 231.992 L 191.102 283.302 191.979 285.158 C 195.016 291.581,203.634 292.055,206.954 285.981 C 207.747 284.530,208.203 182.189,207.429 179.516 C 206.144 175.082,200.492 173.035,195.733 175.279 M228.666 175.347 C 227.111 176.122,226.586 176.647,225.811 178.203 L 224.861 180.109 224.861 232.096 L 224.861 284.084 225.834 286.037 C 228.730 291.849,237.343 291.578,240.554 285.575 L 241.373 284.045 241.479 233.024 C 241.555 196.527,241.468 181.528,241.173 180.334 C 239.930 175.300,233.726 172.826,228.666 175.347 " stroke="none" fill="#ffffff" fill-rule="evenodd"></path><path id="path4" d="M183.673 0.574 C 61.345 10.608,-22.504 125.522,5.168 245.214 C 23.646 325.141,91.209 386.366,172.913 397.224 C 308.023 415.180,421.324 296.733,396.832 163.136 C 378.420 62.706,285.949 -7.815,183.673 0.574 M213.173 17.075 C 309.743 25.104,382.540 103.482,382.552 199.443 C 382.564 299.995,300.740 381.540,199.893 381.478 C 81.643 381.404,-5.511 271.852,21.570 157.328 C 42.123 70.413,125.002 9.746,213.173 17.075 M192.481 75.333 C 174.595 78.154,161.547 87.921,153.433 104.563 L 151.949 107.607 137.292 107.615 C 123.897 107.622,122.507 107.681,121.150 108.301 C 114.756 111.221,114.396 120.424,120.549 123.639 L 122.534 124.675 199.872 124.675 C 276.358 124.675,277.225 124.667,278.657 123.937 C 284.131 121.144,284.157 111.353,278.699 108.470 C 277.065 107.607,277.050 107.607,262.001 107.602 L 246.939 107.598 245.923 105.097 C 237.738 84.952,214.291 71.893,192.481 75.333 M206.191 92.189 C 214.774 94.016,222.292 98.868,227.267 105.793 L 228.570 107.607 199.999 107.607 C 184.285 107.607,171.429 107.514,171.429 107.401 C 171.429 106.810,174.580 102.692,176.483 100.795 C 183.737 93.568,195.989 90.019,206.191 92.189 M121.150 141.694 C 113.503 145.177,115.288 157.328,123.446 157.328 L 124.669 157.328 124.765 237.755 L 124.861 318.182 125.761 319.754 C 126.256 320.618,127.327 321.787,128.141 322.351 L 129.621 323.377 199.597 323.377 L 269.573 323.377 271.121 322.327 C 271.972 321.749,273.140 320.580,273.718 319.729 L 274.768 318.182 274.863 237.803 L 274.959 157.424 276.633 157.236 C 283.673 156.442,285.172 145.285,278.699 141.866 L 277.063 141.002 199.849 141.010 C 125.953 141.018,122.571 141.047,121.150 141.694 M257.514 231.911 L 257.514 306.494 199.443 306.494 L 141.373 306.494 141.373 231.911 L 141.373 157.328 199.443 157.328 L 257.514 157.328 257.514 231.911 M162.591 174.938 C 160.479 175.894,159.198 176.999,158.340 178.603 L 157.514 180.148 157.413 230.794 C 157.305 285.448,157.264 284.231,159.304 286.900 C 163.763 292.732,173.257 290.580,174.748 283.400 C 175.034 282.020,175.125 266.446,175.054 230.794 L 174.954 180.148 174.026 178.494 C 172.134 175.119,166.239 173.286,162.591 174.938 M195.733 175.279 C 193.573 176.298,192.469 177.392,191.669 179.307 C 191.160 180.525,191.095 186.513,191.098 231.992 L 191.102 283.302 191.979 285.158 C 195.016 291.581,203.634 292.055,206.954 285.981 C 207.747 284.530,208.203 182.189,207.429 179.516 C 206.144 175.082,200.492 173.035,195.733 175.279 M228.666 175.347 C 227.111 176.122,226.586 176.647,225.811 178.203 L 224.861 180.109 224.861 232.096 L 224.861 284.084 225.834 286.037 C 228.730 291.849,237.343 291.578,240.554 285.575 L 241.373 284.045 241.479 233.024 C 241.555 196.527,241.468 181.528,241.173 180.334 C 239.930 175.300,233.726 172.826,228.666 175.347 " stroke="none" fill="#ffffff" fill-rule="evenodd"></path></g></svg>