<svg id="svg" version="1.1" width="400" height="401.4311270125223" xmlns="http://www.w3.org/2000/svg" xmlns:xlink="http://www.w3.org/1999/xlink" style="display: block;"><g id="svgg"><path id="path0" d="M184.189 0.543 C 73.567 9.448,-8.270 105.658,0.530 216.458 C 9.667 331.491,112.557 415.006,226.443 399.831 C 331.702 385.805,408.190 290.586,399.472 184.428 C 390.397 73.930,294.120 -8.306,184.189 0.543 M206.009 75.862 C 222.780 77.965,237.049 88.244,244.608 103.667 L 246.932 108.408 261.659 108.416 C 278.049 108.424,277.967 108.414,280.395 110.910 C 284.140 114.759,282.918 122.404,278.217 124.539 C 276.793 125.186,274.181 125.208,199.981 125.216 L 123.217 125.224 121.387 124.312 C 116.054 121.654,115.060 115.328,119.308 111.079 C 121.981 108.406,121.961 108.409,138.324 108.401 L 152.594 108.393 154.428 104.554 C 163.944 84.640,184.560 73.172,206.009 75.862 M194.440 92.085 C 187.006 93.305,180.717 96.540,175.806 101.669 C 173.923 103.636,171.020 107.605,171.020 108.212 C 171.020 108.320,184.061 108.408,200.000 108.408 C 215.939 108.408,228.980 108.319,228.980 108.209 C 228.980 107.548,225.802 103.555,223.564 101.405 C 215.637 93.790,204.927 90.363,194.440 92.085 M277.176 142.578 C 284.955 144.888,283.913 158.140,275.953 158.140 L 274.776 158.140 274.776 238.652 C 274.776 310.132,274.715 319.311,274.229 320.475 C 273.315 322.662,271.914 324.183,269.988 325.080 L 268.157 325.932 199.642 325.928 C 122.648 325.923,129.388 326.168,127.197 323.295 C 125.130 320.585,125.256 326.032,125.239 238.730 L 125.224 158.140 124.036 158.140 C 115.486 158.140,114.174 145.570,122.427 142.720 C 125.099 141.797,274.086 141.661,277.176 142.578 M141.324 233.631 L 141.324 309.123 199.642 309.123 L 257.961 309.123 257.961 233.631 L 257.961 158.140 199.642 158.140 L 141.324 158.140 141.324 233.631 M168.541 176.181 C 170.530 176.514,173.022 178.289,173.955 180.035 L 174.776 181.574 174.776 233.453 C 174.776 291.725,174.983 287.329,172.127 289.909 C 168.062 293.582,162.241 292.806,159.401 288.212 L 158.318 286.461 158.213 234.554 C 158.138 197.855,158.222 182.253,158.497 181.300 C 159.403 178.171,163.769 175.286,166.726 175.862 C 167.021 175.919,167.838 176.063,168.541 176.181 M203.044 176.419 C 204.450 176.842,205.907 178.218,206.798 179.965 C 207.504 181.348,207.513 182.078,207.513 233.732 L 207.513 286.097 206.530 288.037 C 202.979 295.039,193.268 292.886,191.768 284.764 C 191.213 281.758,191.450 182.249,192.015 180.988 C 193.863 176.867,198.352 175.007,203.044 176.419 M236.382 176.612 C 238.198 177.257,240.246 179.430,240.782 181.284 C 241.064 182.258,241.147 197.466,241.072 234.554 L 240.966 286.461 239.883 288.212 C 236.326 293.966,228.604 293.479,225.805 287.325 C 225.100 285.774,224.711 185.867,225.396 182.163 C 226.361 176.942,230.879 174.659,236.382 176.612 " stroke="none" fill="#ff0000" fill-rule="evenodd"></path><path id="path1" d="M184.189 0.543 C 73.567 9.448,-8.270 105.658,0.530 216.458 C 9.667 331.491,112.557 415.006,226.443 399.831 C 331.702 385.805,408.190 290.586,399.472 184.428 C 390.397 73.930,294.120 -8.306,184.189 0.543 M206.009 75.862 C 222.780 77.965,237.049 88.244,244.608 103.667 L 246.932 108.408 261.659 108.416 C 278.049 108.424,277.967 108.414,280.395 110.910 C 284.140 114.759,282.918 122.404,278.217 124.539 C 276.793 125.186,274.181 125.208,199.981 125.216 L 123.217 125.224 121.387 124.312 C 116.054 121.654,115.060 115.328,119.308 111.079 C 121.981 108.406,121.961 108.409,138.324 108.401 L 152.594 108.393 154.428 104.554 C 163.944 84.640,184.560 73.172,206.009 75.862 M194.440 92.085 C 187.006 93.305,180.717 96.540,175.806 101.669 C 173.923 103.636,171.020 107.605,171.020 108.212 C 171.020 108.320,184.061 108.408,200.000 108.408 C 215.939 108.408,228.980 108.319,228.980 108.209 C 228.980 107.548,225.802 103.555,223.564 101.405 C 215.637 93.790,204.927 90.363,194.440 92.085 M277.176 142.578 C 284.955 144.888,283.913 158.140,275.953 158.140 L 274.776 158.140 274.776 238.652 C 274.776 310.132,274.715 319.311,274.229 320.475 C 273.315 322.662,271.914 324.183,269.988 325.080 L 268.157 325.932 199.642 325.928 C 122.648 325.923,129.388 326.168,127.197 323.295 C 125.130 320.585,125.256 326.032,125.239 238.730 L 125.224 158.140 124.036 158.140 C 115.486 158.140,114.174 145.570,122.427 142.720 C 125.099 141.797,274.086 141.661,277.176 142.578 M141.324 233.631 L 141.324 309.123 199.642 309.123 L 257.961 309.123 257.961 233.631 L 257.961 158.140 199.642 158.140 L 141.324 158.140 141.324 233.631 M168.541 176.181 C 170.530 176.514,173.022 178.289,173.955 180.035 L 174.776 181.574 174.776 233.453 C 174.776 291.725,174.983 287.329,172.127 289.909 C 168.062 293.582,162.241 292.806,159.401 288.212 L 158.318 286.461 158.213 234.554 C 158.138 197.855,158.222 182.253,158.497 181.300 C 159.403 178.171,163.769 175.286,166.726 175.862 C 167.021 175.919,167.838 176.063,168.541 176.181 M203.044 176.419 C 204.450 176.842,205.907 178.218,206.798 179.965 C 207.504 181.348,207.513 182.078,207.513 233.732 L 207.513 286.097 206.530 288.037 C 202.979 295.039,193.268 292.886,191.768 284.764 C 191.213 281.758,191.450 182.249,192.015 180.988 C 193.863 176.867,198.352 175.007,203.044 176.419 M236.382 176.612 C 238.198 177.257,240.246 179.430,240.782 181.284 C 241.064 182.258,241.147 197.466,241.072 234.554 L 240.966 286.461 239.883 288.212 C 236.326 293.966,228.604 293.479,225.805 287.325 C 225.100 285.774,224.711 185.867,225.396 182.163 C 226.361 176.942,230.879 174.659,236.382 176.612 " stroke="none" fill="#ff0000" fill-rule="evenodd"></path><path id="path2" d="M184.189 0.543 C 73.567 9.448,-8.270 105.658,0.530 216.458 C 9.667 331.491,112.557 415.006,226.443 399.831 C 331.702 385.805,408.190 290.586,399.472 184.428 C 390.397 73.930,294.120 -8.306,184.189 0.543 M206.009 75.862 C 222.780 77.965,237.049 88.244,244.608 103.667 L 246.932 108.408 261.659 108.416 C 278.049 108.424,277.967 108.414,280.395 110.910 C 284.140 114.759,282.918 122.404,278.217 124.539 C 276.793 125.186,274.181 125.208,199.981 125.216 L 123.217 125.224 121.387 124.312 C 116.054 121.654,115.060 115.328,119.308 111.079 C 121.981 108.406,121.961 108.409,138.324 108.401 L 152.594 108.393 154.428 104.554 C 163.944 84.640,184.560 73.172,206.009 75.862 M194.440 92.085 C 187.006 93.305,180.717 96.540,175.806 101.669 C 173.923 103.636,171.020 107.605,171.020 108.212 C 171.020 108.320,184.061 108.408,200.000 108.408 C 215.939 108.408,228.980 108.319,228.980 108.209 C 228.980 107.548,225.802 103.555,223.564 101.405 C 215.637 93.790,204.927 90.363,194.440 92.085 M277.176 142.578 C 284.955 144.888,283.913 158.140,275.953 158.140 L 274.776 158.140 274.776 238.652 C 274.776 310.132,274.715 319.311,274.229 320.475 C 273.315 322.662,271.914 324.183,269.988 325.080 L 268.157 325.932 199.642 325.928 C 122.648 325.923,129.388 326.168,127.197 323.295 C 125.130 320.585,125.256 326.032,125.239 238.730 L 125.224 158.140 124.036 158.140 C 115.486 158.140,114.174 145.570,122.427 142.720 C 125.099 141.797,274.086 141.661,277.176 142.578 M141.324 233.631 L 141.324 309.123 199.642 309.123 L 257.961 309.123 257.961 233.631 L 257.961 158.140 199.642 158.140 L 141.324 158.140 141.324 233.631 M168.541 176.181 C 170.530 176.514,173.022 178.289,173.955 180.035 L 174.776 181.574 174.776 233.453 C 174.776 291.725,174.983 287.329,172.127 289.909 C 168.062 293.582,162.241 292.806,159.401 288.212 L 158.318 286.461 158.213 234.554 C 158.138 197.855,158.222 182.253,158.497 181.300 C 159.403 178.171,163.769 175.286,166.726 175.862 C 167.021 175.919,167.838 176.063,168.541 176.181 M203.044 176.419 C 204.450 176.842,205.907 178.218,206.798 179.965 C 207.504 181.348,207.513 182.078,207.513 233.732 L 207.513 286.097 206.530 288.037 C 202.979 295.039,193.268 292.886,191.768 284.764 C 191.213 281.758,191.450 182.249,192.015 180.988 C 193.863 176.867,198.352 175.007,203.044 176.419 M236.382 176.612 C 238.198 177.257,240.246 179.430,240.782 181.284 C 241.064 182.258,241.147 197.466,241.072 234.554 L 240.966 286.461 239.883 288.212 C 236.326 293.966,228.604 293.479,225.805 287.325 C 225.100 285.774,224.711 185.867,225.396 182.163 C 226.361 176.942,230.879 174.659,236.382 176.612 " stroke="none" fill="#ff0000" fill-rule="evenodd"></path><path id="path3" d="M184.189 0.543 C 73.567 9.448,-8.270 105.658,0.530 216.458 C 9.667 331.491,112.557 415.006,226.443 399.831 C 331.702 385.805,408.190 290.586,399.472 184.428 C 390.397 73.930,294.120 -8.306,184.189 0.543 M206.009 75.862 C 222.780 77.965,237.049 88.244,244.608 103.667 L 246.932 108.408 261.659 108.416 C 278.049 108.424,277.967 108.414,280.395 110.910 C 284.140 114.759,282.918 122.404,278.217 124.539 C 276.793 125.186,274.181 125.208,199.981 125.216 L 123.217 125.224 121.387 124.312 C 116.054 121.654,115.060 115.328,119.308 111.079 C 121.981 108.406,121.961 108.409,138.324 108.401 L 152.594 108.393 154.428 104.554 C 163.944 84.640,184.560 73.172,206.009 75.862 M194.440 92.085 C 187.006 93.305,180.717 96.540,175.806 101.669 C 173.923 103.636,171.020 107.605,171.020 108.212 C 171.020 108.320,184.061 108.408,200.000 108.408 C 215.939 108.408,228.980 108.319,228.980 108.209 C 228.980 107.548,225.802 103.555,223.564 101.405 C 215.637 93.790,204.927 90.363,194.440 92.085 M277.176 142.578 C 284.955 144.888,283.913 158.140,275.953 158.140 L 274.776 158.140 274.776 238.652 C 274.776 310.132,274.715 319.311,274.229 320.475 C 273.315 322.662,271.914 324.183,269.988 325.080 L 268.157 325.932 199.642 325.928 C 122.648 325.923,129.388 326.168,127.197 323.295 C 125.130 320.585,125.256 326.032,125.239 238.730 L 125.224 158.140 124.036 158.140 C 115.486 158.140,114.174 145.570,122.427 142.720 C 125.099 141.797,274.086 141.661,277.176 142.578 M141.324 233.631 L 141.324 309.123 199.642 309.123 L 257.961 309.123 257.961 233.631 L 257.961 158.140 199.642 158.140 L 141.324 158.140 141.324 233.631 M168.541 176.181 C 170.530 176.514,173.022 178.289,173.955 180.035 L 174.776 181.574 174.776 233.453 C 174.776 291.725,174.983 287.329,172.127 289.909 C 168.062 293.582,162.241 292.806,159.401 288.212 L 158.318 286.461 158.213 234.554 C 158.138 197.855,158.222 182.253,158.497 181.300 C 159.403 178.171,163.769 175.286,166.726 175.862 C 167.021 175.919,167.838 176.063,168.541 176.181 M203.044 176.419 C 204.450 176.842,205.907 178.218,206.798 179.965 C 207.504 181.348,207.513 182.078,207.513 233.732 L 207.513 286.097 206.530 288.037 C 202.979 295.039,193.268 292.886,191.768 284.764 C 191.213 281.758,191.450 182.249,192.015 180.988 C 193.863 176.867,198.352 175.007,203.044 176.419 M236.382 176.612 C 238.198 177.257,240.246 179.430,240.782 181.284 C 241.064 182.258,241.147 197.466,241.072 234.554 L 240.966 286.461 239.883 288.212 C 236.326 293.966,228.604 293.479,225.805 287.325 C 225.100 285.774,224.711 185.867,225.396 182.163 C 226.361 176.942,230.879 174.659,236.382 176.612 " stroke="none" fill="#ff0000" fill-rule="evenodd"></path><path id="path4" d="M184.189 0.543 C 73.567 9.448,-8.270 105.658,0.530 216.458 C 9.667 331.491,112.557 415.006,226.443 399.831 C 331.702 385.805,408.190 290.586,399.472 184.428 C 390.397 73.930,294.120 -8.306,184.189 0.543 M206.009 75.862 C 222.780 77.965,237.049 88.244,244.608 103.667 L 246.932 108.408 261.659 108.416 C 278.049 108.424,277.967 108.414,280.395 110.910 C 284.140 114.759,282.918 122.404,278.217 124.539 C 276.793 125.186,274.181 125.208,199.981 125.216 L 123.217 125.224 121.387 124.312 C 116.054 121.654,115.060 115.328,119.308 111.079 C 121.981 108.406,121.961 108.409,138.324 108.401 L 152.594 108.393 154.428 104.554 C 163.944 84.640,184.560 73.172,206.009 75.862 M194.440 92.085 C 187.006 93.305,180.717 96.540,175.806 101.669 C 173.923 103.636,171.020 107.605,171.020 108.212 C 171.020 108.320,184.061 108.408,200.000 108.408 C 215.939 108.408,228.980 108.319,228.980 108.209 C 228.980 107.548,225.802 103.555,223.564 101.405 C 215.637 93.790,204.927 90.363,194.440 92.085 M277.176 142.578 C 284.955 144.888,283.913 158.140,275.953 158.140 L 274.776 158.140 274.776 238.652 C 274.776 310.132,274.715 319.311,274.229 320.475 C 273.315 322.662,271.914 324.183,269.988 325.080 L 268.157 325.932 199.642 325.928 C 122.648 325.923,129.388 326.168,127.197 323.295 C 125.130 320.585,125.256 326.032,125.239 238.730 L 125.224 158.140 124.036 158.140 C 115.486 158.140,114.174 145.570,122.427 142.720 C 125.099 141.797,274.086 141.661,277.176 142.578 M141.324 233.631 L 141.324 309.123 199.642 309.123 L 257.961 309.123 257.961 233.631 L 257.961 158.140 199.642 158.140 L 141.324 158.140 141.324 233.631 M168.541 176.181 C 170.530 176.514,173.022 178.289,173.955 180.035 L 174.776 181.574 174.776 233.453 C 174.776 291.725,174.983 287.329,172.127 289.909 C 168.062 293.582,162.241 292.806,159.401 288.212 L 158.318 286.461 158.213 234.554 C 158.138 197.855,158.222 182.253,158.497 181.300 C 159.403 178.171,163.769 175.286,166.726 175.862 C 167.021 175.919,167.838 176.063,168.541 176.181 M203.044 176.419 C 204.450 176.842,205.907 178.218,206.798 179.965 C 207.504 181.348,207.513 182.078,207.513 233.732 L 207.513 286.097 206.530 288.037 C 202.979 295.039,193.268 292.886,191.768 284.764 C 191.213 281.758,191.450 182.249,192.015 180.988 C 193.863 176.867,198.352 175.007,203.044 176.419 M236.382 176.612 C 238.198 177.257,240.246 179.430,240.782 181.284 C 241.064 182.258,241.147 197.466,241.072 234.554 L 240.966 286.461 239.883 288.212 C 236.326 293.966,228.604 293.479,225.805 287.325 C 225.100 285.774,224.711 185.867,225.396 182.163 C 226.361 176.942,230.879 174.659,236.382 176.612 " stroke="none" fill="#ff0000" fill-rule="evenodd"></path></g></svg>