<svg id="svg" version="1.1" width="400" height="400.3679852805888" xmlns="http://www.w3.org/2000/svg" xmlns:xlink="http://www.w3.org/1999/xlink" style="display: block;"><g id="svgg"><path id="path0" d="M183.809 0.568 C 68.644 10.398,-13.333 112.246,1.665 226.863 C 12.861 312.424,79.020 381.984,163.709 397.238 C 301.455 422.047,421.152 302.731,397.017 164.673 C 379.399 63.893,285.814 -8.139,183.809 0.568 M285.972 75.588 C 288.993 76.850,290.657 79.253,290.980 82.818 C 291.248 85.771,290.360 87.462,284.135 95.860 C 281.285 99.706,278.948 103.018,278.943 103.220 C 278.937 103.423,280.273 104.748,281.911 106.164 C 346.840 162.309,336.057 266.039,260.872 308.553 L 257.715 310.338 257.310 312.270 C 255.013 323.221,243.314 328.270,233.056 322.736 L 230.372 321.289 226.409 322.175 C 167.014 335.455,106.505 303.118,83.925 246.029 C 69.058 208.443,73.479 164.675,95.486 131.555 C 103.747 119.122,107.880 116.897,113.516 121.846 C 117.447 125.297,117.195 129.633,112.741 135.215 C 92.715 160.311,86.016 198.617,95.912 231.448 C 111.458 283.025,164.185 315.794,217.295 306.888 C 224.677 305.650,224.813 305.586,225.947 302.786 C 229.829 293.202,239.096 289.561,248.826 293.796 L 251.653 295.026 254.898 293.127 C 311.568 259.950,325.409 183.136,283.977 131.739 C 280.609 127.560,270.442 117.378,269.660 117.401 C 269.277 117.413,263.541 125.059,255.417 136.387 L 254.533 137.620 259.101 142.315 C 290.690 174.786,290.432 226.174,258.519 258.161 C 211.163 305.627,132.702 281.906,118.300 215.768 C 118.196 215.289,117.363 214.544,116.193 213.885 C 105.494 207.846,105.490 192.836,116.186 185.953 C 117.287 185.244,118.195 184.361,118.303 183.893 C 118.408 183.442,118.746 181.831,119.054 180.313 C 121.244 169.541,124.996 165.657,131.473 167.455 C 136.565 168.869,137.807 173.079,135.568 181.329 L 134.244 186.210 136.211 188.339 C 142.967 195.653,142.661 206.413,135.530 212.291 L 134.226 213.367 134.683 215.331 C 145.626 262.307,202.065 282.328,240.687 252.934 C 267.322 232.663,274.464 194.032,256.867 165.419 C 253.779 160.398,245.808 150.874,244.693 150.874 C 244.401 150.874,230.359 170.909,230.359 171.326 C 230.359 171.440,231.012 172.308,231.811 173.255 C 246.993 191.261,243.153 220.026,223.735 233.743 C 191.457 256.545,148.008 225.074,160.128 187.672 C 163.980 175.787,175.820 163.017,182.989 163.017 C 192.597 163.017,194.647 173.084,186.238 178.976 C 165.560 193.466,174.849 224.962,199.816 225.012 C 211.568 225.036,220.287 218.574,224.167 206.966 C 226.214 200.840,224.324 189.274,220.672 185.579 C 220.339 185.242,218.500 187.565,212.695 195.656 C 205.636 205.497,205.034 206.228,203.312 207.038 C 197.605 209.725,191.956 206.132,191.956 199.816 C 191.956 196.445,190.881 198.079,217.521 160.949 C 230.719 142.556,249.459 116.412,259.166 102.852 C 268.874 89.292,277.168 77.808,277.599 77.334 C 279.508 75.227,283.245 74.448,285.972 75.588 " stroke="none" fill="#ffffff" fill-rule="evenodd"></path><path id="path1" d="M183.809 0.568 C 68.644 10.398,-13.333 112.246,1.665 226.863 C 12.861 312.424,79.020 381.984,163.709 397.238 C 301.455 422.047,421.152 302.731,397.017 164.673 C 379.399 63.893,285.814 -8.139,183.809 0.568 M285.972 75.588 C 288.993 76.850,290.657 79.253,290.980 82.818 C 291.248 85.771,290.360 87.462,284.135 95.860 C 281.285 99.706,278.948 103.018,278.943 103.220 C 278.937 103.423,280.273 104.748,281.911 106.164 C 346.840 162.309,336.057 266.039,260.872 308.553 L 257.715 310.338 257.310 312.270 C 255.013 323.221,243.314 328.270,233.056 322.736 L 230.372 321.289 226.409 322.175 C 167.014 335.455,106.505 303.118,83.925 246.029 C 69.058 208.443,73.479 164.675,95.486 131.555 C 103.747 119.122,107.880 116.897,113.516 121.846 C 117.447 125.297,117.195 129.633,112.741 135.215 C 92.715 160.311,86.016 198.617,95.912 231.448 C 111.458 283.025,164.185 315.794,217.295 306.888 C 224.677 305.650,224.813 305.586,225.947 302.786 C 229.829 293.202,239.096 289.561,248.826 293.796 L 251.653 295.026 254.898 293.127 C 311.568 259.950,325.409 183.136,283.977 131.739 C 280.609 127.560,270.442 117.378,269.660 117.401 C 269.277 117.413,263.541 125.059,255.417 136.387 L 254.533 137.620 259.101 142.315 C 290.690 174.786,290.432 226.174,258.519 258.161 C 211.163 305.627,132.702 281.906,118.300 215.768 C 118.196 215.289,117.363 214.544,116.193 213.885 C 105.494 207.846,105.490 192.836,116.186 185.953 C 117.287 185.244,118.195 184.361,118.303 183.893 C 118.408 183.442,118.746 181.831,119.054 180.313 C 121.244 169.541,124.996 165.657,131.473 167.455 C 136.565 168.869,137.807 173.079,135.568 181.329 L 134.244 186.210 136.211 188.339 C 142.967 195.653,142.661 206.413,135.530 212.291 L 134.226 213.367 134.683 215.331 C 145.626 262.307,202.065 282.328,240.687 252.934 C 267.322 232.663,274.464 194.032,256.867 165.419 C 253.779 160.398,245.808 150.874,244.693 150.874 C 244.401 150.874,230.359 170.909,230.359 171.326 C 230.359 171.440,231.012 172.308,231.811 173.255 C 246.993 191.261,243.153 220.026,223.735 233.743 C 191.457 256.545,148.008 225.074,160.128 187.672 C 163.980 175.787,175.820 163.017,182.989 163.017 C 192.597 163.017,194.647 173.084,186.238 178.976 C 165.560 193.466,174.849 224.962,199.816 225.012 C 211.568 225.036,220.287 218.574,224.167 206.966 C 226.214 200.840,224.324 189.274,220.672 185.579 C 220.339 185.242,218.500 187.565,212.695 195.656 C 205.636 205.497,205.034 206.228,203.312 207.038 C 197.605 209.725,191.956 206.132,191.956 199.816 C 191.956 196.445,190.881 198.079,217.521 160.949 C 230.719 142.556,249.459 116.412,259.166 102.852 C 268.874 89.292,277.168 77.808,277.599 77.334 C 279.508 75.227,283.245 74.448,285.972 75.588 " stroke="none" fill="#ffffff" fill-rule="evenodd"></path><path id="path2" d="M183.809 0.568 C 68.644 10.398,-13.333 112.246,1.665 226.863 C 12.861 312.424,79.020 381.984,163.709 397.238 C 301.455 422.047,421.152 302.731,397.017 164.673 C 379.399 63.893,285.814 -8.139,183.809 0.568 M285.972 75.588 C 288.993 76.850,290.657 79.253,290.980 82.818 C 291.248 85.771,290.360 87.462,284.135 95.860 C 281.285 99.706,278.948 103.018,278.943 103.220 C 278.937 103.423,280.273 104.748,281.911 106.164 C 346.840 162.309,336.057 266.039,260.872 308.553 L 257.715 310.338 257.310 312.270 C 255.013 323.221,243.314 328.270,233.056 322.736 L 230.372 321.289 226.409 322.175 C 167.014 335.455,106.505 303.118,83.925 246.029 C 69.058 208.443,73.479 164.675,95.486 131.555 C 103.747 119.122,107.880 116.897,113.516 121.846 C 117.447 125.297,117.195 129.633,112.741 135.215 C 92.715 160.311,86.016 198.617,95.912 231.448 C 111.458 283.025,164.185 315.794,217.295 306.888 C 224.677 305.650,224.813 305.586,225.947 302.786 C 229.829 293.202,239.096 289.561,248.826 293.796 L 251.653 295.026 254.898 293.127 C 311.568 259.950,325.409 183.136,283.977 131.739 C 280.609 127.560,270.442 117.378,269.660 117.401 C 269.277 117.413,263.541 125.059,255.417 136.387 L 254.533 137.620 259.101 142.315 C 290.690 174.786,290.432 226.174,258.519 258.161 C 211.163 305.627,132.702 281.906,118.300 215.768 C 118.196 215.289,117.363 214.544,116.193 213.885 C 105.494 207.846,105.490 192.836,116.186 185.953 C 117.287 185.244,118.195 184.361,118.303 183.893 C 118.408 183.442,118.746 181.831,119.054 180.313 C 121.244 169.541,124.996 165.657,131.473 167.455 C 136.565 168.869,137.807 173.079,135.568 181.329 L 134.244 186.210 136.211 188.339 C 142.967 195.653,142.661 206.413,135.530 212.291 L 134.226 213.367 134.683 215.331 C 145.626 262.307,202.065 282.328,240.687 252.934 C 267.322 232.663,274.464 194.032,256.867 165.419 C 253.779 160.398,245.808 150.874,244.693 150.874 C 244.401 150.874,230.359 170.909,230.359 171.326 C 230.359 171.440,231.012 172.308,231.811 173.255 C 246.993 191.261,243.153 220.026,223.735 233.743 C 191.457 256.545,148.008 225.074,160.128 187.672 C 163.980 175.787,175.820 163.017,182.989 163.017 C 192.597 163.017,194.647 173.084,186.238 178.976 C 165.560 193.466,174.849 224.962,199.816 225.012 C 211.568 225.036,220.287 218.574,224.167 206.966 C 226.214 200.840,224.324 189.274,220.672 185.579 C 220.339 185.242,218.500 187.565,212.695 195.656 C 205.636 205.497,205.034 206.228,203.312 207.038 C 197.605 209.725,191.956 206.132,191.956 199.816 C 191.956 196.445,190.881 198.079,217.521 160.949 C 230.719 142.556,249.459 116.412,259.166 102.852 C 268.874 89.292,277.168 77.808,277.599 77.334 C 279.508 75.227,283.245 74.448,285.972 75.588 " stroke="none" fill="#ffffff" fill-rule="evenodd"></path><path id="path3" d="M183.809 0.568 C 68.644 10.398,-13.333 112.246,1.665 226.863 C 12.861 312.424,79.020 381.984,163.709 397.238 C 301.455 422.047,421.152 302.731,397.017 164.673 C 379.399 63.893,285.814 -8.139,183.809 0.568 M285.972 75.588 C 288.993 76.850,290.657 79.253,290.980 82.818 C 291.248 85.771,290.360 87.462,284.135 95.860 C 281.285 99.706,278.948 103.018,278.943 103.220 C 278.937 103.423,280.273 104.748,281.911 106.164 C 346.840 162.309,336.057 266.039,260.872 308.553 L 257.715 310.338 257.310 312.270 C 255.013 323.221,243.314 328.270,233.056 322.736 L 230.372 321.289 226.409 322.175 C 167.014 335.455,106.505 303.118,83.925 246.029 C 69.058 208.443,73.479 164.675,95.486 131.555 C 103.747 119.122,107.880 116.897,113.516 121.846 C 117.447 125.297,117.195 129.633,112.741 135.215 C 92.715 160.311,86.016 198.617,95.912 231.448 C 111.458 283.025,164.185 315.794,217.295 306.888 C 224.677 305.650,224.813 305.586,225.947 302.786 C 229.829 293.202,239.096 289.561,248.826 293.796 L 251.653 295.026 254.898 293.127 C 311.568 259.950,325.409 183.136,283.977 131.739 C 280.609 127.560,270.442 117.378,269.660 117.401 C 269.277 117.413,263.541 125.059,255.417 136.387 L 254.533 137.620 259.101 142.315 C 290.690 174.786,290.432 226.174,258.519 258.161 C 211.163 305.627,132.702 281.906,118.300 215.768 C 118.196 215.289,117.363 214.544,116.193 213.885 C 105.494 207.846,105.490 192.836,116.186 185.953 C 117.287 185.244,118.195 184.361,118.303 183.893 C 118.408 183.442,118.746 181.831,119.054 180.313 C 121.244 169.541,124.996 165.657,131.473 167.455 C 136.565 168.869,137.807 173.079,135.568 181.329 L 134.244 186.210 136.211 188.339 C 142.967 195.653,142.661 206.413,135.530 212.291 L 134.226 213.367 134.683 215.331 C 145.626 262.307,202.065 282.328,240.687 252.934 C 267.322 232.663,274.464 194.032,256.867 165.419 C 253.779 160.398,245.808 150.874,244.693 150.874 C 244.401 150.874,230.359 170.909,230.359 171.326 C 230.359 171.440,231.012 172.308,231.811 173.255 C 246.993 191.261,243.153 220.026,223.735 233.743 C 191.457 256.545,148.008 225.074,160.128 187.672 C 163.980 175.787,175.820 163.017,182.989 163.017 C 192.597 163.017,194.647 173.084,186.238 178.976 C 165.560 193.466,174.849 224.962,199.816 225.012 C 211.568 225.036,220.287 218.574,224.167 206.966 C 226.214 200.840,224.324 189.274,220.672 185.579 C 220.339 185.242,218.500 187.565,212.695 195.656 C 205.636 205.497,205.034 206.228,203.312 207.038 C 197.605 209.725,191.956 206.132,191.956 199.816 C 191.956 196.445,190.881 198.079,217.521 160.949 C 230.719 142.556,249.459 116.412,259.166 102.852 C 268.874 89.292,277.168 77.808,277.599 77.334 C 279.508 75.227,283.245 74.448,285.972 75.588 " stroke="none" fill="#ffffff" fill-rule="evenodd"></path><path id="path4" d="M183.809 0.568 C 68.644 10.398,-13.333 112.246,1.665 226.863 C 12.861 312.424,79.020 381.984,163.709 397.238 C 301.455 422.047,421.152 302.731,397.017 164.673 C 379.399 63.893,285.814 -8.139,183.809 0.568 M285.972 75.588 C 288.993 76.850,290.657 79.253,290.980 82.818 C 291.248 85.771,290.360 87.462,284.135 95.860 C 281.285 99.706,278.948 103.018,278.943 103.220 C 278.937 103.423,280.273 104.748,281.911 106.164 C 346.840 162.309,336.057 266.039,260.872 308.553 L 257.715 310.338 257.310 312.270 C 255.013 323.221,243.314 328.270,233.056 322.736 L 230.372 321.289 226.409 322.175 C 167.014 335.455,106.505 303.118,83.925 246.029 C 69.058 208.443,73.479 164.675,95.486 131.555 C 103.747 119.122,107.880 116.897,113.516 121.846 C 117.447 125.297,117.195 129.633,112.741 135.215 C 92.715 160.311,86.016 198.617,95.912 231.448 C 111.458 283.025,164.185 315.794,217.295 306.888 C 224.677 305.650,224.813 305.586,225.947 302.786 C 229.829 293.202,239.096 289.561,248.826 293.796 L 251.653 295.026 254.898 293.127 C 311.568 259.950,325.409 183.136,283.977 131.739 C 280.609 127.560,270.442 117.378,269.660 117.401 C 269.277 117.413,263.541 125.059,255.417 136.387 L 254.533 137.620 259.101 142.315 C 290.690 174.786,290.432 226.174,258.519 258.161 C 211.163 305.627,132.702 281.906,118.300 215.768 C 118.196 215.289,117.363 214.544,116.193 213.885 C 105.494 207.846,105.490 192.836,116.186 185.953 C 117.287 185.244,118.195 184.361,118.303 183.893 C 118.408 183.442,118.746 181.831,119.054 180.313 C 121.244 169.541,124.996 165.657,131.473 167.455 C 136.565 168.869,137.807 173.079,135.568 181.329 L 134.244 186.210 136.211 188.339 C 142.967 195.653,142.661 206.413,135.530 212.291 L 134.226 213.367 134.683 215.331 C 145.626 262.307,202.065 282.328,240.687 252.934 C 267.322 232.663,274.464 194.032,256.867 165.419 C 253.779 160.398,245.808 150.874,244.693 150.874 C 244.401 150.874,230.359 170.909,230.359 171.326 C 230.359 171.440,231.012 172.308,231.811 173.255 C 246.993 191.261,243.153 220.026,223.735 233.743 C 191.457 256.545,148.008 225.074,160.128 187.672 C 163.980 175.787,175.820 163.017,182.989 163.017 C 192.597 163.017,194.647 173.084,186.238 178.976 C 165.560 193.466,174.849 224.962,199.816 225.012 C 211.568 225.036,220.287 218.574,224.167 206.966 C 226.214 200.840,224.324 189.274,220.672 185.579 C 220.339 185.242,218.500 187.565,212.695 195.656 C 205.636 205.497,205.034 206.228,203.312 207.038 C 197.605 209.725,191.956 206.132,191.956 199.816 C 191.956 196.445,190.881 198.079,217.521 160.949 C 230.719 142.556,249.459 116.412,259.166 102.852 C 268.874 89.292,277.168 77.808,277.599 77.334 C 279.508 75.227,283.245 74.448,285.972 75.588 " stroke="none" fill="#ffffff" fill-rule="evenodd"></path></g></svg>