<svg id="svg" version="1.1" width="400" height="398.78665318503533" xmlns="http://www.w3.org/2000/svg" xmlns:xlink="http://www.w3.org/1999/xlink" style="display: block;"><g id="svgg"><path id="path0" d="M0.000 199.402 L 0.000 398.804 200.000 398.804 L 400.000 398.804 400.000 199.402 L 400.000 0.000 200.000 0.000 L 0.000 0.000 0.000 199.402 M212.089 16.768 C 221.896 17.466,229.389 18.540,240.279 20.808 C 245.194 21.832,255.341 24.661,255.624 25.087 C 255.739 25.259,257.168 25.802,258.800 26.294 C 268.905 29.338,287.503 38.121,298.106 44.854 C 302.180 47.441,310.269 53.174,310.269 53.474 C 310.269 53.630,312.288 55.281,314.756 57.143 C 322.302 62.836,338.819 78.928,339.746 81.491 C 339.941 82.029,343.451 86.307,344.872 87.737 C 347.185 90.066,355.432 102.386,358.620 108.275 C 364.198 118.578,370.438 132.374,372.330 138.584 C 372.731 139.900,373.163 141.067,373.290 141.176 C 373.660 141.496,374.737 144.643,376.020 149.153 C 384.336 178.373,385.063 211.938,378.025 241.675 C 376.669 247.402,374.275 255.673,373.464 257.428 C 373.160 258.086,371.820 261.496,370.487 265.005 C 367.423 273.069,359.581 288.957,355.354 295.664 C 351.824 301.266,345.619 310.063,344.849 310.557 C 344.234 310.953,341.376 314.500,341.376 314.869 C 341.376 316.380,317.579 340.179,316.068 340.179 C 315.650 340.179,311.466 343.517,311.466 343.850 C 311.466 344.253,301.785 351.055,296.710 354.217 C 288.192 359.524,274.849 366.021,264.874 369.717 C 261.875 370.828,258.883 371.981,258.225 372.279 C 244.088 378.680,208.682 383.092,185.971 381.284 C 170.207 380.028,149.588 375.857,141.376 372.261 C 140.718 371.973,137.705 370.820,134.680 369.699 C 119.212 363.967,96.541 351.515,88.933 344.574 C 87.946 343.673,85.910 342.002,84.409 340.860 C 74.717 333.488,62.828 321.510,56.056 312.295 C 54.754 310.523,53.557 309.073,53.396 309.073 C 52.413 309.073,41.990 292.888,38.500 285.942 C 37.233 283.420,36.050 281.173,35.872 280.949 C 34.679 279.452,27.770 262.903,26.299 258.019 C 25.804 256.378,25.259 254.941,25.087 254.827 C 23.910 254.044,19.392 234.073,17.956 223.305 C 14.959 200.846,16.662 173.420,22.336 152.742 C 22.788 151.097,23.524 148.407,23.972 146.764 C 24.420 145.122,24.933 143.686,25.112 143.574 C 25.290 143.462,25.729 142.383,26.085 141.176 C 28.093 134.389,33.012 122.900,37.676 114.105 C 39.327 110.991,40.678 108.271,40.678 108.060 C 40.678 107.849,40.818 107.677,40.989 107.677 C 41.161 107.677,41.499 107.151,41.741 106.509 C 42.350 104.896,51.399 91.326,51.865 91.326 C 52.073 91.326,52.243 91.089,52.243 90.800 C 52.243 90.510,52.663 89.908,53.176 89.462 C 53.689 89.016,55.887 86.337,58.060 83.508 C 64.633 74.950,75.972 63.791,85.371 56.630 C 86.954 55.424,88.717 53.943,89.288 53.340 C 89.859 52.737,90.529 52.243,90.777 52.243 C 91.025 52.243,91.453 51.973,91.727 51.643 C 96.077 46.401,127.166 30.352,140.778 26.320 C 142.423 25.833,143.861 25.288,143.973 25.110 C 144.085 24.932,145.521 24.427,147.163 23.987 C 148.806 23.547,151.047 22.904,152.144 22.557 C 166.066 18.155,193.859 15.470,212.089 16.768 M279.761 74.745 C 277.905 75.577,270.471 85.096,265.418 93.110 C 265.007 93.763,264.342 94.649,263.940 95.080 C 263.539 95.511,263.210 96.002,263.210 96.171 C 263.210 96.341,262.881 96.800,262.478 97.193 C 261.673 97.976,251.005 112.616,248.823 115.932 C 247.247 118.326,231.688 140.085,230.486 141.575 C 230.044 142.124,223.493 151.186,215.928 161.715 C 208.364 172.243,200.038 183.819,197.426 187.438 C 192.081 194.844,191.761 195.485,191.774 198.735 C 191.796 204.134,195.715 207.563,200.963 206.776 C 204.880 206.188,204.052 207.128,217.297 188.236 C 220.149 184.168,220.304 184.121,221.835 186.867 C 230.905 203.128,218.680 223.689,199.920 223.723 C 175.553 223.767,166.144 192.961,186.037 178.269 C 191.512 174.225,192.994 170.227,190.614 165.918 C 187.876 160.959,181.923 160.327,176.511 164.420 C 174.997 165.564,173.351 166.728,172.852 167.006 C 170.377 168.386,164.479 176.485,161.825 182.148 C 155.725 195.165,157.317 211.668,165.736 222.694 C 166.486 223.676,167.099 224.628,167.099 224.812 C 167.099 225.233,172.791 230.907,173.214 230.907 C 173.386 230.907,174.369 231.553,175.398 232.341 C 188.324 242.253,208.998 242.609,222.872 233.158 C 224.045 232.359,225.138 231.705,225.300 231.705 C 225.462 231.705,226.934 230.404,228.571 228.814 C 243.511 214.300,245.439 191.932,233.307 173.889 C 231.042 170.520,230.849 170.076,231.322 169.326 C 231.610 168.869,232.039 168.131,232.274 167.686 C 233.507 165.357,244.171 150.349,244.594 150.349 C 245.824 150.349,252.862 158.491,255.838 163.357 C 256.895 165.086,258.237 167.247,258.821 168.159 C 261.842 172.885,265.194 183.994,266.021 192.024 C 270.682 237.280,229.018 274.009,184.845 263.585 C 178.806 262.160,169.890 258.818,169.890 257.979 C 169.890 257.785,169.651 257.627,169.358 257.627 C 167.965 257.627,159.842 252.077,154.792 247.675 C 149.457 243.024,139.980 230.149,139.980 227.552 C 139.980 227.235,139.734 226.730,139.434 226.430 C 138.339 225.335,136.214 219.744,134.791 214.218 L 134.345 212.484 136.776 209.953 C 143.260 203.201,143.187 194.047,136.595 187.296 L 134.402 185.049 135.795 179.966 C 137.931 172.175,137.180 168.934,132.712 166.654 C 126.537 163.504,121.718 167.641,119.430 178.055 C 118.185 183.726,118.518 183.093,115.834 184.875 C 105.260 191.894,105.470 206.592,116.234 212.845 L 118.210 213.994 119.050 217.565 C 121.749 229.043,127.463 241.202,133.867 249.094 C 134.597 249.994,135.194 250.824,135.194 250.938 C 135.194 251.491,142.568 259.190,145.295 261.484 C 156.981 271.315,173.054 278.610,186.902 280.367 C 188.842 280.614,190.764 280.996,191.173 281.218 C 192.149 281.745,207.440 281.750,208.428 281.223 C 208.837 281.005,210.698 280.621,212.562 280.370 C 223.154 278.944,236.154 273.943,244.948 267.911 C 246.638 266.751,249.275 264.943,250.807 263.893 C 254.102 261.635,262.074 253.784,264.368 250.539 C 274.143 236.710,278.494 227.391,280.793 215.354 C 281.275 212.832,281.868 210.336,282.111 209.809 C 282.723 208.480,282.720 188.568,282.107 187.798 C 281.862 187.490,281.537 186.262,281.385 185.069 C 279.521 170.426,270.114 151.989,258.564 140.338 L 254.768 136.508 261.893 126.807 C 265.811 121.472,269.237 117.034,269.505 116.945 C 270.651 116.563,282.325 128.871,287.571 135.992 C 293.706 144.319,299.924 156.547,302.377 165.105 C 311.989 198.646,307.853 230.765,290.502 257.317 C 281.558 271.005,266.576 285.127,253.348 292.339 L 251.661 293.258 249.161 292.175 C 239.160 287.844,228.772 291.979,225.495 301.596 C 224.517 304.468,217.977 305.817,203.352 306.162 C 163.461 307.105,128.897 288.838,107.835 255.682 C 84.871 219.534,86.833 167.795,112.400 135.292 C 117.426 128.902,118.025 125.505,114.777 121.806 C 107.732 113.782,99.633 120.731,87.088 145.563 C 75.494 168.513,72.173 200.889,78.623 228.071 C 82.921 246.185,90.288 260.720,104.603 279.334 C 107.049 282.515,116.750 292.392,118.247 293.226 C 118.734 293.497,120.637 294.935,122.477 296.421 C 151.383 319.771,189.612 328.634,226.781 320.602 L 230.432 319.814 232.305 320.859 C 238.199 324.150,245.307 324.294,249.844 321.215 C 250.635 320.678,251.419 320.239,251.587 320.239 C 253.141 320.239,257.179 313.567,257.535 310.412 C 257.729 308.692,257.767 308.654,261.368 306.607 C 273.131 299.920,291.553 284.965,294.407 279.785 C 294.687 279.278,296.275 277.180,297.937 275.124 C 301.381 270.863,305.657 264.581,308.489 259.621 C 309.554 257.757,310.536 256.142,310.671 256.032 C 311.028 255.743,314.762 247.638,316.366 243.669 C 327.496 216.138,327.439 181.904,316.217 153.652 C 314.869 150.260,311.003 141.870,310.652 141.575 C 310.522 141.466,309.470 139.729,308.315 137.717 C 301.315 125.513,283.190 103.689,280.056 103.689 C 278.194 103.689,278.803 102.446,284.160 95.312 C 291.221 85.910,292.067 83.884,290.673 79.721 C 289.206 75.339,283.867 72.904,279.761 74.745 " stroke="none" fill="#000000" fill-rule="evenodd"></path><path id="path1" d="M156.132 21.516 C 151.861 22.580,149.856 23.170,150.010 23.316 C 150.087 23.389,152.483 22.853,155.334 22.126 C 158.185 21.398,160.160 20.807,159.721 20.812 C 159.282 20.817,157.667 21.134,156.132 21.516 M244.267 22.107 C 247.119 22.830,250.770 23.817,252.381 24.301 C 253.992 24.785,255.387 25.105,255.481 25.011 C 255.666 24.826,247.039 22.323,242.871 21.353 C 238.019 20.223,239.063 20.787,244.267 22.107 M147.358 23.928 C 146.342 24.365,147.390 24.365,148.754 23.928 C 149.555 23.672,149.594 23.607,148.953 23.597 C 148.514 23.591,147.797 23.740,147.358 23.928 M144.566 24.726 C 144.064 24.942,143.990 25.069,144.367 25.069 C 144.696 25.069,145.324 24.914,145.763 24.726 C 146.265 24.510,146.339 24.383,145.962 24.383 C 145.633 24.383,145.005 24.537,144.566 24.726 M94.915 49.106 C 91.665 51.446,91.096 52.218,94.209 50.063 C 95.686 49.041,96.997 48.037,97.124 47.831 C 97.458 47.292,97.337 47.361,94.915 49.106 M302.692 47.981 C 302.692 48.199,308.724 52.612,309.870 53.233 C 310.902 53.791,309.807 52.877,307.478 51.234 C 306.271 50.383,304.701 49.254,303.988 48.724 C 303.275 48.195,302.692 47.861,302.692 47.981 M319.043 60.818 C 319.787 61.585,320.485 62.213,320.595 62.213 C 320.705 62.213,320.186 61.585,319.442 60.818 C 318.698 60.050,317.999 59.422,317.889 59.422 C 317.780 59.422,318.299 60.050,319.043 60.818 M78.340 62.313 L 77.168 63.609 78.465 62.438 C 79.673 61.346,79.944 61.017,79.636 61.017 C 79.567 61.017,78.984 61.600,78.340 62.313 M322.832 64.207 C 323.912 65.304,324.885 66.201,324.995 66.201 C 325.105 66.201,324.311 65.304,323.230 64.207 C 322.150 63.111,321.177 62.213,321.067 62.213 C 320.957 62.213,321.751 63.111,322.832 64.207 M69.986 70.289 L 63.210 77.168 70.090 70.393 C 76.481 64.099,77.149 63.410,76.865 63.410 C 76.808 63.410,73.712 66.505,69.986 70.289 M328.415 69.392 C 329.271 70.269,330.062 70.987,330.172 70.987 C 330.282 70.987,329.670 70.269,328.814 69.392 C 327.957 68.514,327.166 67.797,327.056 67.797 C 326.947 67.797,327.558 68.514,328.415 69.392 M331.805 72.782 C 332.549 73.549,333.247 74.177,333.357 74.177 C 333.467 74.177,332.947 73.549,332.203 72.782 C 331.459 72.014,330.761 71.386,330.651 71.386 C 330.541 71.386,331.061 72.014,331.805 72.782 M334.978 76.271 C 335.956 77.313,336.809 78.166,336.873 78.166 C 337.172 78.166,336.856 77.807,335.095 76.155 L 333.200 74.377 334.978 76.271 M61.793 78.863 L 60.419 80.359 61.914 78.985 C 63.306 77.705,63.593 77.368,63.289 77.368 C 63.222 77.368,62.549 78.041,61.793 78.863 M338.185 79.960 C 338.930 80.728,339.628 81.356,339.738 81.356 C 339.847 81.356,339.328 80.728,338.584 79.960 C 337.840 79.192,337.142 78.564,337.032 78.564 C 336.922 78.564,337.441 79.192,338.185 79.960 M344.566 87.486 C 344.566 87.718,348.039 92.450,349.580 94.317 C 350.123 94.975,349.639 94.167,348.504 92.522 C 346.368 89.427,344.566 87.122,344.566 87.486 M49.504 94.317 C 48.355 95.962,47.499 97.308,47.601 97.308 C 47.770 97.308,50.912 93.000,51.600 91.825 C 52.456 90.362,51.332 91.698,49.504 94.317 M104.885 119.226 C 104.118 119.636,102.862 120.660,102.094 121.501 L 100.699 123.031 102.294 121.583 C 104.512 119.568,105.524 119.100,108.275 118.814 L 110.668 118.566 108.475 118.523 C 107.026 118.495,105.807 118.733,104.885 119.226 M305.347 132.825 C 305.601 133.141,306.922 135.284,308.282 137.587 C 309.643 139.890,310.652 141.459,310.524 141.074 C 310.129 139.880,305.880 132.847,305.369 132.540 C 304.998 132.317,304.993 132.383,305.347 132.825 M236.021 133.500 C 234.798 134.938,230.427 141.227,230.565 141.349 C 230.643 141.419,232.094 139.525,233.789 137.139 C 236.661 133.095,237.431 131.841,236.021 133.500 M91.392 136.690 C 89.423 140.076,86.864 145.165,87.130 145.165 C 87.240 145.165,88.131 143.594,89.109 141.675 C 90.088 139.756,91.439 137.243,92.112 136.092 C 92.785 134.940,93.251 133.998,93.146 133.998 C 93.042 133.998,92.252 135.209,91.392 136.690 M110.392 137.886 C 108.945 139.574,104.599 146.760,105.026 146.760 C 105.136 146.760,105.806 145.728,106.515 144.467 C 107.225 143.205,108.578 141.052,109.522 139.681 C 111.222 137.214,111.550 136.537,110.392 137.886 M288.341 137.252 C 288.338 137.397,289.321 139.013,290.526 140.842 C 291.732 142.671,292.719 144.038,292.720 143.881 C 292.721 143.723,291.869 142.295,290.828 140.708 C 288.409 137.022,288.348 136.938,288.341 137.252 M373.308 141.468 C 373.293 141.737,373.541 142.635,373.859 143.462 C 374.665 145.556,376.693 152.748,377.488 156.331 C 377.853 157.976,378.289 159.471,378.458 159.652 C 378.867 160.091,377.531 154.449,375.877 148.754 C 374.415 143.721,373.352 140.705,373.308 141.468 M24.209 145.900 C 23.835 147.244,23.543 148.570,23.560 148.847 C 23.577 149.125,23.935 148.185,24.356 146.760 C 24.777 145.334,25.069 144.008,25.005 143.812 C 24.940 143.617,24.582 144.556,24.209 145.900 M22.569 151.677 C 22.220 152.878,21.948 154.103,21.965 154.398 C 21.981 154.694,22.336 153.779,22.752 152.366 C 23.169 150.954,23.441 149.729,23.357 149.645 C 23.273 149.561,22.919 150.475,22.569 151.677 M21.358 156.553 C 21.208 157.353,21.165 158.087,21.262 158.185 C 21.360 158.282,21.562 157.707,21.713 156.907 C 21.863 156.107,21.906 155.372,21.808 155.275 C 21.711 155.177,21.508 155.752,21.358 156.553 M191.318 167.666 C 191.813 169.171,191.814 169.703,191.325 171.624 C 191.014 172.845,190.895 173.760,191.060 173.658 C 192.199 172.955,192.211 166.833,191.075 166.131 C 190.894 166.020,191.003 166.710,191.318 167.666 M135.116 168.495 C 137.585 171.844,137.661 173.160,135.778 180.029 C 134.701 183.957,134.479 185.278,134.839 185.608 C 135.183 185.924,135.240 185.914,135.048 185.573 C 134.904 185.316,135.416 182.805,136.186 179.994 C 138.081 173.083,137.942 171.275,135.299 168.385 L 133.940 166.899 135.116 168.495 M259.004 169.183 C 260.298 171.549,262.625 177.552,263.452 180.658 C 263.832 182.084,264.290 183.419,264.470 183.625 C 265.030 184.266,263.231 178.242,261.738 174.477 C 260.077 170.287,258.988 168.045,258.453 167.715 C 258.243 167.585,258.491 168.246,259.004 169.183 M276.832 168.096 C 276.831 168.315,277.072 169.123,277.368 169.890 C 277.664 170.658,277.911 171.017,277.918 170.688 C 277.925 170.359,277.684 169.551,277.382 168.893 C 277.081 168.235,276.834 167.876,276.832 168.096 M281.648 186.241 C 281.648 187.009,281.730 187.323,281.830 186.939 C 281.931 186.555,281.931 185.927,281.830 185.543 C 281.730 185.160,281.648 185.474,281.648 186.241 M136.391 187.039 C 136.859 187.697,137.332 188.235,137.442 188.235 C 137.552 188.235,137.258 187.697,136.790 187.039 C 136.321 186.381,135.848 185.842,135.738 185.842 C 135.629 185.842,135.922 186.381,136.391 187.039 M136.049 210.710 L 134.345 212.446 134.957 214.797 C 135.864 218.279,137.795 223.828,138.562 225.157 C 138.931 225.797,139.105 225.962,138.949 225.523 C 138.793 225.085,138.141 223.290,137.501 221.535 C 136.861 219.781,135.974 217.023,135.529 215.407 L 134.722 212.469 136.437 210.721 C 137.380 209.760,138.062 208.973,137.953 208.973 C 137.843 208.973,136.986 209.754,136.049 210.710 M281.648 211.366 C 281.648 212.134,281.730 212.448,281.830 212.064 C 281.931 211.680,281.931 211.052,281.830 210.668 C 281.730 210.284,281.648 210.598,281.648 211.366 M264.238 215.055 C 263.462 217.742,260.909 224.728,260.147 226.246 C 259.043 228.446,258.375 230.110,258.596 230.110 C 258.856 230.110,261.234 224.875,262.412 221.711 C 263.780 218.033,264.830 214.556,264.572 214.556 C 264.467 214.556,264.317 214.781,264.238 215.055 M277.474 227.217 C 276.879 228.884,276.547 230.082,276.736 229.880 C 277.190 229.394,278.923 224.553,278.717 224.347 C 278.629 224.259,278.070 225.550,277.474 227.217 M20.757 239.083 C 20.740 239.976,20.901 240.625,23.202 248.968 C 24.097 252.212,24.908 254.786,25.005 254.689 C 25.102 254.592,24.786 253.195,24.304 251.584 C 23.821 249.972,22.829 246.321,22.099 243.470 C 21.369 240.618,20.765 238.644,20.757 239.083 M378.295 238.983 C 378.215 239.257,377.569 241.815,376.859 244.666 C 376.149 247.517,374.977 251.711,374.256 253.986 C 373.535 256.261,373.098 257.966,373.285 257.775 C 373.872 257.174,377.182 245.669,378.633 239.182 C 378.810 238.391,378.517 238.218,378.295 238.983 M106.011 252.715 C 108.057 256.173,110.801 260.330,111.200 260.577 C 111.415 260.710,110.558 259.248,109.296 257.329 C 108.034 255.409,106.706 253.267,106.345 252.568 C 105.984 251.869,105.505 251.184,105.281 251.045 C 105.057 250.907,105.386 251.658,106.011 252.715 M87.537 253.639 C 88.999 256.558,93.001 263.611,93.299 263.796 C 93.636 264.004,87.572 252.931,87.114 252.502 C 86.962 252.360,87.152 252.871,87.537 253.639 M291.186 255.660 C 289.793 257.901,289.472 258.907,290.749 257.029 C 291.754 255.551,292.794 253.639,292.592 253.639 C 292.510 253.639,291.877 254.548,291.186 255.660 M310.269 256.271 C 310.269 256.476,309.107 258.615,307.686 261.024 C 306.265 263.433,305.450 264.989,305.875 264.482 C 307.108 263.012,310.779 256.409,310.512 256.142 C 310.378 256.008,310.269 256.067,310.269 256.271 M227.717 258.885 C 224.720 260.296,218.117 262.631,215.999 263.029 C 215.201 263.178,214.456 263.450,214.343 263.632 C 214.095 264.033,218.959 262.722,222.532 261.425 C 225.629 260.301,230.508 258.097,230.508 257.823 C 230.508 257.558,230.635 257.510,227.717 258.885 M172.682 259.489 C 177.312 261.654,186.589 264.495,186.020 263.574 C 185.897 263.374,185.492 263.210,185.121 263.210 C 183.857 263.211,177.277 261.109,173.710 259.566 C 169.296 257.656,168.657 257.608,172.682 259.489 M169.667 276.149 C 170.093 276.491,170.721 276.756,171.063 276.738 C 171.600 276.711,171.603 276.677,171.087 276.485 C 170.758 276.363,170.130 276.098,169.691 275.896 C 168.906 275.535,168.906 275.539,169.667 276.149 M227.717 276.570 C 226.949 276.866,226.590 277.108,226.919 277.108 C 227.248 277.108,228.146 276.866,228.913 276.570 C 229.681 276.275,230.040 276.033,229.711 276.033 C 229.382 276.033,228.485 276.275,227.717 276.570 M295.289 278.465 L 294.118 279.761 295.414 278.589 C 296.127 277.945,296.710 277.362,296.710 277.293 C 296.710 276.985,296.381 277.256,295.289 278.465 M185.942 280.634 C 186.326 280.734,186.954 280.734,187.338 280.634 C 187.722 280.534,187.408 280.451,186.640 280.451 C 185.872 280.451,185.558 280.534,185.942 280.634 M188.938 281.040 C 189.434 281.135,190.152 281.132,190.533 281.032 C 190.914 280.932,190.508 280.854,189.631 280.858 C 188.754 280.863,188.442 280.944,188.938 281.040 M209.277 281.040 C 209.773 281.135,210.491 281.132,210.872 281.032 C 211.253 280.932,210.847 280.854,209.970 280.858 C 209.093 280.863,208.781 280.944,209.277 281.040 M137.188 286.537 C 137.188 286.743,142.212 290.132,144.566 291.514 C 145.444 292.029,145.982 292.271,145.763 292.052 C 145.176 291.466,137.188 286.328,137.188 286.537 M256.122 290.286 C 252.970 292.206,252.367 292.817,255.135 291.287 C 257.159 290.168,259.232 288.746,258.824 288.757 C 258.714 288.760,257.498 289.448,256.122 290.286 M239.315 290.074 C 239.407 290.153,240.828 290.314,242.473 290.432 C 244.225 290.557,244.968 290.517,244.267 290.335 C 243.058 290.021,239.008 289.808,239.315 290.074 M118.445 293.245 C 118.445 293.314,119.028 293.897,119.741 294.542 L 121.037 295.713 119.866 294.417 C 118.774 293.209,118.445 292.937,118.445 293.245 M48.337 302.293 C 51.281 306.542,53.132 309.073,53.296 309.073 C 53.546 309.073,49.709 303.597,48.406 302.094 L 47.369 300.897 48.337 302.293 M350.030 303.190 C 346.149 308.442,344.550 310.725,344.911 310.502 C 345.395 310.203,351.432 301.894,351.165 301.894 C 351.068 301.894,350.557 302.478,350.030 303.190 M132.949 304.203 C 133.340 304.836,143.170 310.555,143.170 310.150 C 143.170 310.042,141.331 308.920,139.083 307.656 C 136.834 306.393,134.469 304.992,133.826 304.545 C 133.183 304.098,132.789 303.944,132.949 304.203 M261.944 306.220 C 259.822 307.464,257.937 308.647,257.757 308.848 C 257.576 309.050,258.235 308.757,259.222 308.197 C 260.209 307.638,262.049 306.602,263.310 305.895 C 264.571 305.188,265.703 304.447,265.826 304.249 C 266.132 303.754,266.262 303.688,261.944 306.220 M339.955 316.351 L 338.784 317.647 340.080 316.476 C 340.793 315.832,341.376 315.248,341.376 315.180 C 341.376 314.872,341.047 315.143,339.955 316.351 M59.821 317.248 C 60.565 318.016,61.263 318.644,61.373 318.644 C 61.482 318.644,60.963 318.016,60.219 317.248 C 59.475 316.481,58.777 315.852,58.667 315.852 C 58.557 315.852,59.076 316.481,59.821 317.248 M337.366 319.342 L 335.992 320.837 337.488 319.463 C 338.880 318.184,339.166 317.846,338.862 317.846 C 338.795 317.846,338.122 318.519,337.366 319.342 M62.812 320.638 C 63.668 321.515,64.459 322.233,64.569 322.233 C 64.678 322.233,64.067 321.515,63.210 320.638 C 62.354 319.761,61.563 319.043,61.453 319.043 C 61.344 319.043,61.955 319.761,62.812 320.638 M334.378 322.732 L 332.802 324.427 334.497 322.850 C 335.429 321.983,336.191 321.221,336.191 321.155 C 336.191 320.854,335.844 321.156,334.378 322.732 M66.800 325.025 C 68.102 326.341,69.257 327.418,69.367 327.418 C 69.477 327.418,68.501 326.341,67.198 325.025 C 65.896 323.709,64.741 322.632,64.631 322.632 C 64.521 322.632,65.497 323.709,66.800 325.025 M71.186 329.412 C 72.043 330.289,72.834 331.007,72.944 331.007 C 73.053 331.007,72.442 330.289,71.585 329.412 C 70.729 328.534,69.938 327.817,69.828 327.817 C 69.718 327.817,70.330 328.534,71.186 329.412 M323.408 333.699 L 322.034 335.194 323.529 333.820 C 324.921 332.541,325.208 332.203,324.904 332.203 C 324.837 332.203,324.164 332.876,323.408 333.699 M76.770 334.596 C 77.626 335.474,78.417 336.191,78.527 336.191 C 78.636 336.191,78.025 335.474,77.168 334.596 C 76.312 333.719,75.521 333.001,75.411 333.001 C 75.302 333.001,75.913 333.719,76.770 334.596 M320.218 336.491 L 318.843 337.986 320.339 336.612 C 321.731 335.332,322.018 334.995,321.713 334.995 C 321.647 334.995,320.974 335.668,320.218 336.491 M78.963 336.316 C 78.963 336.385,79.546 336.968,80.259 337.612 L 81.555 338.784 80.384 337.488 C 79.292 336.279,78.963 336.008,78.963 336.316 M317.223 339.083 L 316.052 340.379 317.348 339.208 C 318.061 338.563,318.644 337.980,318.644 337.911 C 318.644 337.603,318.315 337.875,317.223 339.083 M307.677 346.405 C 305.703 347.834,303.908 349.198,303.689 349.437 C 303.178 349.995,308.888 346.068,310.469 344.776 C 312.647 342.994,311.319 343.770,307.677 346.405 M89.911 345.333 C 90.040 345.542,91.320 346.533,92.757 347.537 C 94.193 348.541,95.262 349.192,95.134 348.984 C 95.005 348.775,93.724 347.784,92.288 346.780 C 90.852 345.776,89.782 345.125,89.911 345.333 M140.988 372.025 C 141.966 372.929,160.197 378.039,159.727 377.278 C 159.634 377.128,158.518 376.777,157.247 376.499 C 154.167 375.825,145.953 373.516,142.982 372.490 C 141.672 372.037,140.775 371.828,140.988 372.025 M254.038 373.279 C 251.515 374.111,247.388 375.288,244.865 375.896 C 242.343 376.503,240.125 377.134,239.936 377.297 C 239.432 377.735,246.751 375.943,252.044 374.333 C 257.324 372.727,258.824 372.188,258.824 371.894 C 258.824 371.779,258.779 371.703,258.724 371.726 C 258.669 371.749,256.560 372.448,254.038 373.279 " stroke="none" fill="#2f2f2f" fill-rule="evenodd"></path><path id="path2" d="M188.833 16.737 C 187.079 16.869,190.668 16.902,196.810 16.810 C 202.951 16.717,208.051 16.576,208.142 16.496 C 208.402 16.269,192.398 16.469,188.833 16.737 M209.870 17.040 C 210.693 17.126,212.039 17.126,212.861 17.040 C 213.684 16.954,213.011 16.884,211.366 16.884 C 209.721 16.884,209.048 16.954,209.870 17.040 M182.161 17.438 C 182.877 17.526,183.954 17.525,184.554 17.434 C 185.153 17.343,184.566 17.270,183.250 17.272 C 181.934 17.274,181.444 17.349,182.161 17.438 M215.660 17.438 C 216.377 17.526,217.454 17.525,218.053 17.434 C 218.652 17.343,218.066 17.270,216.750 17.272 C 215.434 17.274,214.943 17.349,215.660 17.438 M178.569 17.829 C 179.065 17.925,179.783 17.921,180.164 17.821 C 180.545 17.722,180.140 17.644,179.262 17.648 C 178.385 17.652,178.073 17.734,178.569 17.829 M224.327 18.332 C 227.178 18.753,230.380 19.267,231.441 19.474 C 232.502 19.681,233.219 19.715,233.036 19.549 C 232.606 19.161,225.555 18.031,221.934 17.769 C 220.226 17.645,221.154 17.864,224.327 18.332 M175.379 18.228 C 175.875 18.324,176.592 18.320,176.974 18.220 C 177.355 18.120,176.949 18.042,176.072 18.047 C 175.194 18.051,174.882 18.133,175.379 18.228 M169.492 18.829 C 168.285 19.042,167.138 19.370,166.942 19.556 C 166.742 19.746,166.925 19.807,167.356 19.694 C 167.781 19.583,169.556 19.252,171.302 18.959 C 173.048 18.666,173.848 18.430,173.081 18.433 C 172.313 18.437,170.698 18.615,169.492 18.829 M272.652 82.253 C 272.120 82.966,270.023 85.882,267.993 88.734 C 265.963 91.585,264.124 94.143,263.906 94.417 C 263.689 94.691,263.613 94.915,263.738 94.915 C 263.863 94.915,266.215 91.775,268.965 87.936 C 271.715 84.098,273.888 80.957,273.793 80.957 C 273.698 80.957,273.184 81.540,272.652 82.253 M268.738 117.547 C 267.642 118.870,267.400 119.470,268.434 118.300 C 269.113 117.531,269.650 117.238,269.991 117.448 C 270.335 117.661,270.416 117.614,270.228 117.310 C 269.831 116.668,269.411 116.735,268.738 117.547 M276.171 123.230 C 279.236 126.301,281.834 128.814,281.943 128.814 C 282.053 128.814,279.635 126.301,276.570 123.230 C 273.505 120.160,270.908 117.647,270.798 117.647 C 270.689 117.647,273.107 120.160,276.171 123.230 M247.258 152.941 C 248.671 154.367,249.917 155.533,250.027 155.533 C 250.136 155.533,249.070 154.367,247.657 152.941 C 246.244 151.515,244.998 150.349,244.888 150.349 C 244.779 150.349,245.845 151.515,247.258 152.941 M379.101 164.189 C 379.604 166.776,380.292 170.598,380.630 172.682 C 381.071 175.400,381.194 175.794,381.065 174.078 C 380.838 171.058,378.880 160.226,378.484 159.802 C 378.321 159.627,378.599 161.601,379.101 164.189 M212.524 166.002 C 210.284 169.128,208.009 172.268,207.468 172.981 C 206.928 173.694,206.587 174.277,206.711 174.277 C 206.834 174.277,208.587 171.989,210.605 169.192 C 212.624 166.396,214.892 163.255,215.646 162.213 C 216.400 161.171,216.923 160.319,216.807 160.319 C 216.692 160.319,214.765 162.876,212.524 166.002 M19.296 166.876 C 19.174 167.192,19.145 167.775,19.231 168.172 C 19.329 168.622,19.465 168.407,19.595 167.597 C 19.812 166.239,19.671 165.899,19.296 166.876 M122.341 168.794 C 121.469 170.139,120.686 171.741,121.124 171.286 C 121.683 170.705,123.328 167.896,123.109 167.896 C 123.007 167.896,122.661 168.300,122.341 168.794 M18.529 171.271 C 18.375 172.506,18.335 173.602,18.440 173.708 C 18.545 173.813,18.751 172.882,18.897 171.639 C 19.043 170.396,19.083 169.299,18.986 169.202 C 18.889 169.105,18.683 170.036,18.529 171.271 M18.047 175.673 C 18.051 176.550,18.133 176.862,18.228 176.366 C 18.324 175.870,18.320 175.152,18.220 174.771 C 18.120 174.390,18.042 174.796,18.047 175.673 M381.357 178.066 C 381.361 178.943,381.443 179.255,381.538 178.759 C 381.634 178.263,381.630 177.545,381.530 177.164 C 381.430 176.783,381.352 177.188,381.357 178.066 M17.648 178.863 C 17.652 179.741,17.734 180.053,17.829 179.557 C 17.925 179.061,17.921 178.343,17.821 177.961 C 17.722 177.580,17.644 177.986,17.648 178.863 M182.232 181.356 L 180.857 182.851 182.353 181.477 C 183.175 180.721,183.848 180.048,183.848 179.982 C 183.848 179.677,183.511 179.964,182.232 181.356 M381.779 182.054 C 381.781 183.370,381.855 183.860,381.944 183.143 C 382.033 182.427,382.031 181.350,381.940 180.751 C 381.849 180.151,381.776 180.738,381.779 182.054 M17.272 182.851 C 17.274 184.167,17.349 184.658,17.438 183.941 C 17.526 183.224,17.525 182.147,17.434 181.548 C 17.343 180.949,17.270 181.535,17.272 182.851 M116.747 183.814 C 115.108 184.865,114.881 185.235,116.326 184.500 C 117.025 184.145,117.708 183.673,117.845 183.452 C 118.165 182.935,118.069 182.967,116.747 183.814 M240.000 188.364 C 241.818 195.388,241.431 207.370,239.239 211.930 C 238.874 212.690,238.888 212.702,239.401 212.068 C 242.076 208.763,242.021 186.538,239.334 184.878 C 239.179 184.782,239.479 186.351,240.000 188.364 M382.181 187.039 C 382.181 188.465,382.254 189.048,382.342 188.335 C 382.431 187.622,382.431 186.456,382.342 185.743 C 382.254 185.030,382.181 185.613,382.181 187.039 M16.632 190.429 C 16.479 193.280,16.381 198.126,16.415 201.196 C 16.463 205.655,16.543 204.732,16.809 196.610 C 17.171 185.534,17.075 182.166,16.632 190.429 M265.529 190.429 C 265.878 194.501,265.881 203.452,265.534 207.577 C 265.304 210.321,265.326 210.517,265.690 208.973 C 266.244 206.631,266.240 191.805,265.685 189.232 C 265.299 187.442,265.283 187.564,265.529 190.429 M158.921 189.133 C 157.288 193.747,157.384 207.792,159.060 209.469 C 159.243 209.652,159.134 208.673,158.818 207.294 C 158.010 203.770,157.997 194.341,158.796 191.127 C 159.340 188.935,159.415 187.736,158.921 189.133 M382.626 199.601 C 382.625 205.085,382.681 207.383,382.750 204.709 C 382.819 202.035,382.819 197.548,382.751 194.739 C 382.682 191.930,382.626 194.118,382.626 199.601 M16.889 210.169 C 16.889 212.034,16.958 212.797,17.042 211.864 C 17.126 210.932,17.126 209.407,17.042 208.475 C 16.958 207.542,16.889 208.305,16.889 210.169 M382.181 212.164 C 382.181 213.589,382.254 214.172,382.342 213.460 C 382.431 212.747,382.431 211.580,382.342 210.867 C 382.254 210.155,382.181 210.738,382.181 212.164 M113.181 211.034 C 114.060 212.016,118.046 214.439,118.046 213.991 C 118.046 213.872,117.352 213.421,116.504 212.988 C 115.656 212.556,114.355 211.708,113.613 211.105 C 112.292 210.032,112.283 210.030,113.181 211.034 M17.272 215.952 C 17.274 217.268,17.349 217.759,17.438 217.042 C 17.526 216.325,17.525 215.248,17.434 214.649 C 17.343 214.050,17.270 214.636,17.272 215.952 M182.453 216.550 C 183.755 217.866,184.910 218.943,185.020 218.943 C 185.130 218.943,184.154 217.866,182.851 216.550 C 181.549 215.234,180.394 214.158,180.284 214.158 C 180.175 214.158,181.150 215.234,182.453 216.550 M217.326 216.451 L 215.952 217.946 217.448 216.572 C 218.840 215.293,219.127 214.955,218.822 214.955 C 218.755 214.955,218.082 215.628,217.326 216.451 M381.775 216.949 C 381.775 218.156,381.849 218.649,381.941 218.046 C 382.032 217.443,382.032 216.456,381.941 215.852 C 381.849 215.249,381.775 215.743,381.775 216.949 M17.592 219.541 C 17.532 221.318,19.135 231.850,19.524 232.243 C 19.709 232.430,19.692 231.794,19.487 230.830 C 19.281 229.867,18.780 226.663,18.372 223.712 C 17.965 220.760,17.614 218.883,17.592 219.541 M381.123 221.934 C 380.954 223.469,380.376 227.276,379.839 230.394 C 378.807 236.394,378.597 238.856,379.489 234.497 C 380.435 229.880,381.717 220.985,381.572 220.051 C 381.495 219.552,381.292 220.399,381.123 221.934 M121.678 227.658 C 122.142 229.031,122.590 230.085,122.675 230.000 C 122.883 229.793,121.619 226.021,121.182 225.542 C 120.991 225.333,121.214 226.285,121.678 227.658 M123.542 232.323 C 123.912 233.320,124.266 233.980,124.330 233.790 C 124.458 233.406,123.323 230.508,123.045 230.508 C 122.948 230.508,123.172 231.325,123.542 232.323 M125.103 235.887 C 125.468 236.652,125.837 237.207,125.923 237.121 C 126.106 236.938,124.895 234.497,124.622 234.497 C 124.522 234.497,124.738 235.122,125.103 235.887 M186.887 238.461 C 189.492 240.836,211.289 240.867,212.754 238.497 C 212.855 238.333,211.732 238.563,210.258 239.007 C 206.195 240.231,194.148 240.229,189.678 239.003 C 187.950 238.528,186.693 238.285,186.887 238.461 M148.355 241.002 C 148.355 241.071,148.938 241.654,149.651 242.298 L 150.947 243.470 149.776 242.173 C 148.684 240.965,148.355 240.694,148.355 241.002 M246.651 245.763 L 243.470 249.053 246.760 245.872 C 249.815 242.917,250.232 242.473,249.941 242.473 C 249.881 242.473,248.400 243.953,246.651 245.763 M152.326 245.364 C 153.979 247.125,154.337 247.441,154.337 247.142 C 154.337 247.078,153.485 246.225,152.443 245.248 L 150.548 243.470 152.326 245.364 M155.932 248.654 C 156.676 249.422,157.375 250.050,157.484 250.050 C 157.594 250.050,157.075 249.422,156.331 248.654 C 155.587 247.886,154.888 247.258,154.779 247.258 C 154.669 247.258,155.188 247.886,155.932 248.654 M190.828 264.596 C 194.154 265.168,204.526 265.331,207.976 264.865 C 209.073 264.717,206.201 264.598,201.595 264.601 C 196.989 264.604,191.964 264.480,190.429 264.326 L 187.637 264.047 190.828 264.596 M282.128 268.096 L 280.957 269.392 282.253 268.221 C 282.966 267.576,283.549 266.993,283.549 266.924 C 283.549 266.616,283.220 266.888,282.128 268.096 M118.644 269.990 C 119.501 270.867,120.291 271.585,120.401 271.585 C 120.511 271.585,119.900 270.867,119.043 269.990 C 118.186 269.113,117.395 268.395,117.286 268.395 C 117.176 268.395,117.787 269.113,118.644 269.990 M275.767 274.875 L 270.588 280.160 275.872 274.981 C 280.781 270.170,281.337 269.591,281.051 269.591 C 280.993 269.591,278.615 271.969,275.767 274.875 M123.031 274.776 C 124.555 276.311,125.891 277.567,126.001 277.567 C 126.110 277.567,124.953 276.311,123.430 274.776 C 121.906 273.240,120.570 271.984,120.460 271.984 C 120.350 271.984,121.507 273.240,123.031 274.776 M127.817 279.163 C 128.673 280.040,129.464 280.758,129.574 280.758 C 129.683 280.758,129.072 280.040,128.215 279.163 C 127.359 278.285,126.568 277.567,126.458 277.567 C 126.349 277.567,126.960 278.285,127.817 279.163 M232.082 292.670 C 231.107 293.300,229.681 294.506,228.913 295.350 C 227.685 296.701,227.762 296.665,229.548 295.046 C 230.666 294.034,232.146 292.913,232.839 292.555 C 233.531 292.197,234.098 291.819,234.098 291.715 C 234.098 291.399,233.922 291.482,232.082 292.670 M248.455 291.739 C 248.455 292.017,251.352 293.152,251.736 293.024 C 251.927 292.960,251.266 292.606,250.269 292.236 C 249.271 291.866,248.455 291.642,248.455 291.739 M329.811 327.418 C 329.116 328.295,328.637 329.013,328.747 329.013 C 328.856 329.013,329.514 328.295,330.209 327.418 C 330.904 326.540,331.383 325.823,331.273 325.823 C 331.164 325.823,330.505 326.540,329.811 327.418 M159.802 377.281 C 160.227 377.668,170.663 379.592,173.679 379.839 C 175.607 379.997,175.413 379.925,172.682 379.470 C 170.818 379.159,167.085 378.474,164.388 377.948 C 161.691 377.422,159.627 377.122,159.802 377.281 M233.300 378.316 C 230.558 378.841,226.520 379.531,224.327 379.848 C 220.660 380.379,220.579 380.408,223.330 380.212 C 226.298 380.000,239.282 377.800,239.632 377.451 C 239.956 377.126,238.386 377.341,233.300 378.316 M176.974 380.342 C 177.470 380.437,178.188 380.434,178.569 380.334 C 178.950 380.234,178.544 380.156,177.667 380.160 C 176.790 380.165,176.478 380.246,176.974 380.342 M180.364 380.745 C 180.971 380.836,181.868 380.834,182.358 380.739 C 182.849 380.645,182.353 380.570,181.256 380.573 C 180.160 380.576,179.758 380.653,180.364 380.745 M217.453 380.745 C 218.059 380.836,218.957 380.834,219.447 380.739 C 219.938 380.645,219.442 380.570,218.345 380.573 C 217.248 380.576,216.847 380.653,217.453 380.745 M184.546 381.146 C 185.259 381.234,186.426 381.234,187.139 381.146 C 187.851 381.057,187.268 380.985,185.842 380.985 C 184.417 380.985,183.833 381.057,184.546 381.146 M212.463 381.146 C 213.175 381.234,214.342 381.234,215.055 381.146 C 215.768 381.057,215.184 380.985,213.759 380.985 C 212.333 380.985,211.750 381.057,212.463 381.146 M194.118 381.554 C 197.243 381.622,202.358 381.622,205.484 381.554 C 208.609 381.487,206.052 381.432,199.801 381.432 C 193.549 381.432,190.992 381.487,194.118 381.554 " stroke="none" fill="#5f5f5f" fill-rule="evenodd"></path><path id="path3" d="M278.398 34.442 C 278.904 34.883,287.851 39.268,287.680 38.991 C 287.464 38.641,278.972 34.297,278.504 34.297 C 278.355 34.297,278.307 34.362,278.398 34.442 M114.387 37.497 C 112.703 38.358,111.230 39.217,111.114 39.406 C 110.939 39.688,117.469 36.496,118.013 36.034 C 118.637 35.502,116.983 36.170,114.387 37.497 M77.470 63.347 C 73.813 66.573,60.618 80.076,60.618 80.593 C 60.618 80.789,62.034 79.382,63.765 77.464 C 67.262 73.591,76.595 64.375,79.334 62.091 C 80.306 61.281,80.980 60.618,80.832 60.618 C 80.684 60.618,79.171 61.846,77.470 63.347 M321.635 63.423 C 325.666 67.120,332.593 74.047,335.381 77.168 C 336.556 78.485,337.296 79.144,337.024 78.634 C 336.373 77.413,323.452 64.490,320.638 62.246 C 319.227 61.120,319.582 61.540,321.635 63.423 M280.957 73.979 C 281.870 74.295,285.937 74.420,285.461 74.118 C 285.177 73.938,283.958 73.802,282.752 73.816 C 281.545 73.830,280.738 73.904,280.957 73.979 M287.809 75.726 C 291.979 78.747,292.187 84.662,288.307 89.862 L 287.067 91.525 288.342 90.130 C 292.350 85.743,292.562 79.987,288.852 76.271 C 287.921 75.339,286.948 74.576,286.690 74.576 C 286.432 74.576,286.936 75.094,287.809 75.726 M281.356 104.499 C 284.434 107.238,290.564 113.374,294.292 117.448 C 296.775 120.161,296.893 120.250,295.078 118.046 C 292.371 114.756,282.203 104.587,280.359 103.325 C 279.591 102.799,280.040 103.328,281.356 104.499 M253.551 108.774 C 252.497 109.978,243.549 122.663,244.197 122.034 C 244.846 121.404,254.469 108.076,254.274 108.076 C 254.212 108.076,253.887 108.390,253.551 108.774 M358.432 108.923 C 358.710 109.280,360.366 112.331,362.112 115.703 C 363.858 119.075,365.290 121.677,365.295 121.484 C 365.312 120.822,359.179 109.251,358.553 108.763 C 358.011 108.341,357.995 108.363,358.432 108.923 M37.126 115.139 C 36.028 117.268,35.190 119.072,35.264 119.146 C 35.339 119.220,36.326 117.478,37.458 115.274 C 38.590 113.070,39.428 111.266,39.320 111.266 C 39.211 111.266,38.224 113.009,37.126 115.139 M101.876 121.336 L 100.299 123.031 101.994 121.454 C 103.570 119.988,103.872 119.641,103.570 119.641 C 103.505 119.641,102.743 120.404,101.876 121.336 M254.835 136.516 C 254.835 136.584,255.419 137.168,256.132 137.812 L 257.428 138.983 256.256 137.687 C 255.165 136.479,254.835 136.208,254.835 136.516 M261.129 142.847 C 262.453 144.314,264.637 146.961,265.983 148.729 C 267.329 150.497,268.520 151.944,268.630 151.944 C 269.069 151.944,263.693 145.244,261.288 142.794 L 258.722 140.179 261.129 142.847 M218.943 156.650 C 217.737 158.322,216.685 159.877,216.606 160.104 C 216.528 160.332,217.575 159.023,218.934 157.196 C 220.292 155.368,221.344 153.814,221.270 153.741 C 221.197 153.669,220.150 154.978,218.943 156.650 M237.441 160.419 C 236.178 162.228,234.355 164.831,233.390 166.201 C 232.425 167.572,231.725 168.694,231.834 168.694 C 231.944 168.694,232.823 167.572,233.789 166.201 C 238.591 159.382,240.117 157.129,239.935 157.129 C 239.826 157.129,238.703 158.609,237.441 160.419 M79.821 163.392 C 77.433 172.290,75.925 180.472,75.606 186.262 C 75.406 189.887,75.420 189.841,75.973 185.048 C 76.701 178.743,77.833 172.742,79.580 165.934 C 80.335 162.990,80.886 160.514,80.804 160.432 C 80.722 160.350,80.280 161.682,79.821 163.392 M180.519 161.538 C 179.206 161.863,174.277 164.901,174.277 165.385 C 174.277 165.601,174.878 165.230,177.089 163.649 C 180.914 160.916,186.469 161.081,189.822 164.027 L 190.822 164.905 190.027 163.950 C 188.360 161.947,183.674 160.758,180.519 161.538 M319.840 163.686 C 319.840 163.784,320.463 166.397,321.223 169.493 C 322.510 174.737,324.037 183.686,324.351 187.836 L 324.487 189.631 324.552 187.637 C 324.588 186.540,324.259 183.310,323.821 180.459 C 322.844 174.099,319.840 161.445,319.840 163.686 M302.155 165.919 C 302.521 167.116,303.138 169.172,303.526 170.489 C 303.913 171.805,304.245 172.612,304.264 172.283 C 304.308 171.490,302.251 164.613,301.824 164.125 C 301.640 163.914,301.789 164.722,302.155 165.919 M127.916 165.792 C 128.629 165.880,129.796 165.880,130.508 165.792 C 131.221 165.704,130.638 165.631,129.212 165.631 C 127.787 165.631,127.203 165.704,127.916 165.792 M96.153 167.597 C 95.781 168.582,95.208 171.529,95.513 170.887 C 95.617 170.668,95.956 169.636,96.267 168.594 C 96.843 166.661,96.764 165.974,96.153 167.597 M233.037 173.217 C 235.021 175.825,236.345 178.137,237.894 181.701 C 239.415 185.200,240.122 186.193,238.919 183.143 C 237.198 178.776,233.927 173.224,232.276 171.868 C 231.886 171.548,232.229 172.155,233.037 173.217 M164.219 176.599 C 162.427 179.368,160.221 184.094,159.364 187.003 C 158.469 190.042,159.031 189.233,160.175 185.836 C 161.277 182.563,163.104 178.812,164.797 176.343 C 165.447 175.395,165.914 174.555,165.834 174.475 C 165.754 174.395,165.027 175.351,164.219 176.599 M186.348 178.291 C 175.459 186.461,172.330 198.398,177.999 210.147 C 180.489 215.307,189.739 222.958,193.449 222.926 C 193.762 222.924,192.667 222.332,191.016 221.611 C 172.607 213.572,170.194 190.663,186.489 178.628 C 188.546 177.109,190.229 175.778,190.229 175.670 C 190.229 175.374,190.290 175.333,186.348 178.291 M92.485 185.643 C 91.727 192.114,91.834 207.896,92.670 212.762 C 93.314 216.514,93.292 215.905,92.472 207.178 C 91.980 201.940,92.212 190.983,92.935 185.338 C 93.181 183.415,93.306 181.620,93.214 181.349 C 93.121 181.079,92.793 183.011,92.485 185.643 M306.101 183.051 C 306.206 184.257,306.489 187.129,306.730 189.432 C 307.123 193.178,306.997 205.247,306.493 212.164 C 306.405 213.370,306.599 212.383,306.924 209.970 C 307.652 204.559,307.394 188.971,306.494 184.048 C 306.037 181.547,305.952 181.332,306.101 183.051 M219.516 185.484 C 219.316 185.808,219.387 185.862,219.734 185.647 C 220.063 185.444,220.535 185.674,221.041 186.284 L 221.833 187.238 221.251 186.263 C 220.561 185.106,219.926 184.821,219.516 185.484 M222.179 188.435 C 222.187 188.654,222.538 189.551,222.960 190.429 C 223.382 191.306,223.615 191.575,223.479 191.027 C 223.198 189.898,222.158 187.825,222.179 188.435 M110.124 190.153 C 106.464 195.293,107.207 205.504,111.523 209.380 L 112.624 210.369 111.483 208.973 C 107.433 204.015,106.979 195.130,110.523 190.153 C 110.962 189.537,111.231 189.033,111.121 189.033 C 111.011 189.033,110.563 189.537,110.124 190.153 M324.717 198.462 C 324.587 211.085,323.408 220.641,320.830 229.959 C 320.291 231.906,319.862 233.769,319.876 234.098 C 319.929 235.321,322.257 226.134,323.211 220.937 C 324.655 213.072,325.081 207.419,324.937 198.006 L 324.808 189.631 324.717 198.462 M75.146 199.003 C 75.146 203.938,75.203 205.957,75.273 203.490 C 75.343 201.022,75.343 196.984,75.273 194.516 C 75.203 192.049,75.146 194.068,75.146 199.003 M193.441 192.393 C 188.464 199.625,192.920 208.381,200.963 207.174 C 202.847 206.892,204.751 206.085,205.183 205.386 C 205.320 205.165,204.838 205.329,204.112 205.751 C 195.609 210.695,188.029 200.837,193.839 192.393 C 194.507 191.422,194.964 190.628,194.854 190.628 C 194.744 190.628,194.108 191.422,193.441 192.393 M224.228 195.214 C 224.233 196.092,224.314 196.404,224.410 195.908 C 224.505 195.412,224.501 194.694,224.402 194.312 C 224.302 193.931,224.224 194.337,224.228 195.214 M224.654 199.402 C 224.654 200.828,224.726 201.411,224.815 200.698 C 224.903 199.985,224.903 198.819,224.815 198.106 C 224.726 197.393,224.654 197.976,224.654 199.402 M209.531 199.302 C 209.098 199.905,208.062 201.341,207.229 202.493 C 206.396 203.644,205.805 204.586,205.916 204.586 C 206.097 204.586,209.571 199.941,210.315 198.704 C 210.871 197.780,210.326 198.196,209.531 199.302 M222.976 207.023 C 222.730 207.728,222.599 208.375,222.684 208.460 C 222.769 208.545,223.040 208.038,223.286 207.334 C 223.531 206.629,223.663 205.982,223.577 205.897 C 223.492 205.812,223.221 206.319,222.976 207.023 M75.584 211.565 C 75.855 217.339,78.111 228.874,80.302 235.693 C 81.180 238.425,81.065 237.062,80.151 233.897 C 78.240 227.280,76.501 218.335,75.771 211.366 L 75.416 207.976 75.584 211.565 M136.173 211.067 L 134.596 212.762 136.291 211.185 C 137.223 210.318,137.986 209.556,137.986 209.490 C 137.986 209.189,137.639 209.491,136.173 211.067 M159.685 212.059 C 160.753 215.198,163.381 220.466,164.919 222.551 C 166.224 224.320,166.183 223.776,164.867 221.852 C 163.365 219.657,160.940 214.701,160.127 212.164 C 159.740 210.957,159.264 209.797,159.069 209.586 C 158.873 209.375,159.151 210.488,159.685 212.059 M220.057 212.463 C 218.420 214.753,218.047 215.354,218.264 215.354 C 218.354 215.354,219.184 214.277,220.107 212.961 C 221.030 211.645,221.701 210.568,221.598 210.568 C 221.495 210.568,220.801 211.421,220.057 212.463 M238.989 212.999 C 238.552 214.671,235.762 220.006,233.932 222.670 C 232.901 224.171,232.236 225.290,232.454 225.155 C 234.009 224.194,240.466 212.164,239.427 212.164 C 239.306 212.164,239.109 212.540,238.989 212.999 M215.952 217.186 C 215.075 217.958,213.415 219.135,212.263 219.802 C 209.652 221.313,209.490 221.758,212.064 220.349 C 213.728 219.438,218.276 215.784,217.747 215.783 C 217.637 215.783,216.830 216.414,215.952 217.186 M303.917 225.187 C 303.398 227.346,302.651 230.055,302.256 231.206 C 301.517 233.363,301.582 234.158,302.338 232.203 C 303.067 230.318,305.141 222.104,304.998 221.673 C 304.922 221.447,304.436 223.029,303.917 225.187 M206.979 222.333 C 206.211 222.629,205.852 222.876,206.181 222.883 C 206.510 222.890,207.318 222.649,207.976 222.347 C 209.516 221.642,208.800 221.632,206.979 222.333 M197.906 223.623 C 198.948 223.705,200.653 223.705,201.695 223.623 C 202.737 223.541,201.884 223.474,199.801 223.474 C 197.717 223.474,196.864 223.541,197.906 223.623 M95.569 227.318 C 95.843 228.878,96.401 230.508,96.661 230.508 C 96.825 230.508,95.901 227.139,95.513 226.321 C 95.409 226.102,95.434 226.550,95.569 227.318 M174.470 232.252 C 176.840 234.346,187.650 239.795,186.842 238.489 C 186.705 238.267,186.375 238.086,186.108 238.086 C 185.236 238.086,176.920 233.810,174.875 232.311 L 172.881 230.848 174.470 232.252 M223.927 232.733 C 221.843 234.225,214.312 238.086,213.486 238.086 C 213.223 238.086,212.896 238.267,212.759 238.489 C 212.467 238.962,215.671 237.743,218.652 236.247 C 221.718 234.708,226.792 231.306,226.021 231.306 C 225.965 231.306,225.023 231.948,223.927 232.733 M148.368 240.378 C 148.375 240.543,149.407 241.764,150.661 243.090 C 152.947 245.509,152.592 244.946,149.831 241.774 C 149.019 240.841,148.361 240.213,148.368 240.378 M130.866 245.862 C 132.353 248.162,135.631 252.322,137.779 254.636 C 138.961 255.910,138.910 255.801,137.526 254.098 C 136.573 252.925,134.806 250.666,133.599 249.078 C 130.014 244.358,129.507 243.762,130.866 245.862 M266.173 248.355 C 264.898 250.055,262.941 252.433,261.824 253.639 C 260.707 254.845,259.536 256.191,259.221 256.630 C 258.141 258.137,263.809 251.913,265.546 249.686 C 267.859 246.718,268.886 245.264,268.670 245.264 C 268.572 245.264,267.448 246.655,266.173 248.355 M153.539 246.150 C 153.539 246.228,154.392 246.992,155.434 247.849 C 156.476 248.705,156.969 248.993,156.530 248.488 C 155.755 247.597,153.539 245.864,153.539 246.150 M255.149 260.346 C 253.770 261.622,251.162 263.784,249.352 265.150 C 247.542 266.516,246.062 267.719,246.062 267.825 C 246.062 267.931,247.558 266.889,249.387 265.509 C 252.679 263.026,258.366 258.026,257.899 258.026 C 257.765 258.026,256.528 259.070,255.149 260.346 M144.939 261.660 C 146.022 262.622,147.637 263.958,148.529 264.629 C 149.420 265.299,150.823 266.352,151.645 266.969 C 152.468 267.586,153.141 267.998,153.141 267.884 C 153.141 267.770,151.561 266.501,149.630 265.063 C 147.699 263.625,145.771 262.065,145.347 261.596 C 144.922 261.127,144.214 260.556,143.773 260.327 C 143.332 260.097,143.857 260.697,144.939 261.660 M102.945 277.946 C 105.589 281.246,109.827 285.854,112.792 288.653 C 116.707 292.348,120.837 296.021,120.837 295.809 C 120.837 295.707,118.729 293.714,116.152 291.380 C 113.574 289.047,109.740 285.209,107.631 282.851 C 102.061 276.626,100.984 275.499,102.945 277.946 M363.884 279.234 C 363.020 281.019,361.386 284.165,360.253 286.225 C 359.120 288.286,358.417 289.786,358.691 289.558 C 359.301 289.053,365.848 276.383,365.619 276.154 C 365.529 276.064,364.748 277.450,363.884 279.234 M34.297 277.551 C 34.297 278.038,39.069 287.139,39.324 287.139 C 39.505 287.139,38.610 285.316,35.935 280.240 C 35.034 278.530,34.297 277.320,34.297 277.551 M292.528 281.966 C 290.177 284.605,286.164 288.582,283.609 290.804 C 281.054 293.026,278.604 295.212,278.166 295.662 L 277.368 296.481 278.166 295.868 C 281.474 293.326,288.721 286.613,291.504 283.513 C 293.356 281.449,295.410 279.177,296.068 278.465 C 296.727 277.752,297.161 277.168,297.033 277.168 C 296.906 277.168,294.879 279.328,292.528 281.966 M165.304 300.615 C 165.735 301.082,174.009 303.505,175.044 303.466 C 175.390 303.453,173.460 302.827,170.754 302.073 C 168.049 301.320,165.626 300.587,165.371 300.443 C 165.053 300.265,165.032 300.320,165.304 300.615 M224.350 302.904 C 223.925 303.226,223.222 303.490,222.789 303.490 C 222.355 303.490,222.107 303.596,222.238 303.727 C 222.647 304.135,224.848 303.469,225.079 302.867 C 225.347 302.169,225.321 302.170,224.350 302.904 M181.896 304.860 C 183.169 306.133,209.630 306.663,214.357 305.510 L 215.952 305.121 214.357 305.300 C 208.808 305.920,193.293 305.939,188.080 305.331 C 182.077 304.632,181.634 304.598,181.896 304.860 M216.650 304.961 C 217.034 305.061,217.662 305.061,218.046 304.961 C 218.430 304.861,218.116 304.778,217.348 304.778 C 216.580 304.778,216.266 304.861,216.650 304.961 M61.434 318.644 C 62.666 320.475,77.711 335.523,78.979 336.193 C 79.519 336.478,78.973 335.843,77.767 334.782 C 74.918 332.277,65.353 322.714,62.622 319.641 C 61.452 318.325,60.918 317.876,61.434 318.644 M253.447 318.637 C 248.185 324.129,238.491 325.112,231.994 320.812 L 230.488 319.815 225.812 320.799 C 217.070 322.638,212.363 323.134,200.997 323.413 L 190.030 323.683 199.003 323.755 C 209.142 323.837,215.377 323.268,224.634 321.417 L 230.524 320.239 232.012 321.223 C 237.249 324.688,245.823 324.719,250.771 321.289 C 252.247 320.267,255.195 317.448,254.789 317.448 C 254.677 317.448,254.073 317.983,253.447 318.637 M164.307 318.882 C 170.511 320.864,184.683 323.498,188.548 323.387 C 189.363 323.363,187.966 323.099,185.444 322.800 C 179.664 322.114,171.306 320.478,165.998 318.992 C 161.082 317.616,160.159 317.556,164.307 318.882 M333.425 323.150 C 330.500 326.312,330.263 326.641,332.359 324.626 C 334.710 322.366,337.708 319.005,337.322 319.063 C 337.248 319.074,335.495 320.913,333.425 323.150 M323.629 332.900 C 321.436 335.018,320.538 336.010,321.635 335.106 C 323.607 333.481,328.162 328.995,327.803 329.032 C 327.701 329.043,325.823 330.783,323.629 332.900 M108.763 357.356 C 109.251 357.983,120.822 364.116,121.484 364.099 C 121.677 364.094,119.075 362.661,115.703 360.916 C 112.331 359.170,109.280 357.514,108.923 357.236 C 108.363 356.798,108.341 356.815,108.763 357.356 M288.534 358.386 C 287.657 358.926,284.628 360.524,281.804 361.937 C 278.979 363.350,276.894 364.506,277.170 364.506 C 277.873 364.506,289.457 358.496,289.990 357.855 C 290.558 357.170,290.436 357.214,288.534 358.386 " stroke="none" fill="#bfbfbf" fill-rule="evenodd"></path><path id="path4" d="M187.438 17.201 C 167.477 18.678,141.977 24.579,130.209 30.446 C 129.551 30.774,127.152 31.873,124.877 32.889 C 112.883 38.247,88.647 52.746,87.803 55.068 C 87.730 55.269,87.480 55.434,87.248 55.434 C 85.056 55.434,53.838 86.905,53.838 89.115 C 53.838 89.239,52.853 90.672,51.649 92.301 C 44.923 101.395,37.720 113.834,32.831 124.799 C 31.602 127.556,30.463 129.990,30.301 130.209 C 29.710 131.004,25.539 142.720,24.540 146.389 C 22.044 155.557,21.427 158.078,20.312 163.669 C 14.307 193.781,16.166 226.104,25.603 255.633 C 26.913 259.731,29.841 267.549,30.308 268.195 C 30.467 268.415,31.635 270.927,32.905 273.779 C 38.430 286.187,46.644 299.820,55.804 311.784 C 61.585 319.334,78.612 336.350,86.115 342.076 C 102.674 354.711,122.417 365.473,140.179 371.548 C 174.140 383.162,213.047 384.411,248.056 375.011 C 255.928 372.897,266.595 369.196,271.386 366.916 C 272.702 366.290,276.381 364.539,279.563 363.025 C 289.933 358.089,303.980 349.377,313.659 341.878 C 317.117 339.199,326.282 330.601,331.603 325.046 C 333.798 322.754,336.646 319.793,337.934 318.465 C 342.007 314.265,345.787 309.190,353.100 298.106 C 383.381 252.210,390.625 195.022,373.005 140.977 C 366.206 120.124,350.356 92.863,336.603 78.368 C 324.299 65.401,315.769 57.594,308.076 52.261 C 294.813 43.066,285.955 37.919,274.730 32.885 C 272.452 31.863,269.870 30.702,268.993 30.305 C 247.535 20.585,214.167 15.224,187.438 17.201 M286.556 74.626 C 290.682 76.565,292.653 81.713,290.924 86.034 C 290.593 86.862,287.832 90.858,284.789 94.916 L 279.256 102.293 281.502 104.241 C 295.879 116.707,306.605 131.607,315.737 151.795 C 327.915 178.721,328.112 218.372,316.199 244.862 C 303.152 273.873,284.864 294.679,261.566 307.018 C 258.637 308.569,257.802 309.201,257.713 309.933 C 257.529 311.460,255.582 316.650,255.194 316.650 C 254.997 316.650,254.835 316.903,254.835 317.211 C 254.835 317.879,251.188 321.239,249.535 322.094 C 244.441 324.728,236.730 324.345,232.012 321.223 L 230.524 320.239 224.634 321.418 C 201.605 326.029,172.044 323.577,154.935 315.636 C 153.838 315.127,151.236 313.966,149.153 313.055 C 119.455 300.080,96.116 275.942,84.155 245.831 C 83.204 243.436,82.288 241.294,82.120 241.072 C 81.107 239.733,77.587 226.099,76.407 218.943 C 74.483 207.282,74.482 191.334,76.404 179.063 C 77.489 172.130,80.966 158.170,82.147 156.005 C 82.349 155.636,83.259 153.539,84.169 151.346 C 89.990 137.321,99.634 121.997,104.303 119.352 C 109.991 116.131,118.138 121.622,117.017 127.922 C 116.685 129.793,115.842 131.197,112.046 136.205 C 104.446 146.231,96.647 164.104,94.167 177.178 C 83.289 234.533,117.291 288.479,173.280 302.694 C 187.624 306.335,208.088 306.912,220.738 304.031 C 223.778 303.339,225.324 302.570,225.324 301.749 C 225.324 300.488,227.893 296.255,229.665 294.598 C 234.887 289.714,242.008 288.684,249.161 291.778 L 251.661 292.859 253.348 291.941 C 307.907 262.234,323.989 187.001,286.812 135.394 C 283.121 130.269,270.833 117.248,269.688 117.248 C 269.273 117.248,262.812 125.845,262.812 126.398 C 262.812 126.593,262.664 126.813,262.483 126.886 C 262.302 126.959,260.577 129.126,258.649 131.700 L 255.144 136.382 256.291 137.682 C 256.922 138.398,258.890 140.419,260.664 142.173 C 279.182 160.486,287.257 191.980,280.386 219.086 C 268.097 267.560,216.891 293.932,169.492 276.197 C 149.193 268.602,130.287 250.680,123.610 232.702 C 120.951 225.540,119.214 220.225,118.600 217.367 L 117.910 214.157 115.884 213.012 C 104.992 206.856,104.957 191.696,115.818 184.487 C 117.862 183.130,118.018 182.910,118.450 180.755 C 120.725 169.422,123.067 165.929,128.633 165.574 C 135.970 165.107,138.866 170.591,136.284 180.063 L 134.980 184.845 136.709 186.640 C 143.059 193.229,143.165 203.662,136.951 210.537 C 134.697 213.031,134.703 212.555,136.848 219.321 C 139.118 226.479,146.073 239.183,148.248 240.144 C 148.416 240.218,149.631 241.535,150.947 243.071 C 152.263 244.606,153.609 246.027,153.938 246.228 C 154.267 246.429,155.231 247.283,156.081 248.125 C 176.773 268.632,216.161 270.347,239.617 251.763 C 243.922 248.352,249.651 242.894,249.651 242.204 C 249.651 241.913,249.814 241.675,250.013 241.675 C 251.068 241.675,257.229 232.561,259.585 227.517 C 271.510 201.984,266.543 172.663,246.942 152.879 C 245.780 151.707,244.761 150.748,244.676 150.748 C 244.591 150.748,241.877 154.561,238.646 159.222 C 235.415 163.883,232.411 168.186,231.970 168.784 C 231.027 170.065,231.204 170.557,233.725 173.679 C 244.500 187.018,243.996 212.414,232.713 224.748 C 231.830 225.713,230.904 226.732,230.656 227.011 C 218.383 240.823,197.928 244.512,180.658 236.028 C 156.933 224.372,150.072 191.913,167.269 172.682 C 175.905 163.025,180.057 160.439,185.208 161.508 C 193.806 163.293,194.472 172.733,186.419 178.680 C 166.924 193.078,175.980 223.252,199.817 223.320 C 206.627 223.340,215.964 218.994,218.647 214.556 C 218.978 214.008,219.895 212.659,220.684 211.558 C 225.211 205.239,225.659 195.549,221.783 187.792 C 220.295 184.814,220.531 184.624,213.338 194.616 C 204.067 207.497,202.847 208.444,197.407 206.979 C 190.229 205.046,189.300 197.766,195.226 189.898 C 200.112 183.412,213.759 164.269,213.759 163.902 C 213.759 163.686,213.910 163.509,214.095 163.509 C 214.280 163.509,214.769 162.881,215.182 162.114 C 215.596 161.346,216.073 160.718,216.242 160.718 C 216.412 160.718,216.550 160.537,216.550 160.315 C 216.550 159.877,220.543 154.348,222.018 152.746 C 222.520 152.200,222.931 151.609,222.931 151.433 C 222.931 151.257,223.307 150.717,223.766 150.233 C 224.724 149.223,233.300 137.356,233.300 137.041 C 233.300 136.927,237.921 130.430,243.569 122.603 C 249.217 114.776,259.012 101.172,265.335 92.372 C 271.657 83.571,277.221 76.045,277.697 75.648 C 280.128 73.620,283.572 73.223,286.556 74.626 " stroke="none" fill="#ffffff" fill-rule="evenodd"></path></g></svg>