<svg id="svg" version="1.1" width="400" height="400" xmlns="http://www.w3.org/2000/svg" xmlns:xlink="http://www.w3.org/1999/xlink" style="display: block;"><g id="svgg"><path id="path0" d="M186.000 0.239 C 174.575 1.175,168.966 1.742,168.800 1.978 C 168.690 2.134,166.710 2.504,164.400 2.800 C 162.090 3.096,160.110 3.458,160.000 3.604 C 159.890 3.751,157.865 4.199,155.500 4.600 C 153.135 5.001,151.200 5.445,151.200 5.586 C 151.200 5.727,149.490 6.179,147.400 6.590 C 145.310 7.001,143.600 7.463,143.600 7.616 C 143.600 7.770,142.475 8.116,141.100 8.386 C 139.725 8.655,137.880 9.196,137.000 9.587 C 136.120 9.979,134.454 10.520,133.299 10.790 C 132.143 11.060,131.108 11.426,130.998 11.603 C 130.888 11.781,129.764 12.246,128.499 12.638 C 127.235 13.030,126.110 13.460,126.000 13.594 C 125.890 13.729,124.675 14.173,123.300 14.583 C 121.925 14.992,120.800 15.461,120.800 15.626 C 120.800 15.791,119.810 16.237,118.600 16.618 C 117.390 16.998,116.400 17.465,116.400 17.655 C 116.400 17.845,116.209 18.000,115.976 18.000 C 115.425 18.000,108.667 21.179,108.402 21.563 C 108.291 21.723,107.391 22.174,106.401 22.564 C 105.412 22.954,104.512 23.391,104.401 23.536 C 104.291 23.681,103.495 24.160,102.633 24.600 C 98.957 26.477,98.188 26.913,97.986 27.232 C 97.868 27.417,97.103 27.848,96.286 28.190 C 95.469 28.531,94.800 28.988,94.800 29.205 C 94.800 29.422,94.616 29.600,94.392 29.600 C 94.168 29.600,93.223 30.090,92.292 30.690 C 91.361 31.289,90.204 31.994,89.719 32.256 C 89.235 32.518,88.605 32.925,88.319 33.161 C 86.627 34.558,83.934 36.400,83.584 36.400 C 83.359 36.400,83.071 36.670,82.945 37.000 C 82.818 37.330,82.527 37.600,82.298 37.600 C 82.070 37.600,81.114 38.230,80.174 39.000 C 79.234 39.770,78.277 40.400,78.047 40.400 C 77.817 40.400,77.435 40.760,77.200 41.200 C 76.965 41.640,76.560 42.000,76.300 42.000 C 76.040 42.000,75.462 42.351,75.014 42.781 C 73.837 43.911,72.801 44.810,70.784 46.453 C 65.040 51.131,53.472 62.420,49.109 67.604 C 48.829 67.937,47.790 69.185,46.800 70.379 C 44.627 72.999,43.808 73.944,42.781 75.014 C 42.351 75.462,42.000 76.040,42.000 76.300 C 42.000 76.560,41.640 76.965,41.200 77.200 C 40.760 77.435,40.400 77.817,40.400 78.047 C 40.400 78.277,39.770 79.234,39.000 80.174 C 38.230 81.114,37.600 82.070,37.600 82.298 C 37.600 82.527,37.330 82.818,37.000 82.945 C 36.670 83.071,36.400 83.359,36.400 83.584 C 36.400 83.954,34.892 86.137,32.797 88.800 C 32.365 89.350,32.008 89.937,32.005 90.103 C 32.002 90.270,31.460 91.152,30.800 92.063 C 30.140 92.975,29.600 93.963,29.600 94.260 C 29.600 94.557,29.422 94.800,29.205 94.800 C 28.988 94.800,28.531 95.469,28.190 96.286 C 27.848 97.103,27.417 97.868,27.232 97.986 C 26.913 98.188,26.477 98.957,24.600 102.633 C 24.160 103.495,23.701 104.290,23.580 104.400 C 23.458 104.510,22.558 106.219,21.580 108.197 C 20.601 110.176,19.602 112.006,19.361 112.265 C 19.120 112.523,18.691 113.560,18.409 114.567 C 18.127 115.575,17.764 116.400,17.603 116.400 C 17.441 116.400,16.998 117.390,16.618 118.600 C 16.237 119.810,15.791 120.800,15.626 120.800 C 15.461 120.800,14.992 121.925,14.583 123.300 C 14.173 124.675,13.721 125.890,13.578 126.000 C 13.435 126.110,12.998 127.190,12.606 128.400 C 12.215 129.610,11.754 130.780,11.583 131.000 C 11.412 131.220,10.990 132.488,10.646 133.818 C 10.302 135.148,9.763 136.768,9.447 137.418 C 9.132 138.068,8.644 139.680,8.362 141.000 C 8.080 142.320,7.732 143.490,7.589 143.600 C 7.446 143.710,6.997 145.420,6.591 147.400 C 6.185 149.380,5.729 151.090,5.578 151.200 C 5.426 151.310,4.983 153.200,4.592 155.400 C 4.201 157.600,3.761 159.490,3.613 159.600 C 3.466 159.710,3.115 161.600,2.834 163.800 C 2.553 166.000,2.187 167.980,2.020 168.200 C 1.854 168.420,1.509 170.670,1.253 173.200 C -0.512 190.696,-0.437 214.056,1.427 227.400 C 2.498 235.073,3.371 240.201,3.639 240.400 C 3.787 240.510,4.230 242.445,4.624 244.700 C 5.017 246.955,5.488 248.800,5.670 248.800 C 5.851 248.800,5.998 249.115,5.995 249.500 C 5.987 250.522,7.322 256.165,7.627 256.400 C 7.769 256.510,8.193 257.991,8.569 259.692 C 8.944 261.393,9.400 262.876,9.582 262.989 C 9.763 263.101,10.222 264.456,10.600 266.000 C 10.978 267.544,11.440 268.901,11.627 269.017 C 11.813 269.132,12.267 270.300,12.636 271.613 C 13.004 272.926,13.447 274.000,13.621 274.000 C 13.794 274.000,14.055 274.585,14.199 275.300 C 14.343 276.015,14.883 277.500,15.399 278.600 C 17.312 282.678,18.701 285.825,18.973 286.700 C 19.128 287.195,19.386 287.600,19.548 287.600 C 19.710 287.600,20.166 288.500,20.561 289.600 C 20.957 290.700,21.407 291.600,21.561 291.600 C 21.716 291.600,22.166 292.500,22.561 293.600 C 22.957 294.700,23.398 295.600,23.543 295.600 C 23.687 295.600,24.063 296.185,24.378 296.900 C 24.693 297.615,25.187 298.438,25.475 298.729 C 25.764 299.019,26.000 299.480,26.000 299.753 C 26.000 300.026,26.317 300.598,26.705 301.025 C 27.093 301.451,27.750 302.565,28.166 303.500 C 28.582 304.435,29.030 305.200,29.163 305.200 C 29.296 305.200,29.634 305.718,29.915 306.352 C 30.195 306.986,30.869 308.021,31.412 308.652 C 31.955 309.283,32.399 310.016,32.400 310.280 C 32.400 310.544,32.627 310.904,32.904 311.080 C 33.181 311.256,33.762 312.075,34.195 312.900 C 34.628 313.725,35.080 314.400,35.200 314.400 C 35.320 314.400,35.757 315.030,36.172 315.800 C 36.587 316.570,37.066 317.200,37.236 317.200 C 37.407 317.200,37.647 317.515,37.771 317.900 C 37.894 318.285,38.401 319.080,38.898 319.666 C 39.394 320.253,40.790 322.036,42.000 323.629 C 43.210 325.222,44.883 327.246,45.717 328.128 C 46.551 329.010,47.364 329.964,47.523 330.248 C 48.536 332.058,61.945 345.829,66.835 350.083 C 68.026 351.118,69.880 352.738,70.956 353.683 C 72.033 354.627,73.282 355.659,73.732 355.976 C 74.183 356.292,74.866 356.832,75.250 357.176 C 76.138 357.968,77.245 358.815,80.000 360.805 C 81.210 361.679,82.485 362.666,82.834 362.997 C 83.182 363.329,83.632 363.600,83.834 363.601 C 84.035 363.601,84.830 364.141,85.600 364.800 C 86.370 365.459,87.107 365.999,87.239 365.999 C 87.370 366.000,87.893 366.360,88.400 366.800 C 88.907 367.240,89.531 367.600,89.786 367.600 C 90.041 367.600,90.604 367.915,91.039 368.300 C 92.261 369.384,95.582 371.600,95.983 371.600 C 96.181 371.600,96.581 371.825,96.871 372.101 C 97.162 372.376,98.117 372.961,98.994 373.401 C 99.871 373.840,100.817 374.414,101.098 374.676 C 101.379 374.937,102.237 375.378,103.004 375.656 C 103.772 375.934,104.400 376.286,104.400 376.440 C 104.400 376.594,105.300 377.043,106.400 377.439 C 107.500 377.834,108.400 378.275,108.400 378.418 C 108.400 378.561,109.165 379.016,110.100 379.428 C 111.035 379.841,111.890 380.288,112.000 380.422 C 112.110 380.556,113.145 381.002,114.300 381.412 C 115.455 381.822,116.400 382.278,116.400 382.424 C 116.400 382.571,117.390 383.002,118.600 383.382 C 119.810 383.763,120.800 384.215,120.800 384.388 C 120.800 384.560,121.970 385.036,123.400 385.445 C 124.830 385.855,126.000 386.318,126.000 386.474 C 126.000 386.631,127.080 387.062,128.400 387.432 C 129.720 387.802,130.800 388.237,130.800 388.398 C 130.800 388.559,131.880 388.920,133.200 389.200 C 134.520 389.480,135.600 389.845,135.600 390.012 C 135.600 390.178,136.905 390.628,138.500 391.012 C 140.095 391.395,141.580 391.844,141.800 392.008 C 142.020 392.172,143.545 392.609,145.189 392.978 C 146.833 393.348,148.363 393.795,148.589 393.972 C 148.815 394.149,150.800 394.608,153.000 394.994 C 155.200 395.379,157.190 395.846,157.423 396.032 C 157.655 396.218,160.085 396.680,162.823 397.058 C 165.560 397.437,167.890 397.869,168.000 398.018 C 169.717 400.346,230.280 400.338,232.000 398.010 C 232.110 397.861,234.447 397.425,237.194 397.041 C 239.941 396.657,242.281 396.212,242.394 396.052 C 242.507 395.891,244.400 395.431,246.600 395.029 C 248.800 394.627,250.780 394.170,251.000 394.013 C 251.220 393.857,252.840 393.401,254.600 393.001 C 256.360 392.601,257.890 392.156,258.000 392.012 C 258.110 391.868,259.191 391.534,260.402 391.268 C 261.614 391.003,263.073 390.544,263.644 390.247 C 264.216 389.950,265.611 389.485,266.743 389.214 C 267.876 388.942,268.898 388.565,269.014 388.377 C 269.131 388.188,270.300 387.733,271.613 387.364 C 272.926 386.996,274.000 386.553,274.000 386.379 C 274.000 386.206,274.585 385.936,275.300 385.779 C 276.015 385.623,277.897 384.889,279.482 384.148 C 281.066 383.406,282.551 382.800,282.782 382.800 C 283.012 382.800,283.200 382.659,283.200 382.487 C 283.200 382.315,284.020 381.933,285.022 381.637 C 286.024 381.341,287.059 380.883,287.322 380.620 C 287.585 380.358,288.655 379.816,289.700 379.417 C 290.745 379.018,291.600 378.571,291.600 378.425 C 291.600 378.278,292.500 377.834,293.600 377.439 C 294.700 377.043,295.600 376.577,295.600 376.403 C 295.600 376.229,296.305 375.805,297.166 375.460 C 298.027 375.116,298.845 374.651,298.983 374.428 C 299.120 374.205,299.991 373.651,300.917 373.197 C 304.345 371.516,305.600 370.786,305.600 370.472 C 305.600 370.294,306.230 369.902,307.000 369.600 C 307.770 369.298,308.400 368.901,308.400 368.719 C 308.400 368.536,309.030 368.087,309.800 367.719 C 310.570 367.352,311.200 366.926,311.200 366.773 C 311.200 366.619,311.515 366.388,311.900 366.258 C 312.934 365.911,314.214 365.013,316.400 363.100 C 316.840 362.715,317.317 362.400,317.461 362.400 C 317.836 362.400,321.135 359.961,322.193 358.900 C 322.687 358.405,323.295 358.000,323.542 358.000 C 323.790 358.000,324.218 357.640,324.493 357.200 C 324.768 356.760,325.206 356.400,325.467 356.400 C 325.728 356.400,326.296 355.950,326.729 355.400 C 327.161 354.850,327.649 354.400,327.813 354.400 C 328.740 354.400,341.835 341.959,347.850 335.364 C 353.336 329.348,354.400 328.122,354.400 327.813 C 354.400 327.649,354.850 327.161,355.400 326.729 C 355.950 326.296,356.400 325.728,356.400 325.467 C 356.400 325.206,356.760 324.768,357.200 324.493 C 357.640 324.218,358.000 323.790,358.000 323.542 C 358.000 323.295,358.405 322.687,358.900 322.193 C 359.961 321.135,362.400 317.836,362.400 317.461 C 362.400 317.317,362.760 316.795,363.200 316.300 C 364.899 314.388,365.912 312.931,366.258 311.900 C 366.388 311.515,366.619 311.200,366.773 311.200 C 366.926 311.200,367.352 310.570,367.719 309.800 C 368.087 309.030,368.536 308.400,368.719 308.400 C 368.901 308.400,369.298 307.770,369.600 307.000 C 369.902 306.230,370.305 305.600,370.495 305.600 C 370.685 305.600,371.117 305.015,371.455 304.300 C 371.793 303.585,372.549 302.175,373.135 301.167 C 373.721 300.158,374.626 298.538,375.147 297.567 C 375.667 296.595,376.320 295.530,376.597 295.200 C 376.875 294.870,377.340 293.925,377.631 293.100 C 377.922 292.275,378.280 291.600,378.426 291.600 C 378.572 291.600,379.018 290.745,379.417 289.700 C 379.816 288.655,380.358 287.585,380.620 287.322 C 380.883 287.059,381.341 286.024,381.637 285.022 C 381.933 284.020,382.315 283.200,382.487 283.200 C 382.659 283.200,382.800 283.012,382.800 282.783 C 382.800 282.554,383.321 281.249,383.957 279.883 C 384.594 278.517,385.342 276.635,385.621 275.700 C 385.899 274.765,386.254 274.000,386.411 274.000 C 386.567 274.000,386.996 272.926,387.364 271.613 C 387.733 270.300,388.188 269.131,388.377 269.014 C 388.565 268.898,388.942 267.876,389.214 266.743 C 389.485 265.611,389.950 264.216,390.247 263.644 C 390.544 263.073,391.003 261.614,391.268 260.402 C 391.534 259.191,391.871 258.110,392.018 258.000 C 392.166 257.890,392.601 256.360,392.987 254.600 C 393.372 252.840,393.825 251.220,393.993 251.000 C 394.161 250.780,394.627 248.800,395.029 246.600 C 395.431 244.400,395.889 242.509,396.046 242.398 C 396.203 242.286,396.629 240.036,396.993 237.398 C 397.357 234.759,397.815 232.240,398.011 231.800 C 400.424 226.391,400.424 173.609,398.011 168.200 C 397.815 167.760,397.360 165.263,397.000 162.651 C 396.640 160.039,396.183 157.609,395.984 157.251 C 395.785 156.893,395.270 154.890,394.838 152.800 C 393.876 148.132,392.505 142.806,392.060 142.000 C 391.877 141.670,391.410 140.095,391.021 138.500 C 390.632 136.905,390.173 135.600,390.001 135.600 C 389.830 135.600,389.563 134.925,389.408 134.100 C 389.254 133.275,388.806 131.880,388.414 131.000 C 388.022 130.120,387.472 128.680,387.192 127.800 C 386.913 126.920,386.566 126.110,386.423 126.000 C 386.279 125.890,385.827 124.675,385.417 123.300 C 385.008 121.925,384.531 120.800,384.357 120.800 C 384.183 120.800,383.729 119.810,383.347 118.600 C 382.966 117.390,382.507 116.400,382.327 116.400 C 382.147 116.400,382.000 116.202,382.000 115.961 C 382.000 115.463,378.779 108.707,378.395 108.400 C 378.257 108.290,377.826 107.391,377.436 106.401 C 377.046 105.412,376.604 104.512,376.453 104.401 C 376.302 104.291,375.841 103.435,375.428 102.500 C 375.016 101.565,374.526 100.800,374.339 100.800 C 374.153 100.800,373.992 100.575,373.983 100.300 C 373.974 100.025,373.166 98.540,372.188 97.000 C 371.209 95.460,370.118 93.677,369.762 93.038 C 369.406 92.398,368.774 91.509,368.357 91.062 C 367.941 90.615,367.600 90.022,367.600 89.744 C 367.600 89.467,367.375 89.096,367.100 88.920 C 366.825 88.744,366.249 87.970,365.820 87.200 C 365.391 86.430,364.716 85.451,364.320 85.025 C 363.924 84.598,363.600 84.116,363.600 83.953 C 363.600 83.790,363.373 83.419,363.095 83.129 C 362.817 82.838,362.265 82.093,361.868 81.474 C 361.472 80.854,360.899 80.044,360.596 79.674 C 360.293 79.303,358.467 77.020,356.539 74.600 C 354.611 72.180,352.846 69.986,352.617 69.725 C 349.235 65.869,347.215 63.734,341.769 58.262 C 335.823 52.287,332.349 49.079,330.243 47.614 C 329.779 47.292,329.072 46.617,328.671 46.114 C 328.270 45.611,327.685 45.200,327.371 45.200 C 327.057 45.200,326.800 45.044,326.800 44.854 C 326.800 44.663,325.945 43.859,324.900 43.067 C 323.855 42.276,322.730 41.386,322.400 41.091 C 322.070 40.796,320.810 39.850,319.600 38.990 C 318.390 38.130,317.310 37.311,317.200 37.169 C 317.090 37.027,316.415 36.612,315.700 36.246 C 314.985 35.879,314.400 35.445,314.400 35.281 C 314.400 35.116,313.725 34.628,312.900 34.195 C 312.075 33.762,311.256 33.181,311.080 32.904 C 310.904 32.627,310.533 32.400,310.256 32.400 C 309.978 32.400,309.402 32.079,308.975 31.687 C 308.549 31.295,307.525 30.656,306.700 30.268 C 305.875 29.880,305.200 29.409,305.200 29.221 C 305.200 29.033,304.391 28.546,303.401 28.140 C 302.412 27.733,301.602 27.292,301.601 27.161 C 301.601 27.029,300.880 26.597,300.000 26.200 C 299.120 25.803,298.400 25.326,298.400 25.139 C 298.400 24.953,298.155 24.800,297.856 24.800 C 297.557 24.800,296.676 24.369,295.899 23.842 C 295.123 23.315,293.838 22.648,293.044 22.361 C 292.250 22.074,291.600 21.720,291.600 21.574 C 291.600 21.428,290.745 20.982,289.700 20.583 C 288.655 20.184,287.585 19.642,287.322 19.380 C 287.059 19.117,286.024 18.659,285.022 18.363 C 284.020 18.067,283.200 17.685,283.200 17.513 C 283.200 17.341,283.012 17.200,282.782 17.200 C 282.551 17.200,281.017 16.570,279.373 15.800 C 277.728 15.030,276.197 14.400,275.969 14.400 C 275.742 14.400,274.776 14.045,273.823 13.610 C 272.870 13.176,271.260 12.599,270.245 12.328 C 269.230 12.056,268.400 11.707,268.400 11.551 C 268.400 11.396,267.050 10.950,265.400 10.561 C 263.750 10.172,262.400 9.722,262.400 9.561 C 262.400 9.400,261.005 8.945,259.300 8.551 C 257.595 8.156,256.110 7.714,256.000 7.568 C 255.890 7.422,254.270 6.978,252.400 6.581 C 250.530 6.184,248.910 5.745,248.800 5.605 C 248.690 5.464,246.710 5.012,244.400 4.600 C 242.090 4.188,240.110 3.738,240.000 3.600 C 239.890 3.462,238.000 3.108,235.800 2.813 C 233.600 2.517,231.530 2.128,231.200 1.948 C 229.150 0.828,194.709 -0.474,186.000 0.239 M202.726 75.568 C 203.097 75.771,212.220 84.697,223.000 95.404 C 233.780 106.111,249.454 121.673,257.832 129.987 C 267.654 139.735,273.252 145.583,273.596 146.452 C 273.889 147.193,274.279 147.971,274.464 148.180 C 274.937 148.715,274.884 151.200,274.400 151.200 C 274.180 151.200,274.000 151.464,274.000 151.786 C 274.000 153.272,272.632 155.154,271.043 155.854 C 270.139 156.252,269.273 156.760,269.119 156.982 C 268.738 157.529,264.035 157.499,263.681 156.947 C 263.527 156.706,262.981 156.377,262.468 156.217 C 261.956 156.057,249.582 143.973,234.970 129.363 C 220.359 114.753,208.133 102.800,207.802 102.800 C 207.267 102.800,207.200 114.848,207.200 210.354 C 207.200 331.690,207.504 320.769,204.056 323.122 C 199.502 326.230,192.400 322.874,192.400 317.616 C 192.400 317.193,192.220 316.736,192.000 316.600 C 191.735 316.436,191.600 280.329,191.600 209.576 C 191.600 150.849,191.476 102.800,191.323 102.800 C 191.171 102.800,179.122 114.717,164.548 129.282 C 149.974 143.847,137.638 155.916,137.136 156.102 C 136.634 156.288,136.099 156.639,135.949 156.883 C 135.605 157.439,130.866 157.534,130.483 156.993 C 130.327 156.772,129.557 156.256,128.772 155.844 C 127.412 155.131,126.000 152.878,126.000 151.421 C 126.000 151.105,125.820 150.736,125.600 150.600 C 125.080 150.278,125.080 148.800,125.600 148.800 C 125.820 148.800,126.000 148.448,126.000 148.019 C 126.000 147.589,126.218 146.759,126.485 146.174 C 127.065 144.900,195.542 76.341,196.874 75.700 C 198.013 75.152,201.808 75.067,202.726 75.568 " stroke="none" fill="#ffffff" fill-rule="evenodd"></path><path id="path1" d="M186.000 0.239 C 174.575 1.175,168.966 1.742,168.800 1.978 C 168.690 2.134,166.710 2.504,164.400 2.800 C 162.090 3.096,160.110 3.458,160.000 3.604 C 159.890 3.751,157.865 4.199,155.500 4.600 C 153.135 5.001,151.200 5.445,151.200 5.586 C 151.200 5.727,149.490 6.179,147.400 6.590 C 145.310 7.001,143.600 7.463,143.600 7.616 C 143.600 7.770,142.475 8.116,141.100 8.386 C 139.725 8.655,137.880 9.196,137.000 9.587 C 136.120 9.979,134.454 10.520,133.299 10.790 C 132.143 11.060,131.108 11.426,130.998 11.603 C 130.888 11.781,129.764 12.246,128.499 12.638 C 127.235 13.030,126.110 13.460,126.000 13.594 C 125.890 13.729,124.675 14.173,123.300 14.583 C 121.925 14.992,120.800 15.461,120.800 15.626 C 120.800 15.791,119.810 16.237,118.600 16.618 C 117.390 16.998,116.400 17.465,116.400 17.655 C 116.400 17.845,116.209 18.000,115.976 18.000 C 115.425 18.000,108.667 21.179,108.402 21.563 C 108.291 21.723,107.391 22.174,106.401 22.564 C 105.412 22.954,104.512 23.391,104.401 23.536 C 104.291 23.681,103.495 24.160,102.633 24.600 C 98.957 26.477,98.188 26.913,97.986 27.232 C 97.868 27.417,97.103 27.848,96.286 28.190 C 95.469 28.531,94.800 28.988,94.800 29.205 C 94.800 29.422,94.616 29.600,94.392 29.600 C 94.168 29.600,93.223 30.090,92.292 30.690 C 91.361 31.289,90.204 31.994,89.719 32.256 C 89.235 32.518,88.605 32.925,88.319 33.161 C 86.627 34.558,83.934 36.400,83.584 36.400 C 83.359 36.400,83.071 36.670,82.945 37.000 C 82.818 37.330,82.527 37.600,82.298 37.600 C 82.070 37.600,81.114 38.230,80.174 39.000 C 79.234 39.770,78.277 40.400,78.047 40.400 C 77.817 40.400,77.435 40.760,77.200 41.200 C 76.965 41.640,76.560 42.000,76.300 42.000 C 76.040 42.000,75.462 42.351,75.014 42.781 C 73.837 43.911,72.801 44.810,70.784 46.453 C 65.040 51.131,53.472 62.420,49.109 67.604 C 48.829 67.937,47.790 69.185,46.800 70.379 C 44.627 72.999,43.808 73.944,42.781 75.014 C 42.351 75.462,42.000 76.040,42.000 76.300 C 42.000 76.560,41.640 76.965,41.200 77.200 C 40.760 77.435,40.400 77.817,40.400 78.047 C 40.400 78.277,39.770 79.234,39.000 80.174 C 38.230 81.114,37.600 82.070,37.600 82.298 C 37.600 82.527,37.330 82.818,37.000 82.945 C 36.670 83.071,36.400 83.359,36.400 83.584 C 36.400 83.954,34.892 86.137,32.797 88.800 C 32.365 89.350,32.008 89.937,32.005 90.103 C 32.002 90.270,31.460 91.152,30.800 92.063 C 30.140 92.975,29.600 93.963,29.600 94.260 C 29.600 94.557,29.422 94.800,29.205 94.800 C 28.988 94.800,28.531 95.469,28.190 96.286 C 27.848 97.103,27.417 97.868,27.232 97.986 C 26.913 98.188,26.477 98.957,24.600 102.633 C 24.160 103.495,23.701 104.290,23.580 104.400 C 23.458 104.510,22.558 106.219,21.580 108.197 C 20.601 110.176,19.602 112.006,19.361 112.265 C 19.120 112.523,18.691 113.560,18.409 114.567 C 18.127 115.575,17.764 116.400,17.603 116.400 C 17.441 116.400,16.998 117.390,16.618 118.600 C 16.237 119.810,15.791 120.800,15.626 120.800 C 15.461 120.800,14.992 121.925,14.583 123.300 C 14.173 124.675,13.721 125.890,13.578 126.000 C 13.435 126.110,12.998 127.190,12.606 128.400 C 12.215 129.610,11.754 130.780,11.583 131.000 C 11.412 131.220,10.990 132.488,10.646 133.818 C 10.302 135.148,9.763 136.768,9.447 137.418 C 9.132 138.068,8.644 139.680,8.362 141.000 C 8.080 142.320,7.732 143.490,7.589 143.600 C 7.446 143.710,6.997 145.420,6.591 147.400 C 6.185 149.380,5.729 151.090,5.578 151.200 C 5.426 151.310,4.983 153.200,4.592 155.400 C 4.201 157.600,3.761 159.490,3.613 159.600 C 3.466 159.710,3.115 161.600,2.834 163.800 C 2.553 166.000,2.187 167.980,2.020 168.200 C 1.854 168.420,1.509 170.670,1.253 173.200 C -0.512 190.696,-0.437 214.056,1.427 227.400 C 2.498 235.073,3.371 240.201,3.639 240.400 C 3.787 240.510,4.230 242.445,4.624 244.700 C 5.017 246.955,5.488 248.800,5.670 248.800 C 5.851 248.800,5.998 249.115,5.995 249.500 C 5.987 250.522,7.322 256.165,7.627 256.400 C 7.769 256.510,8.193 257.991,8.569 259.692 C 8.944 261.393,9.400 262.876,9.582 262.989 C 9.763 263.101,10.222 264.456,10.600 266.000 C 10.978 267.544,11.440 268.901,11.627 269.017 C 11.813 269.132,12.267 270.300,12.636 271.613 C 13.004 272.926,13.447 274.000,13.621 274.000 C 13.794 274.000,14.055 274.585,14.199 275.300 C 14.343 276.015,14.883 277.500,15.399 278.600 C 17.312 282.678,18.701 285.825,18.973 286.700 C 19.128 287.195,19.386 287.600,19.548 287.600 C 19.710 287.600,20.166 288.500,20.561 289.600 C 20.957 290.700,21.407 291.600,21.561 291.600 C 21.716 291.600,22.166 292.500,22.561 293.600 C 22.957 294.700,23.398 295.600,23.543 295.600 C 23.687 295.600,24.063 296.185,24.378 296.900 C 24.693 297.615,25.187 298.438,25.475 298.729 C 25.764 299.019,26.000 299.480,26.000 299.753 C 26.000 300.026,26.317 300.598,26.705 301.025 C 27.093 301.451,27.750 302.565,28.166 303.500 C 28.582 304.435,29.030 305.200,29.163 305.200 C 29.296 305.200,29.634 305.718,29.915 306.352 C 30.195 306.986,30.869 308.021,31.412 308.652 C 31.955 309.283,32.399 310.016,32.400 310.280 C 32.400 310.544,32.627 310.904,32.904 311.080 C 33.181 311.256,33.762 312.075,34.195 312.900 C 34.628 313.725,35.080 314.400,35.200 314.400 C 35.320 314.400,35.757 315.030,36.172 315.800 C 36.587 316.570,37.066 317.200,37.236 317.200 C 37.407 317.200,37.647 317.515,37.771 317.900 C 37.894 318.285,38.401 319.080,38.898 319.666 C 39.394 320.253,40.790 322.036,42.000 323.629 C 43.210 325.222,44.883 327.246,45.717 328.128 C 46.551 329.010,47.364 329.964,47.523 330.248 C 48.536 332.058,61.945 345.829,66.835 350.083 C 68.026 351.118,69.880 352.738,70.956 353.683 C 72.033 354.627,73.282 355.659,73.732 355.976 C 74.183 356.292,74.866 356.832,75.250 357.176 C 76.138 357.968,77.245 358.815,80.000 360.805 C 81.210 361.679,82.485 362.666,82.834 362.997 C 83.182 363.329,83.632 363.600,83.834 363.601 C 84.035 363.601,84.830 364.141,85.600 364.800 C 86.370 365.459,87.107 365.999,87.239 365.999 C 87.370 366.000,87.893 366.360,88.400 366.800 C 88.907 367.240,89.531 367.600,89.786 367.600 C 90.041 367.600,90.604 367.915,91.039 368.300 C 92.261 369.384,95.582 371.600,95.983 371.600 C 96.181 371.600,96.581 371.825,96.871 372.101 C 97.162 372.376,98.117 372.961,98.994 373.401 C 99.871 373.840,100.817 374.414,101.098 374.676 C 101.379 374.937,102.237 375.378,103.004 375.656 C 103.772 375.934,104.400 376.286,104.400 376.440 C 104.400 376.594,105.300 377.043,106.400 377.439 C 107.500 377.834,108.400 378.275,108.400 378.418 C 108.400 378.561,109.165 379.016,110.100 379.428 C 111.035 379.841,111.890 380.288,112.000 380.422 C 112.110 380.556,113.145 381.002,114.300 381.412 C 115.455 381.822,116.400 382.278,116.400 382.424 C 116.400 382.571,117.390 383.002,118.600 383.382 C 119.810 383.763,120.800 384.215,120.800 384.388 C 120.800 384.560,121.970 385.036,123.400 385.445 C 124.830 385.855,126.000 386.318,126.000 386.474 C 126.000 386.631,127.080 387.062,128.400 387.432 C 129.720 387.802,130.800 388.237,130.800 388.398 C 130.800 388.559,131.880 388.920,133.200 389.200 C 134.520 389.480,135.600 389.845,135.600 390.012 C 135.600 390.178,136.905 390.628,138.500 391.012 C 140.095 391.395,141.580 391.844,141.800 392.008 C 142.020 392.172,143.545 392.609,145.189 392.978 C 146.833 393.348,148.363 393.795,148.589 393.972 C 148.815 394.149,150.800 394.608,153.000 394.994 C 155.200 395.379,157.190 395.846,157.423 396.032 C 157.655 396.218,160.085 396.680,162.823 397.058 C 165.560 397.437,167.890 397.869,168.000 398.018 C 169.717 400.346,230.280 400.338,232.000 398.010 C 232.110 397.861,234.447 397.425,237.194 397.041 C 239.941 396.657,242.281 396.212,242.394 396.052 C 242.507 395.891,244.400 395.431,246.600 395.029 C 248.800 394.627,250.780 394.170,251.000 394.013 C 251.220 393.857,252.840 393.401,254.600 393.001 C 256.360 392.601,257.890 392.156,258.000 392.012 C 258.110 391.868,259.191 391.534,260.402 391.268 C 261.614 391.003,263.073 390.544,263.644 390.247 C 264.216 389.950,265.611 389.485,266.743 389.214 C 267.876 388.942,268.898 388.565,269.014 388.377 C 269.131 388.188,270.300 387.733,271.613 387.364 C 272.926 386.996,274.000 386.553,274.000 386.379 C 274.000 386.206,274.585 385.936,275.300 385.779 C 276.015 385.623,277.897 384.889,279.482 384.148 C 281.066 383.406,282.551 382.800,282.782 382.800 C 283.012 382.800,283.200 382.659,283.200 382.487 C 283.200 382.315,284.020 381.933,285.022 381.637 C 286.024 381.341,287.059 380.883,287.322 380.620 C 287.585 380.358,288.655 379.816,289.700 379.417 C 290.745 379.018,291.600 378.571,291.600 378.425 C 291.600 378.278,292.500 377.834,293.600 377.439 C 294.700 377.043,295.600 376.577,295.600 376.403 C 295.600 376.229,296.305 375.805,297.166 375.460 C 298.027 375.116,298.845 374.651,298.983 374.428 C 299.120 374.205,299.991 373.651,300.917 373.197 C 304.345 371.516,305.600 370.786,305.600 370.472 C 305.600 370.294,306.230 369.902,307.000 369.600 C 307.770 369.298,308.400 368.901,308.400 368.719 C 308.400 368.536,309.030 368.087,309.800 367.719 C 310.570 367.352,311.200 366.926,311.200 366.773 C 311.200 366.619,311.515 366.388,311.900 366.258 C 312.934 365.911,314.214 365.013,316.400 363.100 C 316.840 362.715,317.317 362.400,317.461 362.400 C 317.836 362.400,321.135 359.961,322.193 358.900 C 322.687 358.405,323.295 358.000,323.542 358.000 C 323.790 358.000,324.218 357.640,324.493 357.200 C 324.768 356.760,325.206 356.400,325.467 356.400 C 325.728 356.400,326.296 355.950,326.729 355.400 C 327.161 354.850,327.649 354.400,327.813 354.400 C 328.740 354.400,341.835 341.959,347.850 335.364 C 353.336 329.348,354.400 328.122,354.400 327.813 C 354.400 327.649,354.850 327.161,355.400 326.729 C 355.950 326.296,356.400 325.728,356.400 325.467 C 356.400 325.206,356.760 324.768,357.200 324.493 C 357.640 324.218,358.000 323.790,358.000 323.542 C 358.000 323.295,358.405 322.687,358.900 322.193 C 359.961 321.135,362.400 317.836,362.400 317.461 C 362.400 317.317,362.760 316.795,363.200 316.300 C 364.899 314.388,365.912 312.931,366.258 311.900 C 366.388 311.515,366.619 311.200,366.773 311.200 C 366.926 311.200,367.352 310.570,367.719 309.800 C 368.087 309.030,368.536 308.400,368.719 308.400 C 368.901 308.400,369.298 307.770,369.600 307.000 C 369.902 306.230,370.305 305.600,370.495 305.600 C 370.685 305.600,371.117 305.015,371.455 304.300 C 371.793 303.585,372.549 302.175,373.135 301.167 C 373.721 300.158,374.626 298.538,375.147 297.567 C 375.667 296.595,376.320 295.530,376.597 295.200 C 376.875 294.870,377.340 293.925,377.631 293.100 C 377.922 292.275,378.280 291.600,378.426 291.600 C 378.572 291.600,379.018 290.745,379.417 289.700 C 379.816 288.655,380.358 287.585,380.620 287.322 C 380.883 287.059,381.341 286.024,381.637 285.022 C 381.933 284.020,382.315 283.200,382.487 283.200 C 382.659 283.200,382.800 283.012,382.800 282.783 C 382.800 282.554,383.321 281.249,383.957 279.883 C 384.594 278.517,385.342 276.635,385.621 275.700 C 385.899 274.765,386.254 274.000,386.411 274.000 C 386.567 274.000,386.996 272.926,387.364 271.613 C 387.733 270.300,388.188 269.131,388.377 269.014 C 388.565 268.898,388.942 267.876,389.214 266.743 C 389.485 265.611,389.950 264.216,390.247 263.644 C 390.544 263.073,391.003 261.614,391.268 260.402 C 391.534 259.191,391.871 258.110,392.018 258.000 C 392.166 257.890,392.601 256.360,392.987 254.600 C 393.372 252.840,393.825 251.220,393.993 251.000 C 394.161 250.780,394.627 248.800,395.029 246.600 C 395.431 244.400,395.889 242.509,396.046 242.398 C 396.203 242.286,396.629 240.036,396.993 237.398 C 397.357 234.759,397.815 232.240,398.011 231.800 C 400.424 226.391,400.424 173.609,398.011 168.200 C 397.815 167.760,397.360 165.263,397.000 162.651 C 396.640 160.039,396.183 157.609,395.984 157.251 C 395.785 156.893,395.270 154.890,394.838 152.800 C 393.876 148.132,392.505 142.806,392.060 142.000 C 391.877 141.670,391.410 140.095,391.021 138.500 C 390.632 136.905,390.173 135.600,390.001 135.600 C 389.830 135.600,389.563 134.925,389.408 134.100 C 389.254 133.275,388.806 131.880,388.414 131.000 C 388.022 130.120,387.472 128.680,387.192 127.800 C 386.913 126.920,386.566 126.110,386.423 126.000 C 386.279 125.890,385.827 124.675,385.417 123.300 C 385.008 121.925,384.531 120.800,384.357 120.800 C 384.183 120.800,383.729 119.810,383.347 118.600 C 382.966 117.390,382.507 116.400,382.327 116.400 C 382.147 116.400,382.000 116.202,382.000 115.961 C 382.000 115.463,378.779 108.707,378.395 108.400 C 378.257 108.290,377.826 107.391,377.436 106.401 C 377.046 105.412,376.604 104.512,376.453 104.401 C 376.302 104.291,375.841 103.435,375.428 102.500 C 375.016 101.565,374.526 100.800,374.339 100.800 C 374.153 100.800,373.992 100.575,373.983 100.300 C 373.974 100.025,373.166 98.540,372.188 97.000 C 371.209 95.460,370.118 93.677,369.762 93.038 C 369.406 92.398,368.774 91.509,368.357 91.062 C 367.941 90.615,367.600 90.022,367.600 89.744 C 367.600 89.467,367.375 89.096,367.100 88.920 C 366.825 88.744,366.249 87.970,365.820 87.200 C 365.391 86.430,364.716 85.451,364.320 85.025 C 363.924 84.598,363.600 84.116,363.600 83.953 C 363.600 83.790,363.373 83.419,363.095 83.129 C 362.817 82.838,362.265 82.093,361.868 81.474 C 361.472 80.854,360.899 80.044,360.596 79.674 C 360.293 79.303,358.467 77.020,356.539 74.600 C 354.611 72.180,352.846 69.986,352.617 69.725 C 349.235 65.869,347.215 63.734,341.769 58.262 C 335.823 52.287,332.349 49.079,330.243 47.614 C 329.779 47.292,329.072 46.617,328.671 46.114 C 328.270 45.611,327.685 45.200,327.371 45.200 C 327.057 45.200,326.800 45.044,326.800 44.854 C 326.800 44.663,325.945 43.859,324.900 43.067 C 323.855 42.276,322.730 41.386,322.400 41.091 C 322.070 40.796,320.810 39.850,319.600 38.990 C 318.390 38.130,317.310 37.311,317.200 37.169 C 317.090 37.027,316.415 36.612,315.700 36.246 C 314.985 35.879,314.400 35.445,314.400 35.281 C 314.400 35.116,313.725 34.628,312.900 34.195 C 312.075 33.762,311.256 33.181,311.080 32.904 C 310.904 32.627,310.533 32.400,310.256 32.400 C 309.978 32.400,309.402 32.079,308.975 31.687 C 308.549 31.295,307.525 30.656,306.700 30.268 C 305.875 29.880,305.200 29.409,305.200 29.221 C 305.200 29.033,304.391 28.546,303.401 28.140 C 302.412 27.733,301.602 27.292,301.601 27.161 C 301.601 27.029,300.880 26.597,300.000 26.200 C 299.120 25.803,298.400 25.326,298.400 25.139 C 298.400 24.953,298.155 24.800,297.856 24.800 C 297.557 24.800,296.676 24.369,295.899 23.842 C 295.123 23.315,293.838 22.648,293.044 22.361 C 292.250 22.074,291.600 21.720,291.600 21.574 C 291.600 21.428,290.745 20.982,289.700 20.583 C 288.655 20.184,287.585 19.642,287.322 19.380 C 287.059 19.117,286.024 18.659,285.022 18.363 C 284.020 18.067,283.200 17.685,283.200 17.513 C 283.200 17.341,283.012 17.200,282.782 17.200 C 282.551 17.200,281.017 16.570,279.373 15.800 C 277.728 15.030,276.197 14.400,275.969 14.400 C 275.742 14.400,274.776 14.045,273.823 13.610 C 272.870 13.176,271.260 12.599,270.245 12.328 C 269.230 12.056,268.400 11.707,268.400 11.551 C 268.400 11.396,267.050 10.950,265.400 10.561 C 263.750 10.172,262.400 9.722,262.400 9.561 C 262.400 9.400,261.005 8.945,259.300 8.551 C 257.595 8.156,256.110 7.714,256.000 7.568 C 255.890 7.422,254.270 6.978,252.400 6.581 C 250.530 6.184,248.910 5.745,248.800 5.605 C 248.690 5.464,246.710 5.012,244.400 4.600 C 242.090 4.188,240.110 3.738,240.000 3.600 C 239.890 3.462,238.000 3.108,235.800 2.813 C 233.600 2.517,231.530 2.128,231.200 1.948 C 229.150 0.828,194.709 -0.474,186.000 0.239 M202.726 75.568 C 203.097 75.771,212.220 84.697,223.000 95.404 C 233.780 106.111,249.454 121.673,257.832 129.987 C 267.654 139.735,273.252 145.583,273.596 146.452 C 273.889 147.193,274.279 147.971,274.464 148.180 C 274.937 148.715,274.884 151.200,274.400 151.200 C 274.180 151.200,274.000 151.464,274.000 151.786 C 274.000 153.272,272.632 155.154,271.043 155.854 C 270.139 156.252,269.273 156.760,269.119 156.982 C 268.738 157.529,264.035 157.499,263.681 156.947 C 263.527 156.706,262.981 156.377,262.468 156.217 C 261.956 156.057,249.582 143.973,234.970 129.363 C 220.359 114.753,208.133 102.800,207.802 102.800 C 207.267 102.800,207.200 114.848,207.200 210.354 C 207.200 331.690,207.504 320.769,204.056 323.122 C 199.502 326.230,192.400 322.874,192.400 317.616 C 192.400 317.193,192.220 316.736,192.000 316.600 C 191.735 316.436,191.600 280.329,191.600 209.576 C 191.600 150.849,191.476 102.800,191.323 102.800 C 191.171 102.800,179.122 114.717,164.548 129.282 C 149.974 143.847,137.638 155.916,137.136 156.102 C 136.634 156.288,136.099 156.639,135.949 156.883 C 135.605 157.439,130.866 157.534,130.483 156.993 C 130.327 156.772,129.557 156.256,128.772 155.844 C 127.412 155.131,126.000 152.878,126.000 151.421 C 126.000 151.105,125.820 150.736,125.600 150.600 C 125.080 150.278,125.080 148.800,125.600 148.800 C 125.820 148.800,126.000 148.448,126.000 148.019 C 126.000 147.589,126.218 146.759,126.485 146.174 C 127.065 144.900,195.542 76.341,196.874 75.700 C 198.013 75.152,201.808 75.067,202.726 75.568 " stroke="none" fill="#ffffff" fill-rule="evenodd"></path><path id="path2" d="M186.000 0.239 C 174.575 1.175,168.966 1.742,168.800 1.978 C 168.690 2.134,166.710 2.504,164.400 2.800 C 162.090 3.096,160.110 3.458,160.000 3.604 C 159.890 3.751,157.865 4.199,155.500 4.600 C 153.135 5.001,151.200 5.445,151.200 5.586 C 151.200 5.727,149.490 6.179,147.400 6.590 C 145.310 7.001,143.600 7.463,143.600 7.616 C 143.600 7.770,142.475 8.116,141.100 8.386 C 139.725 8.655,137.880 9.196,137.000 9.587 C 136.120 9.979,134.454 10.520,133.299 10.790 C 132.143 11.060,131.108 11.426,130.998 11.603 C 130.888 11.781,129.764 12.246,128.499 12.638 C 127.235 13.030,126.110 13.460,126.000 13.594 C 125.890 13.729,124.675 14.173,123.300 14.583 C 121.925 14.992,120.800 15.461,120.800 15.626 C 120.800 15.791,119.810 16.237,118.600 16.618 C 117.390 16.998,116.400 17.465,116.400 17.655 C 116.400 17.845,116.209 18.000,115.976 18.000 C 115.425 18.000,108.667 21.179,108.402 21.563 C 108.291 21.723,107.391 22.174,106.401 22.564 C 105.412 22.954,104.512 23.391,104.401 23.536 C 104.291 23.681,103.495 24.160,102.633 24.600 C 98.957 26.477,98.188 26.913,97.986 27.232 C 97.868 27.417,97.103 27.848,96.286 28.190 C 95.469 28.531,94.800 28.988,94.800 29.205 C 94.800 29.422,94.616 29.600,94.392 29.600 C 94.168 29.600,93.223 30.090,92.292 30.690 C 91.361 31.289,90.204 31.994,89.719 32.256 C 89.235 32.518,88.605 32.925,88.319 33.161 C 86.627 34.558,83.934 36.400,83.584 36.400 C 83.359 36.400,83.071 36.670,82.945 37.000 C 82.818 37.330,82.527 37.600,82.298 37.600 C 82.070 37.600,81.114 38.230,80.174 39.000 C 79.234 39.770,78.277 40.400,78.047 40.400 C 77.817 40.400,77.435 40.760,77.200 41.200 C 76.965 41.640,76.560 42.000,76.300 42.000 C 76.040 42.000,75.462 42.351,75.014 42.781 C 73.837 43.911,72.801 44.810,70.784 46.453 C 65.040 51.131,53.472 62.420,49.109 67.604 C 48.829 67.937,47.790 69.185,46.800 70.379 C 44.627 72.999,43.808 73.944,42.781 75.014 C 42.351 75.462,42.000 76.040,42.000 76.300 C 42.000 76.560,41.640 76.965,41.200 77.200 C 40.760 77.435,40.400 77.817,40.400 78.047 C 40.400 78.277,39.770 79.234,39.000 80.174 C 38.230 81.114,37.600 82.070,37.600 82.298 C 37.600 82.527,37.330 82.818,37.000 82.945 C 36.670 83.071,36.400 83.359,36.400 83.584 C 36.400 83.954,34.892 86.137,32.797 88.800 C 32.365 89.350,32.008 89.937,32.005 90.103 C 32.002 90.270,31.460 91.152,30.800 92.063 C 30.140 92.975,29.600 93.963,29.600 94.260 C 29.600 94.557,29.422 94.800,29.205 94.800 C 28.988 94.800,28.531 95.469,28.190 96.286 C 27.848 97.103,27.417 97.868,27.232 97.986 C 26.913 98.188,26.477 98.957,24.600 102.633 C 24.160 103.495,23.701 104.290,23.580 104.400 C 23.458 104.510,22.558 106.219,21.580 108.197 C 20.601 110.176,19.602 112.006,19.361 112.265 C 19.120 112.523,18.691 113.560,18.409 114.567 C 18.127 115.575,17.764 116.400,17.603 116.400 C 17.441 116.400,16.998 117.390,16.618 118.600 C 16.237 119.810,15.791 120.800,15.626 120.800 C 15.461 120.800,14.992 121.925,14.583 123.300 C 14.173 124.675,13.721 125.890,13.578 126.000 C 13.435 126.110,12.998 127.190,12.606 128.400 C 12.215 129.610,11.754 130.780,11.583 131.000 C 11.412 131.220,10.990 132.488,10.646 133.818 C 10.302 135.148,9.763 136.768,9.447 137.418 C 9.132 138.068,8.644 139.680,8.362 141.000 C 8.080 142.320,7.732 143.490,7.589 143.600 C 7.446 143.710,6.997 145.420,6.591 147.400 C 6.185 149.380,5.729 151.090,5.578 151.200 C 5.426 151.310,4.983 153.200,4.592 155.400 C 4.201 157.600,3.761 159.490,3.613 159.600 C 3.466 159.710,3.115 161.600,2.834 163.800 C 2.553 166.000,2.187 167.980,2.020 168.200 C 1.854 168.420,1.509 170.670,1.253 173.200 C -0.512 190.696,-0.437 214.056,1.427 227.400 C 2.498 235.073,3.371 240.201,3.639 240.400 C 3.787 240.510,4.230 242.445,4.624 244.700 C 5.017 246.955,5.488 248.800,5.670 248.800 C 5.851 248.800,5.998 249.115,5.995 249.500 C 5.987 250.522,7.322 256.165,7.627 256.400 C 7.769 256.510,8.193 257.991,8.569 259.692 C 8.944 261.393,9.400 262.876,9.582 262.989 C 9.763 263.101,10.222 264.456,10.600 266.000 C 10.978 267.544,11.440 268.901,11.627 269.017 C 11.813 269.132,12.267 270.300,12.636 271.613 C 13.004 272.926,13.447 274.000,13.621 274.000 C 13.794 274.000,14.055 274.585,14.199 275.300 C 14.343 276.015,14.883 277.500,15.399 278.600 C 17.312 282.678,18.701 285.825,18.973 286.700 C 19.128 287.195,19.386 287.600,19.548 287.600 C 19.710 287.600,20.166 288.500,20.561 289.600 C 20.957 290.700,21.407 291.600,21.561 291.600 C 21.716 291.600,22.166 292.500,22.561 293.600 C 22.957 294.700,23.398 295.600,23.543 295.600 C 23.687 295.600,24.063 296.185,24.378 296.900 C 24.693 297.615,25.187 298.438,25.475 298.729 C 25.764 299.019,26.000 299.480,26.000 299.753 C 26.000 300.026,26.317 300.598,26.705 301.025 C 27.093 301.451,27.750 302.565,28.166 303.500 C 28.582 304.435,29.030 305.200,29.163 305.200 C 29.296 305.200,29.634 305.718,29.915 306.352 C 30.195 306.986,30.869 308.021,31.412 308.652 C 31.955 309.283,32.399 310.016,32.400 310.280 C 32.400 310.544,32.627 310.904,32.904 311.080 C 33.181 311.256,33.762 312.075,34.195 312.900 C 34.628 313.725,35.080 314.400,35.200 314.400 C 35.320 314.400,35.757 315.030,36.172 315.800 C 36.587 316.570,37.066 317.200,37.236 317.200 C 37.407 317.200,37.647 317.515,37.771 317.900 C 37.894 318.285,38.401 319.080,38.898 319.666 C 39.394 320.253,40.790 322.036,42.000 323.629 C 43.210 325.222,44.883 327.246,45.717 328.128 C 46.551 329.010,47.364 329.964,47.523 330.248 C 48.536 332.058,61.945 345.829,66.835 350.083 C 68.026 351.118,69.880 352.738,70.956 353.683 C 72.033 354.627,73.282 355.659,73.732 355.976 C 74.183 356.292,74.866 356.832,75.250 357.176 C 76.138 357.968,77.245 358.815,80.000 360.805 C 81.210 361.679,82.485 362.666,82.834 362.997 C 83.182 363.329,83.632 363.600,83.834 363.601 C 84.035 363.601,84.830 364.141,85.600 364.800 C 86.370 365.459,87.107 365.999,87.239 365.999 C 87.370 366.000,87.893 366.360,88.400 366.800 C 88.907 367.240,89.531 367.600,89.786 367.600 C 90.041 367.600,90.604 367.915,91.039 368.300 C 92.261 369.384,95.582 371.600,95.983 371.600 C 96.181 371.600,96.581 371.825,96.871 372.101 C 97.162 372.376,98.117 372.961,98.994 373.401 C 99.871 373.840,100.817 374.414,101.098 374.676 C 101.379 374.937,102.237 375.378,103.004 375.656 C 103.772 375.934,104.400 376.286,104.400 376.440 C 104.400 376.594,105.300 377.043,106.400 377.439 C 107.500 377.834,108.400 378.275,108.400 378.418 C 108.400 378.561,109.165 379.016,110.100 379.428 C 111.035 379.841,111.890 380.288,112.000 380.422 C 112.110 380.556,113.145 381.002,114.300 381.412 C 115.455 381.822,116.400 382.278,116.400 382.424 C 116.400 382.571,117.390 383.002,118.600 383.382 C 119.810 383.763,120.800 384.215,120.800 384.388 C 120.800 384.560,121.970 385.036,123.400 385.445 C 124.830 385.855,126.000 386.318,126.000 386.474 C 126.000 386.631,127.080 387.062,128.400 387.432 C 129.720 387.802,130.800 388.237,130.800 388.398 C 130.800 388.559,131.880 388.920,133.200 389.200 C 134.520 389.480,135.600 389.845,135.600 390.012 C 135.600 390.178,136.905 390.628,138.500 391.012 C 140.095 391.395,141.580 391.844,141.800 392.008 C 142.020 392.172,143.545 392.609,145.189 392.978 C 146.833 393.348,148.363 393.795,148.589 393.972 C 148.815 394.149,150.800 394.608,153.000 394.994 C 155.200 395.379,157.190 395.846,157.423 396.032 C 157.655 396.218,160.085 396.680,162.823 397.058 C 165.560 397.437,167.890 397.869,168.000 398.018 C 169.717 400.346,230.280 400.338,232.000 398.010 C 232.110 397.861,234.447 397.425,237.194 397.041 C 239.941 396.657,242.281 396.212,242.394 396.052 C 242.507 395.891,244.400 395.431,246.600 395.029 C 248.800 394.627,250.780 394.170,251.000 394.013 C 251.220 393.857,252.840 393.401,254.600 393.001 C 256.360 392.601,257.890 392.156,258.000 392.012 C 258.110 391.868,259.191 391.534,260.402 391.268 C 261.614 391.003,263.073 390.544,263.644 390.247 C 264.216 389.950,265.611 389.485,266.743 389.214 C 267.876 388.942,268.898 388.565,269.014 388.377 C 269.131 388.188,270.300 387.733,271.613 387.364 C 272.926 386.996,274.000 386.553,274.000 386.379 C 274.000 386.206,274.585 385.936,275.300 385.779 C 276.015 385.623,277.897 384.889,279.482 384.148 C 281.066 383.406,282.551 382.800,282.782 382.800 C 283.012 382.800,283.200 382.659,283.200 382.487 C 283.200 382.315,284.020 381.933,285.022 381.637 C 286.024 381.341,287.059 380.883,287.322 380.620 C 287.585 380.358,288.655 379.816,289.700 379.417 C 290.745 379.018,291.600 378.571,291.600 378.425 C 291.600 378.278,292.500 377.834,293.600 377.439 C 294.700 377.043,295.600 376.577,295.600 376.403 C 295.600 376.229,296.305 375.805,297.166 375.460 C 298.027 375.116,298.845 374.651,298.983 374.428 C 299.120 374.205,299.991 373.651,300.917 373.197 C 304.345 371.516,305.600 370.786,305.600 370.472 C 305.600 370.294,306.230 369.902,307.000 369.600 C 307.770 369.298,308.400 368.901,308.400 368.719 C 308.400 368.536,309.030 368.087,309.800 367.719 C 310.570 367.352,311.200 366.926,311.200 366.773 C 311.200 366.619,311.515 366.388,311.900 366.258 C 312.934 365.911,314.214 365.013,316.400 363.100 C 316.840 362.715,317.317 362.400,317.461 362.400 C 317.836 362.400,321.135 359.961,322.193 358.900 C 322.687 358.405,323.295 358.000,323.542 358.000 C 323.790 358.000,324.218 357.640,324.493 357.200 C 324.768 356.760,325.206 356.400,325.467 356.400 C 325.728 356.400,326.296 355.950,326.729 355.400 C 327.161 354.850,327.649 354.400,327.813 354.400 C 328.740 354.400,341.835 341.959,347.850 335.364 C 353.336 329.348,354.400 328.122,354.400 327.813 C 354.400 327.649,354.850 327.161,355.400 326.729 C 355.950 326.296,356.400 325.728,356.400 325.467 C 356.400 325.206,356.760 324.768,357.200 324.493 C 357.640 324.218,358.000 323.790,358.000 323.542 C 358.000 323.295,358.405 322.687,358.900 322.193 C 359.961 321.135,362.400 317.836,362.400 317.461 C 362.400 317.317,362.760 316.795,363.200 316.300 C 364.899 314.388,365.912 312.931,366.258 311.900 C 366.388 311.515,366.619 311.200,366.773 311.200 C 366.926 311.200,367.352 310.570,367.719 309.800 C 368.087 309.030,368.536 308.400,368.719 308.400 C 368.901 308.400,369.298 307.770,369.600 307.000 C 369.902 306.230,370.305 305.600,370.495 305.600 C 370.685 305.600,371.117 305.015,371.455 304.300 C 371.793 303.585,372.549 302.175,373.135 301.167 C 373.721 300.158,374.626 298.538,375.147 297.567 C 375.667 296.595,376.320 295.530,376.597 295.200 C 376.875 294.870,377.340 293.925,377.631 293.100 C 377.922 292.275,378.280 291.600,378.426 291.600 C 378.572 291.600,379.018 290.745,379.417 289.700 C 379.816 288.655,380.358 287.585,380.620 287.322 C 380.883 287.059,381.341 286.024,381.637 285.022 C 381.933 284.020,382.315 283.200,382.487 283.200 C 382.659 283.200,382.800 283.012,382.800 282.783 C 382.800 282.554,383.321 281.249,383.957 279.883 C 384.594 278.517,385.342 276.635,385.621 275.700 C 385.899 274.765,386.254 274.000,386.411 274.000 C 386.567 274.000,386.996 272.926,387.364 271.613 C 387.733 270.300,388.188 269.131,388.377 269.014 C 388.565 268.898,388.942 267.876,389.214 266.743 C 389.485 265.611,389.950 264.216,390.247 263.644 C 390.544 263.073,391.003 261.614,391.268 260.402 C 391.534 259.191,391.871 258.110,392.018 258.000 C 392.166 257.890,392.601 256.360,392.987 254.600 C 393.372 252.840,393.825 251.220,393.993 251.000 C 394.161 250.780,394.627 248.800,395.029 246.600 C 395.431 244.400,395.889 242.509,396.046 242.398 C 396.203 242.286,396.629 240.036,396.993 237.398 C 397.357 234.759,397.815 232.240,398.011 231.800 C 400.424 226.391,400.424 173.609,398.011 168.200 C 397.815 167.760,397.360 165.263,397.000 162.651 C 396.640 160.039,396.183 157.609,395.984 157.251 C 395.785 156.893,395.270 154.890,394.838 152.800 C 393.876 148.132,392.505 142.806,392.060 142.000 C 391.877 141.670,391.410 140.095,391.021 138.500 C 390.632 136.905,390.173 135.600,390.001 135.600 C 389.830 135.600,389.563 134.925,389.408 134.100 C 389.254 133.275,388.806 131.880,388.414 131.000 C 388.022 130.120,387.472 128.680,387.192 127.800 C 386.913 126.920,386.566 126.110,386.423 126.000 C 386.279 125.890,385.827 124.675,385.417 123.300 C 385.008 121.925,384.531 120.800,384.357 120.800 C 384.183 120.800,383.729 119.810,383.347 118.600 C 382.966 117.390,382.507 116.400,382.327 116.400 C 382.147 116.400,382.000 116.202,382.000 115.961 C 382.000 115.463,378.779 108.707,378.395 108.400 C 378.257 108.290,377.826 107.391,377.436 106.401 C 377.046 105.412,376.604 104.512,376.453 104.401 C 376.302 104.291,375.841 103.435,375.428 102.500 C 375.016 101.565,374.526 100.800,374.339 100.800 C 374.153 100.800,373.992 100.575,373.983 100.300 C 373.974 100.025,373.166 98.540,372.188 97.000 C 371.209 95.460,370.118 93.677,369.762 93.038 C 369.406 92.398,368.774 91.509,368.357 91.062 C 367.941 90.615,367.600 90.022,367.600 89.744 C 367.600 89.467,367.375 89.096,367.100 88.920 C 366.825 88.744,366.249 87.970,365.820 87.200 C 365.391 86.430,364.716 85.451,364.320 85.025 C 363.924 84.598,363.600 84.116,363.600 83.953 C 363.600 83.790,363.373 83.419,363.095 83.129 C 362.817 82.838,362.265 82.093,361.868 81.474 C 361.472 80.854,360.899 80.044,360.596 79.674 C 360.293 79.303,358.467 77.020,356.539 74.600 C 354.611 72.180,352.846 69.986,352.617 69.725 C 349.235 65.869,347.215 63.734,341.769 58.262 C 335.823 52.287,332.349 49.079,330.243 47.614 C 329.779 47.292,329.072 46.617,328.671 46.114 C 328.270 45.611,327.685 45.200,327.371 45.200 C 327.057 45.200,326.800 45.044,326.800 44.854 C 326.800 44.663,325.945 43.859,324.900 43.067 C 323.855 42.276,322.730 41.386,322.400 41.091 C 322.070 40.796,320.810 39.850,319.600 38.990 C 318.390 38.130,317.310 37.311,317.200 37.169 C 317.090 37.027,316.415 36.612,315.700 36.246 C 314.985 35.879,314.400 35.445,314.400 35.281 C 314.400 35.116,313.725 34.628,312.900 34.195 C 312.075 33.762,311.256 33.181,311.080 32.904 C 310.904 32.627,310.533 32.400,310.256 32.400 C 309.978 32.400,309.402 32.079,308.975 31.687 C 308.549 31.295,307.525 30.656,306.700 30.268 C 305.875 29.880,305.200 29.409,305.200 29.221 C 305.200 29.033,304.391 28.546,303.401 28.140 C 302.412 27.733,301.602 27.292,301.601 27.161 C 301.601 27.029,300.880 26.597,300.000 26.200 C 299.120 25.803,298.400 25.326,298.400 25.139 C 298.400 24.953,298.155 24.800,297.856 24.800 C 297.557 24.800,296.676 24.369,295.899 23.842 C 295.123 23.315,293.838 22.648,293.044 22.361 C 292.250 22.074,291.600 21.720,291.600 21.574 C 291.600 21.428,290.745 20.982,289.700 20.583 C 288.655 20.184,287.585 19.642,287.322 19.380 C 287.059 19.117,286.024 18.659,285.022 18.363 C 284.020 18.067,283.200 17.685,283.200 17.513 C 283.200 17.341,283.012 17.200,282.782 17.200 C 282.551 17.200,281.017 16.570,279.373 15.800 C 277.728 15.030,276.197 14.400,275.969 14.400 C 275.742 14.400,274.776 14.045,273.823 13.610 C 272.870 13.176,271.260 12.599,270.245 12.328 C 269.230 12.056,268.400 11.707,268.400 11.551 C 268.400 11.396,267.050 10.950,265.400 10.561 C 263.750 10.172,262.400 9.722,262.400 9.561 C 262.400 9.400,261.005 8.945,259.300 8.551 C 257.595 8.156,256.110 7.714,256.000 7.568 C 255.890 7.422,254.270 6.978,252.400 6.581 C 250.530 6.184,248.910 5.745,248.800 5.605 C 248.690 5.464,246.710 5.012,244.400 4.600 C 242.090 4.188,240.110 3.738,240.000 3.600 C 239.890 3.462,238.000 3.108,235.800 2.813 C 233.600 2.517,231.530 2.128,231.200 1.948 C 229.150 0.828,194.709 -0.474,186.000 0.239 M202.726 75.568 C 203.097 75.771,212.220 84.697,223.000 95.404 C 233.780 106.111,249.454 121.673,257.832 129.987 C 267.654 139.735,273.252 145.583,273.596 146.452 C 273.889 147.193,274.279 147.971,274.464 148.180 C 274.937 148.715,274.884 151.200,274.400 151.200 C 274.180 151.200,274.000 151.464,274.000 151.786 C 274.000 153.272,272.632 155.154,271.043 155.854 C 270.139 156.252,269.273 156.760,269.119 156.982 C 268.738 157.529,264.035 157.499,263.681 156.947 C 263.527 156.706,262.981 156.377,262.468 156.217 C 261.956 156.057,249.582 143.973,234.970 129.363 C 220.359 114.753,208.133 102.800,207.802 102.800 C 207.267 102.800,207.200 114.848,207.200 210.354 C 207.200 331.690,207.504 320.769,204.056 323.122 C 199.502 326.230,192.400 322.874,192.400 317.616 C 192.400 317.193,192.220 316.736,192.000 316.600 C 191.735 316.436,191.600 280.329,191.600 209.576 C 191.600 150.849,191.476 102.800,191.323 102.800 C 191.171 102.800,179.122 114.717,164.548 129.282 C 149.974 143.847,137.638 155.916,137.136 156.102 C 136.634 156.288,136.099 156.639,135.949 156.883 C 135.605 157.439,130.866 157.534,130.483 156.993 C 130.327 156.772,129.557 156.256,128.772 155.844 C 127.412 155.131,126.000 152.878,126.000 151.421 C 126.000 151.105,125.820 150.736,125.600 150.600 C 125.080 150.278,125.080 148.800,125.600 148.800 C 125.820 148.800,126.000 148.448,126.000 148.019 C 126.000 147.589,126.218 146.759,126.485 146.174 C 127.065 144.900,195.542 76.341,196.874 75.700 C 198.013 75.152,201.808 75.067,202.726 75.568 " stroke="none" fill="#ffffff" fill-rule="evenodd"></path><path id="path3" d="M186.000 0.239 C 174.575 1.175,168.966 1.742,168.800 1.978 C 168.690 2.134,166.710 2.504,164.400 2.800 C 162.090 3.096,160.110 3.458,160.000 3.604 C 159.890 3.751,157.865 4.199,155.500 4.600 C 153.135 5.001,151.200 5.445,151.200 5.586 C 151.200 5.727,149.490 6.179,147.400 6.590 C 145.310 7.001,143.600 7.463,143.600 7.616 C 143.600 7.770,142.475 8.116,141.100 8.386 C 139.725 8.655,137.880 9.196,137.000 9.587 C 136.120 9.979,134.454 10.520,133.299 10.790 C 132.143 11.060,131.108 11.426,130.998 11.603 C 130.888 11.781,129.764 12.246,128.499 12.638 C 127.235 13.030,126.110 13.460,126.000 13.594 C 125.890 13.729,124.675 14.173,123.300 14.583 C 121.925 14.992,120.800 15.461,120.800 15.626 C 120.800 15.791,119.810 16.237,118.600 16.618 C 117.390 16.998,116.400 17.465,116.400 17.655 C 116.400 17.845,116.209 18.000,115.976 18.000 C 115.425 18.000,108.667 21.179,108.402 21.563 C 108.291 21.723,107.391 22.174,106.401 22.564 C 105.412 22.954,104.512 23.391,104.401 23.536 C 104.291 23.681,103.495 24.160,102.633 24.600 C 98.957 26.477,98.188 26.913,97.986 27.232 C 97.868 27.417,97.103 27.848,96.286 28.190 C 95.469 28.531,94.800 28.988,94.800 29.205 C 94.800 29.422,94.616 29.600,94.392 29.600 C 94.168 29.600,93.223 30.090,92.292 30.690 C 91.361 31.289,90.204 31.994,89.719 32.256 C 89.235 32.518,88.605 32.925,88.319 33.161 C 86.627 34.558,83.934 36.400,83.584 36.400 C 83.359 36.400,83.071 36.670,82.945 37.000 C 82.818 37.330,82.527 37.600,82.298 37.600 C 82.070 37.600,81.114 38.230,80.174 39.000 C 79.234 39.770,78.277 40.400,78.047 40.400 C 77.817 40.400,77.435 40.760,77.200 41.200 C 76.965 41.640,76.560 42.000,76.300 42.000 C 76.040 42.000,75.462 42.351,75.014 42.781 C 73.837 43.911,72.801 44.810,70.784 46.453 C 65.040 51.131,53.472 62.420,49.109 67.604 C 48.829 67.937,47.790 69.185,46.800 70.379 C 44.627 72.999,43.808 73.944,42.781 75.014 C 42.351 75.462,42.000 76.040,42.000 76.300 C 42.000 76.560,41.640 76.965,41.200 77.200 C 40.760 77.435,40.400 77.817,40.400 78.047 C 40.400 78.277,39.770 79.234,39.000 80.174 C 38.230 81.114,37.600 82.070,37.600 82.298 C 37.600 82.527,37.330 82.818,37.000 82.945 C 36.670 83.071,36.400 83.359,36.400 83.584 C 36.400 83.954,34.892 86.137,32.797 88.800 C 32.365 89.350,32.008 89.937,32.005 90.103 C 32.002 90.270,31.460 91.152,30.800 92.063 C 30.140 92.975,29.600 93.963,29.600 94.260 C 29.600 94.557,29.422 94.800,29.205 94.800 C 28.988 94.800,28.531 95.469,28.190 96.286 C 27.848 97.103,27.417 97.868,27.232 97.986 C 26.913 98.188,26.477 98.957,24.600 102.633 C 24.160 103.495,23.701 104.290,23.580 104.400 C 23.458 104.510,22.558 106.219,21.580 108.197 C 20.601 110.176,19.602 112.006,19.361 112.265 C 19.120 112.523,18.691 113.560,18.409 114.567 C 18.127 115.575,17.764 116.400,17.603 116.400 C 17.441 116.400,16.998 117.390,16.618 118.600 C 16.237 119.810,15.791 120.800,15.626 120.800 C 15.461 120.800,14.992 121.925,14.583 123.300 C 14.173 124.675,13.721 125.890,13.578 126.000 C 13.435 126.110,12.998 127.190,12.606 128.400 C 12.215 129.610,11.754 130.780,11.583 131.000 C 11.412 131.220,10.990 132.488,10.646 133.818 C 10.302 135.148,9.763 136.768,9.447 137.418 C 9.132 138.068,8.644 139.680,8.362 141.000 C 8.080 142.320,7.732 143.490,7.589 143.600 C 7.446 143.710,6.997 145.420,6.591 147.400 C 6.185 149.380,5.729 151.090,5.578 151.200 C 5.426 151.310,4.983 153.200,4.592 155.400 C 4.201 157.600,3.761 159.490,3.613 159.600 C 3.466 159.710,3.115 161.600,2.834 163.800 C 2.553 166.000,2.187 167.980,2.020 168.200 C 1.854 168.420,1.509 170.670,1.253 173.200 C -0.512 190.696,-0.437 214.056,1.427 227.400 C 2.498 235.073,3.371 240.201,3.639 240.400 C 3.787 240.510,4.230 242.445,4.624 244.700 C 5.017 246.955,5.488 248.800,5.670 248.800 C 5.851 248.800,5.998 249.115,5.995 249.500 C 5.987 250.522,7.322 256.165,7.627 256.400 C 7.769 256.510,8.193 257.991,8.569 259.692 C 8.944 261.393,9.400 262.876,9.582 262.989 C 9.763 263.101,10.222 264.456,10.600 266.000 C 10.978 267.544,11.440 268.901,11.627 269.017 C 11.813 269.132,12.267 270.300,12.636 271.613 C 13.004 272.926,13.447 274.000,13.621 274.000 C 13.794 274.000,14.055 274.585,14.199 275.300 C 14.343 276.015,14.883 277.500,15.399 278.600 C 17.312 282.678,18.701 285.825,18.973 286.700 C 19.128 287.195,19.386 287.600,19.548 287.600 C 19.710 287.600,20.166 288.500,20.561 289.600 C 20.957 290.700,21.407 291.600,21.561 291.600 C 21.716 291.600,22.166 292.500,22.561 293.600 C 22.957 294.700,23.398 295.600,23.543 295.600 C 23.687 295.600,24.063 296.185,24.378 296.900 C 24.693 297.615,25.187 298.438,25.475 298.729 C 25.764 299.019,26.000 299.480,26.000 299.753 C 26.000 300.026,26.317 300.598,26.705 301.025 C 27.093 301.451,27.750 302.565,28.166 303.500 C 28.582 304.435,29.030 305.200,29.163 305.200 C 29.296 305.200,29.634 305.718,29.915 306.352 C 30.195 306.986,30.869 308.021,31.412 308.652 C 31.955 309.283,32.399 310.016,32.400 310.280 C 32.400 310.544,32.627 310.904,32.904 311.080 C 33.181 311.256,33.762 312.075,34.195 312.900 C 34.628 313.725,35.080 314.400,35.200 314.400 C 35.320 314.400,35.757 315.030,36.172 315.800 C 36.587 316.570,37.066 317.200,37.236 317.200 C 37.407 317.200,37.647 317.515,37.771 317.900 C 37.894 318.285,38.401 319.080,38.898 319.666 C 39.394 320.253,40.790 322.036,42.000 323.629 C 43.210 325.222,44.883 327.246,45.717 328.128 C 46.551 329.010,47.364 329.964,47.523 330.248 C 48.536 332.058,61.945 345.829,66.835 350.083 C 68.026 351.118,69.880 352.738,70.956 353.683 C 72.033 354.627,73.282 355.659,73.732 355.976 C 74.183 356.292,74.866 356.832,75.250 357.176 C 76.138 357.968,77.245 358.815,80.000 360.805 C 81.210 361.679,82.485 362.666,82.834 362.997 C 83.182 363.329,83.632 363.600,83.834 363.601 C 84.035 363.601,84.830 364.141,85.600 364.800 C 86.370 365.459,87.107 365.999,87.239 365.999 C 87.370 366.000,87.893 366.360,88.400 366.800 C 88.907 367.240,89.531 367.600,89.786 367.600 C 90.041 367.600,90.604 367.915,91.039 368.300 C 92.261 369.384,95.582 371.600,95.983 371.600 C 96.181 371.600,96.581 371.825,96.871 372.101 C 97.162 372.376,98.117 372.961,98.994 373.401 C 99.871 373.840,100.817 374.414,101.098 374.676 C 101.379 374.937,102.237 375.378,103.004 375.656 C 103.772 375.934,104.400 376.286,104.400 376.440 C 104.400 376.594,105.300 377.043,106.400 377.439 C 107.500 377.834,108.400 378.275,108.400 378.418 C 108.400 378.561,109.165 379.016,110.100 379.428 C 111.035 379.841,111.890 380.288,112.000 380.422 C 112.110 380.556,113.145 381.002,114.300 381.412 C 115.455 381.822,116.400 382.278,116.400 382.424 C 116.400 382.571,117.390 383.002,118.600 383.382 C 119.810 383.763,120.800 384.215,120.800 384.388 C 120.800 384.560,121.970 385.036,123.400 385.445 C 124.830 385.855,126.000 386.318,126.000 386.474 C 126.000 386.631,127.080 387.062,128.400 387.432 C 129.720 387.802,130.800 388.237,130.800 388.398 C 130.800 388.559,131.880 388.920,133.200 389.200 C 134.520 389.480,135.600 389.845,135.600 390.012 C 135.600 390.178,136.905 390.628,138.500 391.012 C 140.095 391.395,141.580 391.844,141.800 392.008 C 142.020 392.172,143.545 392.609,145.189 392.978 C 146.833 393.348,148.363 393.795,148.589 393.972 C 148.815 394.149,150.800 394.608,153.000 394.994 C 155.200 395.379,157.190 395.846,157.423 396.032 C 157.655 396.218,160.085 396.680,162.823 397.058 C 165.560 397.437,167.890 397.869,168.000 398.018 C 169.717 400.346,230.280 400.338,232.000 398.010 C 232.110 397.861,234.447 397.425,237.194 397.041 C 239.941 396.657,242.281 396.212,242.394 396.052 C 242.507 395.891,244.400 395.431,246.600 395.029 C 248.800 394.627,250.780 394.170,251.000 394.013 C 251.220 393.857,252.840 393.401,254.600 393.001 C 256.360 392.601,257.890 392.156,258.000 392.012 C 258.110 391.868,259.191 391.534,260.402 391.268 C 261.614 391.003,263.073 390.544,263.644 390.247 C 264.216 389.950,265.611 389.485,266.743 389.214 C 267.876 388.942,268.898 388.565,269.014 388.377 C 269.131 388.188,270.300 387.733,271.613 387.364 C 272.926 386.996,274.000 386.553,274.000 386.379 C 274.000 386.206,274.585 385.936,275.300 385.779 C 276.015 385.623,277.897 384.889,279.482 384.148 C 281.066 383.406,282.551 382.800,282.782 382.800 C 283.012 382.800,283.200 382.659,283.200 382.487 C 283.200 382.315,284.020 381.933,285.022 381.637 C 286.024 381.341,287.059 380.883,287.322 380.620 C 287.585 380.358,288.655 379.816,289.700 379.417 C 290.745 379.018,291.600 378.571,291.600 378.425 C 291.600 378.278,292.500 377.834,293.600 377.439 C 294.700 377.043,295.600 376.577,295.600 376.403 C 295.600 376.229,296.305 375.805,297.166 375.460 C 298.027 375.116,298.845 374.651,298.983 374.428 C 299.120 374.205,299.991 373.651,300.917 373.197 C 304.345 371.516,305.600 370.786,305.600 370.472 C 305.600 370.294,306.230 369.902,307.000 369.600 C 307.770 369.298,308.400 368.901,308.400 368.719 C 308.400 368.536,309.030 368.087,309.800 367.719 C 310.570 367.352,311.200 366.926,311.200 366.773 C 311.200 366.619,311.515 366.388,311.900 366.258 C 312.934 365.911,314.214 365.013,316.400 363.100 C 316.840 362.715,317.317 362.400,317.461 362.400 C 317.836 362.400,321.135 359.961,322.193 358.900 C 322.687 358.405,323.295 358.000,323.542 358.000 C 323.790 358.000,324.218 357.640,324.493 357.200 C 324.768 356.760,325.206 356.400,325.467 356.400 C 325.728 356.400,326.296 355.950,326.729 355.400 C 327.161 354.850,327.649 354.400,327.813 354.400 C 328.740 354.400,341.835 341.959,347.850 335.364 C 353.336 329.348,354.400 328.122,354.400 327.813 C 354.400 327.649,354.850 327.161,355.400 326.729 C 355.950 326.296,356.400 325.728,356.400 325.467 C 356.400 325.206,356.760 324.768,357.200 324.493 C 357.640 324.218,358.000 323.790,358.000 323.542 C 358.000 323.295,358.405 322.687,358.900 322.193 C 359.961 321.135,362.400 317.836,362.400 317.461 C 362.400 317.317,362.760 316.795,363.200 316.300 C 364.899 314.388,365.912 312.931,366.258 311.900 C 366.388 311.515,366.619 311.200,366.773 311.200 C 366.926 311.200,367.352 310.570,367.719 309.800 C 368.087 309.030,368.536 308.400,368.719 308.400 C 368.901 308.400,369.298 307.770,369.600 307.000 C 369.902 306.230,370.305 305.600,370.495 305.600 C 370.685 305.600,371.117 305.015,371.455 304.300 C 371.793 303.585,372.549 302.175,373.135 301.167 C 373.721 300.158,374.626 298.538,375.147 297.567 C 375.667 296.595,376.320 295.530,376.597 295.200 C 376.875 294.870,377.340 293.925,377.631 293.100 C 377.922 292.275,378.280 291.600,378.426 291.600 C 378.572 291.600,379.018 290.745,379.417 289.700 C 379.816 288.655,380.358 287.585,380.620 287.322 C 380.883 287.059,381.341 286.024,381.637 285.022 C 381.933 284.020,382.315 283.200,382.487 283.200 C 382.659 283.200,382.800 283.012,382.800 282.783 C 382.800 282.554,383.321 281.249,383.957 279.883 C 384.594 278.517,385.342 276.635,385.621 275.700 C 385.899 274.765,386.254 274.000,386.411 274.000 C 386.567 274.000,386.996 272.926,387.364 271.613 C 387.733 270.300,388.188 269.131,388.377 269.014 C 388.565 268.898,388.942 267.876,389.214 266.743 C 389.485 265.611,389.950 264.216,390.247 263.644 C 390.544 263.073,391.003 261.614,391.268 260.402 C 391.534 259.191,391.871 258.110,392.018 258.000 C 392.166 257.890,392.601 256.360,392.987 254.600 C 393.372 252.840,393.825 251.220,393.993 251.000 C 394.161 250.780,394.627 248.800,395.029 246.600 C 395.431 244.400,395.889 242.509,396.046 242.398 C 396.203 242.286,396.629 240.036,396.993 237.398 C 397.357 234.759,397.815 232.240,398.011 231.800 C 400.424 226.391,400.424 173.609,398.011 168.200 C 397.815 167.760,397.360 165.263,397.000 162.651 C 396.640 160.039,396.183 157.609,395.984 157.251 C 395.785 156.893,395.270 154.890,394.838 152.800 C 393.876 148.132,392.505 142.806,392.060 142.000 C 391.877 141.670,391.410 140.095,391.021 138.500 C 390.632 136.905,390.173 135.600,390.001 135.600 C 389.830 135.600,389.563 134.925,389.408 134.100 C 389.254 133.275,388.806 131.880,388.414 131.000 C 388.022 130.120,387.472 128.680,387.192 127.800 C 386.913 126.920,386.566 126.110,386.423 126.000 C 386.279 125.890,385.827 124.675,385.417 123.300 C 385.008 121.925,384.531 120.800,384.357 120.800 C 384.183 120.800,383.729 119.810,383.347 118.600 C 382.966 117.390,382.507 116.400,382.327 116.400 C 382.147 116.400,382.000 116.202,382.000 115.961 C 382.000 115.463,378.779 108.707,378.395 108.400 C 378.257 108.290,377.826 107.391,377.436 106.401 C 377.046 105.412,376.604 104.512,376.453 104.401 C 376.302 104.291,375.841 103.435,375.428 102.500 C 375.016 101.565,374.526 100.800,374.339 100.800 C 374.153 100.800,373.992 100.575,373.983 100.300 C 373.974 100.025,373.166 98.540,372.188 97.000 C 371.209 95.460,370.118 93.677,369.762 93.038 C 369.406 92.398,368.774 91.509,368.357 91.062 C 367.941 90.615,367.600 90.022,367.600 89.744 C 367.600 89.467,367.375 89.096,367.100 88.920 C 366.825 88.744,366.249 87.970,365.820 87.200 C 365.391 86.430,364.716 85.451,364.320 85.025 C 363.924 84.598,363.600 84.116,363.600 83.953 C 363.600 83.790,363.373 83.419,363.095 83.129 C 362.817 82.838,362.265 82.093,361.868 81.474 C 361.472 80.854,360.899 80.044,360.596 79.674 C 360.293 79.303,358.467 77.020,356.539 74.600 C 354.611 72.180,352.846 69.986,352.617 69.725 C 349.235 65.869,347.215 63.734,341.769 58.262 C 335.823 52.287,332.349 49.079,330.243 47.614 C 329.779 47.292,329.072 46.617,328.671 46.114 C 328.270 45.611,327.685 45.200,327.371 45.200 C 327.057 45.200,326.800 45.044,326.800 44.854 C 326.800 44.663,325.945 43.859,324.900 43.067 C 323.855 42.276,322.730 41.386,322.400 41.091 C 322.070 40.796,320.810 39.850,319.600 38.990 C 318.390 38.130,317.310 37.311,317.200 37.169 C 317.090 37.027,316.415 36.612,315.700 36.246 C 314.985 35.879,314.400 35.445,314.400 35.281 C 314.400 35.116,313.725 34.628,312.900 34.195 C 312.075 33.762,311.256 33.181,311.080 32.904 C 310.904 32.627,310.533 32.400,310.256 32.400 C 309.978 32.400,309.402 32.079,308.975 31.687 C 308.549 31.295,307.525 30.656,306.700 30.268 C 305.875 29.880,305.200 29.409,305.200 29.221 C 305.200 29.033,304.391 28.546,303.401 28.140 C 302.412 27.733,301.602 27.292,301.601 27.161 C 301.601 27.029,300.880 26.597,300.000 26.200 C 299.120 25.803,298.400 25.326,298.400 25.139 C 298.400 24.953,298.155 24.800,297.856 24.800 C 297.557 24.800,296.676 24.369,295.899 23.842 C 295.123 23.315,293.838 22.648,293.044 22.361 C 292.250 22.074,291.600 21.720,291.600 21.574 C 291.600 21.428,290.745 20.982,289.700 20.583 C 288.655 20.184,287.585 19.642,287.322 19.380 C 287.059 19.117,286.024 18.659,285.022 18.363 C 284.020 18.067,283.200 17.685,283.200 17.513 C 283.200 17.341,283.012 17.200,282.782 17.200 C 282.551 17.200,281.017 16.570,279.373 15.800 C 277.728 15.030,276.197 14.400,275.969 14.400 C 275.742 14.400,274.776 14.045,273.823 13.610 C 272.870 13.176,271.260 12.599,270.245 12.328 C 269.230 12.056,268.400 11.707,268.400 11.551 C 268.400 11.396,267.050 10.950,265.400 10.561 C 263.750 10.172,262.400 9.722,262.400 9.561 C 262.400 9.400,261.005 8.945,259.300 8.551 C 257.595 8.156,256.110 7.714,256.000 7.568 C 255.890 7.422,254.270 6.978,252.400 6.581 C 250.530 6.184,248.910 5.745,248.800 5.605 C 248.690 5.464,246.710 5.012,244.400 4.600 C 242.090 4.188,240.110 3.738,240.000 3.600 C 239.890 3.462,238.000 3.108,235.800 2.813 C 233.600 2.517,231.530 2.128,231.200 1.948 C 229.150 0.828,194.709 -0.474,186.000 0.239 M202.726 75.568 C 203.097 75.771,212.220 84.697,223.000 95.404 C 233.780 106.111,249.454 121.673,257.832 129.987 C 267.654 139.735,273.252 145.583,273.596 146.452 C 273.889 147.193,274.279 147.971,274.464 148.180 C 274.937 148.715,274.884 151.200,274.400 151.200 C 274.180 151.200,274.000 151.464,274.000 151.786 C 274.000 153.272,272.632 155.154,271.043 155.854 C 270.139 156.252,269.273 156.760,269.119 156.982 C 268.738 157.529,264.035 157.499,263.681 156.947 C 263.527 156.706,262.981 156.377,262.468 156.217 C 261.956 156.057,249.582 143.973,234.970 129.363 C 220.359 114.753,208.133 102.800,207.802 102.800 C 207.267 102.800,207.200 114.848,207.200 210.354 C 207.200 331.690,207.504 320.769,204.056 323.122 C 199.502 326.230,192.400 322.874,192.400 317.616 C 192.400 317.193,192.220 316.736,192.000 316.600 C 191.735 316.436,191.600 280.329,191.600 209.576 C 191.600 150.849,191.476 102.800,191.323 102.800 C 191.171 102.800,179.122 114.717,164.548 129.282 C 149.974 143.847,137.638 155.916,137.136 156.102 C 136.634 156.288,136.099 156.639,135.949 156.883 C 135.605 157.439,130.866 157.534,130.483 156.993 C 130.327 156.772,129.557 156.256,128.772 155.844 C 127.412 155.131,126.000 152.878,126.000 151.421 C 126.000 151.105,125.820 150.736,125.600 150.600 C 125.080 150.278,125.080 148.800,125.600 148.800 C 125.820 148.800,126.000 148.448,126.000 148.019 C 126.000 147.589,126.218 146.759,126.485 146.174 C 127.065 144.900,195.542 76.341,196.874 75.700 C 198.013 75.152,201.808 75.067,202.726 75.568 " stroke="none" fill="#ffffff" fill-rule="evenodd"></path><path id="path4" d="M186.000 0.239 C 174.575 1.175,168.966 1.742,168.800 1.978 C 168.690 2.134,166.710 2.504,164.400 2.800 C 162.090 3.096,160.110 3.458,160.000 3.604 C 159.890 3.751,157.865 4.199,155.500 4.600 C 153.135 5.001,151.200 5.445,151.200 5.586 C 151.200 5.727,149.490 6.179,147.400 6.590 C 145.310 7.001,143.600 7.463,143.600 7.616 C 143.600 7.770,142.475 8.116,141.100 8.386 C 139.725 8.655,137.880 9.196,137.000 9.587 C 136.120 9.979,134.454 10.520,133.299 10.790 C 132.143 11.060,131.108 11.426,130.998 11.603 C 130.888 11.781,129.764 12.246,128.499 12.638 C 127.235 13.030,126.110 13.460,126.000 13.594 C 125.890 13.729,124.675 14.173,123.300 14.583 C 121.925 14.992,120.800 15.461,120.800 15.626 C 120.800 15.791,119.810 16.237,118.600 16.618 C 117.390 16.998,116.400 17.465,116.400 17.655 C 116.400 17.845,116.209 18.000,115.976 18.000 C 115.425 18.000,108.667 21.179,108.402 21.563 C 108.291 21.723,107.391 22.174,106.401 22.564 C 105.412 22.954,104.512 23.391,104.401 23.536 C 104.291 23.681,103.495 24.160,102.633 24.600 C 98.957 26.477,98.188 26.913,97.986 27.232 C 97.868 27.417,97.103 27.848,96.286 28.190 C 95.469 28.531,94.800 28.988,94.800 29.205 C 94.800 29.422,94.616 29.600,94.392 29.600 C 94.168 29.600,93.223 30.090,92.292 30.690 C 91.361 31.289,90.204 31.994,89.719 32.256 C 89.235 32.518,88.605 32.925,88.319 33.161 C 86.627 34.558,83.934 36.400,83.584 36.400 C 83.359 36.400,83.071 36.670,82.945 37.000 C 82.818 37.330,82.527 37.600,82.298 37.600 C 82.070 37.600,81.114 38.230,80.174 39.000 C 79.234 39.770,78.277 40.400,78.047 40.400 C 77.817 40.400,77.435 40.760,77.200 41.200 C 76.965 41.640,76.560 42.000,76.300 42.000 C 76.040 42.000,75.462 42.351,75.014 42.781 C 73.837 43.911,72.801 44.810,70.784 46.453 C 65.040 51.131,53.472 62.420,49.109 67.604 C 48.829 67.937,47.790 69.185,46.800 70.379 C 44.627 72.999,43.808 73.944,42.781 75.014 C 42.351 75.462,42.000 76.040,42.000 76.300 C 42.000 76.560,41.640 76.965,41.200 77.200 C 40.760 77.435,40.400 77.817,40.400 78.047 C 40.400 78.277,39.770 79.234,39.000 80.174 C 38.230 81.114,37.600 82.070,37.600 82.298 C 37.600 82.527,37.330 82.818,37.000 82.945 C 36.670 83.071,36.400 83.359,36.400 83.584 C 36.400 83.954,34.892 86.137,32.797 88.800 C 32.365 89.350,32.008 89.937,32.005 90.103 C 32.002 90.270,31.460 91.152,30.800 92.063 C 30.140 92.975,29.600 93.963,29.600 94.260 C 29.600 94.557,29.422 94.800,29.205 94.800 C 28.988 94.800,28.531 95.469,28.190 96.286 C 27.848 97.103,27.417 97.868,27.232 97.986 C 26.913 98.188,26.477 98.957,24.600 102.633 C 24.160 103.495,23.701 104.290,23.580 104.400 C 23.458 104.510,22.558 106.219,21.580 108.197 C 20.601 110.176,19.602 112.006,19.361 112.265 C 19.120 112.523,18.691 113.560,18.409 114.567 C 18.127 115.575,17.764 116.400,17.603 116.400 C 17.441 116.400,16.998 117.390,16.618 118.600 C 16.237 119.810,15.791 120.800,15.626 120.800 C 15.461 120.800,14.992 121.925,14.583 123.300 C 14.173 124.675,13.721 125.890,13.578 126.000 C 13.435 126.110,12.998 127.190,12.606 128.400 C 12.215 129.610,11.754 130.780,11.583 131.000 C 11.412 131.220,10.990 132.488,10.646 133.818 C 10.302 135.148,9.763 136.768,9.447 137.418 C 9.132 138.068,8.644 139.680,8.362 141.000 C 8.080 142.320,7.732 143.490,7.589 143.600 C 7.446 143.710,6.997 145.420,6.591 147.400 C 6.185 149.380,5.729 151.090,5.578 151.200 C 5.426 151.310,4.983 153.200,4.592 155.400 C 4.201 157.600,3.761 159.490,3.613 159.600 C 3.466 159.710,3.115 161.600,2.834 163.800 C 2.553 166.000,2.187 167.980,2.020 168.200 C 1.854 168.420,1.509 170.670,1.253 173.200 C -0.512 190.696,-0.437 214.056,1.427 227.400 C 2.498 235.073,3.371 240.201,3.639 240.400 C 3.787 240.510,4.230 242.445,4.624 244.700 C 5.017 246.955,5.488 248.800,5.670 248.800 C 5.851 248.800,5.998 249.115,5.995 249.500 C 5.987 250.522,7.322 256.165,7.627 256.400 C 7.769 256.510,8.193 257.991,8.569 259.692 C 8.944 261.393,9.400 262.876,9.582 262.989 C 9.763 263.101,10.222 264.456,10.600 266.000 C 10.978 267.544,11.440 268.901,11.627 269.017 C 11.813 269.132,12.267 270.300,12.636 271.613 C 13.004 272.926,13.447 274.000,13.621 274.000 C 13.794 274.000,14.055 274.585,14.199 275.300 C 14.343 276.015,14.883 277.500,15.399 278.600 C 17.312 282.678,18.701 285.825,18.973 286.700 C 19.128 287.195,19.386 287.600,19.548 287.600 C 19.710 287.600,20.166 288.500,20.561 289.600 C 20.957 290.700,21.407 291.600,21.561 291.600 C 21.716 291.600,22.166 292.500,22.561 293.600 C 22.957 294.700,23.398 295.600,23.543 295.600 C 23.687 295.600,24.063 296.185,24.378 296.900 C 24.693 297.615,25.187 298.438,25.475 298.729 C 25.764 299.019,26.000 299.480,26.000 299.753 C 26.000 300.026,26.317 300.598,26.705 301.025 C 27.093 301.451,27.750 302.565,28.166 303.500 C 28.582 304.435,29.030 305.200,29.163 305.200 C 29.296 305.200,29.634 305.718,29.915 306.352 C 30.195 306.986,30.869 308.021,31.412 308.652 C 31.955 309.283,32.399 310.016,32.400 310.280 C 32.400 310.544,32.627 310.904,32.904 311.080 C 33.181 311.256,33.762 312.075,34.195 312.900 C 34.628 313.725,35.080 314.400,35.200 314.400 C 35.320 314.400,35.757 315.030,36.172 315.800 C 36.587 316.570,37.066 317.200,37.236 317.200 C 37.407 317.200,37.647 317.515,37.771 317.900 C 37.894 318.285,38.401 319.080,38.898 319.666 C 39.394 320.253,40.790 322.036,42.000 323.629 C 43.210 325.222,44.883 327.246,45.717 328.128 C 46.551 329.010,47.364 329.964,47.523 330.248 C 48.536 332.058,61.945 345.829,66.835 350.083 C 68.026 351.118,69.880 352.738,70.956 353.683 C 72.033 354.627,73.282 355.659,73.732 355.976 C 74.183 356.292,74.866 356.832,75.250 357.176 C 76.138 357.968,77.245 358.815,80.000 360.805 C 81.210 361.679,82.485 362.666,82.834 362.997 C 83.182 363.329,83.632 363.600,83.834 363.601 C 84.035 363.601,84.830 364.141,85.600 364.800 C 86.370 365.459,87.107 365.999,87.239 365.999 C 87.370 366.000,87.893 366.360,88.400 366.800 C 88.907 367.240,89.531 367.600,89.786 367.600 C 90.041 367.600,90.604 367.915,91.039 368.300 C 92.261 369.384,95.582 371.600,95.983 371.600 C 96.181 371.600,96.581 371.825,96.871 372.101 C 97.162 372.376,98.117 372.961,98.994 373.401 C 99.871 373.840,100.817 374.414,101.098 374.676 C 101.379 374.937,102.237 375.378,103.004 375.656 C 103.772 375.934,104.400 376.286,104.400 376.440 C 104.400 376.594,105.300 377.043,106.400 377.439 C 107.500 377.834,108.400 378.275,108.400 378.418 C 108.400 378.561,109.165 379.016,110.100 379.428 C 111.035 379.841,111.890 380.288,112.000 380.422 C 112.110 380.556,113.145 381.002,114.300 381.412 C 115.455 381.822,116.400 382.278,116.400 382.424 C 116.400 382.571,117.390 383.002,118.600 383.382 C 119.810 383.763,120.800 384.215,120.800 384.388 C 120.800 384.560,121.970 385.036,123.400 385.445 C 124.830 385.855,126.000 386.318,126.000 386.474 C 126.000 386.631,127.080 387.062,128.400 387.432 C 129.720 387.802,130.800 388.237,130.800 388.398 C 130.800 388.559,131.880 388.920,133.200 389.200 C 134.520 389.480,135.600 389.845,135.600 390.012 C 135.600 390.178,136.905 390.628,138.500 391.012 C 140.095 391.395,141.580 391.844,141.800 392.008 C 142.020 392.172,143.545 392.609,145.189 392.978 C 146.833 393.348,148.363 393.795,148.589 393.972 C 148.815 394.149,150.800 394.608,153.000 394.994 C 155.200 395.379,157.190 395.846,157.423 396.032 C 157.655 396.218,160.085 396.680,162.823 397.058 C 165.560 397.437,167.890 397.869,168.000 398.018 C 169.717 400.346,230.280 400.338,232.000 398.010 C 232.110 397.861,234.447 397.425,237.194 397.041 C 239.941 396.657,242.281 396.212,242.394 396.052 C 242.507 395.891,244.400 395.431,246.600 395.029 C 248.800 394.627,250.780 394.170,251.000 394.013 C 251.220 393.857,252.840 393.401,254.600 393.001 C 256.360 392.601,257.890 392.156,258.000 392.012 C 258.110 391.868,259.191 391.534,260.402 391.268 C 261.614 391.003,263.073 390.544,263.644 390.247 C 264.216 389.950,265.611 389.485,266.743 389.214 C 267.876 388.942,268.898 388.565,269.014 388.377 C 269.131 388.188,270.300 387.733,271.613 387.364 C 272.926 386.996,274.000 386.553,274.000 386.379 C 274.000 386.206,274.585 385.936,275.300 385.779 C 276.015 385.623,277.897 384.889,279.482 384.148 C 281.066 383.406,282.551 382.800,282.782 382.800 C 283.012 382.800,283.200 382.659,283.200 382.487 C 283.200 382.315,284.020 381.933,285.022 381.637 C 286.024 381.341,287.059 380.883,287.322 380.620 C 287.585 380.358,288.655 379.816,289.700 379.417 C 290.745 379.018,291.600 378.571,291.600 378.425 C 291.600 378.278,292.500 377.834,293.600 377.439 C 294.700 377.043,295.600 376.577,295.600 376.403 C 295.600 376.229,296.305 375.805,297.166 375.460 C 298.027 375.116,298.845 374.651,298.983 374.428 C 299.120 374.205,299.991 373.651,300.917 373.197 C 304.345 371.516,305.600 370.786,305.600 370.472 C 305.600 370.294,306.230 369.902,307.000 369.600 C 307.770 369.298,308.400 368.901,308.400 368.719 C 308.400 368.536,309.030 368.087,309.800 367.719 C 310.570 367.352,311.200 366.926,311.200 366.773 C 311.200 366.619,311.515 366.388,311.900 366.258 C 312.934 365.911,314.214 365.013,316.400 363.100 C 316.840 362.715,317.317 362.400,317.461 362.400 C 317.836 362.400,321.135 359.961,322.193 358.900 C 322.687 358.405,323.295 358.000,323.542 358.000 C 323.790 358.000,324.218 357.640,324.493 357.200 C 324.768 356.760,325.206 356.400,325.467 356.400 C 325.728 356.400,326.296 355.950,326.729 355.400 C 327.161 354.850,327.649 354.400,327.813 354.400 C 328.740 354.400,341.835 341.959,347.850 335.364 C 353.336 329.348,354.400 328.122,354.400 327.813 C 354.400 327.649,354.850 327.161,355.400 326.729 C 355.950 326.296,356.400 325.728,356.400 325.467 C 356.400 325.206,356.760 324.768,357.200 324.493 C 357.640 324.218,358.000 323.790,358.000 323.542 C 358.000 323.295,358.405 322.687,358.900 322.193 C 359.961 321.135,362.400 317.836,362.400 317.461 C 362.400 317.317,362.760 316.795,363.200 316.300 C 364.899 314.388,365.912 312.931,366.258 311.900 C 366.388 311.515,366.619 311.200,366.773 311.200 C 366.926 311.200,367.352 310.570,367.719 309.800 C 368.087 309.030,368.536 308.400,368.719 308.400 C 368.901 308.400,369.298 307.770,369.600 307.000 C 369.902 306.230,370.305 305.600,370.495 305.600 C 370.685 305.600,371.117 305.015,371.455 304.300 C 371.793 303.585,372.549 302.175,373.135 301.167 C 373.721 300.158,374.626 298.538,375.147 297.567 C 375.667 296.595,376.320 295.530,376.597 295.200 C 376.875 294.870,377.340 293.925,377.631 293.100 C 377.922 292.275,378.280 291.600,378.426 291.600 C 378.572 291.600,379.018 290.745,379.417 289.700 C 379.816 288.655,380.358 287.585,380.620 287.322 C 380.883 287.059,381.341 286.024,381.637 285.022 C 381.933 284.020,382.315 283.200,382.487 283.200 C 382.659 283.200,382.800 283.012,382.800 282.783 C 382.800 282.554,383.321 281.249,383.957 279.883 C 384.594 278.517,385.342 276.635,385.621 275.700 C 385.899 274.765,386.254 274.000,386.411 274.000 C 386.567 274.000,386.996 272.926,387.364 271.613 C 387.733 270.300,388.188 269.131,388.377 269.014 C 388.565 268.898,388.942 267.876,389.214 266.743 C 389.485 265.611,389.950 264.216,390.247 263.644 C 390.544 263.073,391.003 261.614,391.268 260.402 C 391.534 259.191,391.871 258.110,392.018 258.000 C 392.166 257.890,392.601 256.360,392.987 254.600 C 393.372 252.840,393.825 251.220,393.993 251.000 C 394.161 250.780,394.627 248.800,395.029 246.600 C 395.431 244.400,395.889 242.509,396.046 242.398 C 396.203 242.286,396.629 240.036,396.993 237.398 C 397.357 234.759,397.815 232.240,398.011 231.800 C 400.424 226.391,400.424 173.609,398.011 168.200 C 397.815 167.760,397.360 165.263,397.000 162.651 C 396.640 160.039,396.183 157.609,395.984 157.251 C 395.785 156.893,395.270 154.890,394.838 152.800 C 393.876 148.132,392.505 142.806,392.060 142.000 C 391.877 141.670,391.410 140.095,391.021 138.500 C 390.632 136.905,390.173 135.600,390.001 135.600 C 389.830 135.600,389.563 134.925,389.408 134.100 C 389.254 133.275,388.806 131.880,388.414 131.000 C 388.022 130.120,387.472 128.680,387.192 127.800 C 386.913 126.920,386.566 126.110,386.423 126.000 C 386.279 125.890,385.827 124.675,385.417 123.300 C 385.008 121.925,384.531 120.800,384.357 120.800 C 384.183 120.800,383.729 119.810,383.347 118.600 C 382.966 117.390,382.507 116.400,382.327 116.400 C 382.147 116.400,382.000 116.202,382.000 115.961 C 382.000 115.463,378.779 108.707,378.395 108.400 C 378.257 108.290,377.826 107.391,377.436 106.401 C 377.046 105.412,376.604 104.512,376.453 104.401 C 376.302 104.291,375.841 103.435,375.428 102.500 C 375.016 101.565,374.526 100.800,374.339 100.800 C 374.153 100.800,373.992 100.575,373.983 100.300 C 373.974 100.025,373.166 98.540,372.188 97.000 C 371.209 95.460,370.118 93.677,369.762 93.038 C 369.406 92.398,368.774 91.509,368.357 91.062 C 367.941 90.615,367.600 90.022,367.600 89.744 C 367.600 89.467,367.375 89.096,367.100 88.920 C 366.825 88.744,366.249 87.970,365.820 87.200 C 365.391 86.430,364.716 85.451,364.320 85.025 C 363.924 84.598,363.600 84.116,363.600 83.953 C 363.600 83.790,363.373 83.419,363.095 83.129 C 362.817 82.838,362.265 82.093,361.868 81.474 C 361.472 80.854,360.899 80.044,360.596 79.674 C 360.293 79.303,358.467 77.020,356.539 74.600 C 354.611 72.180,352.846 69.986,352.617 69.725 C 349.235 65.869,347.215 63.734,341.769 58.262 C 335.823 52.287,332.349 49.079,330.243 47.614 C 329.779 47.292,329.072 46.617,328.671 46.114 C 328.270 45.611,327.685 45.200,327.371 45.200 C 327.057 45.200,326.800 45.044,326.800 44.854 C 326.800 44.663,325.945 43.859,324.900 43.067 C 323.855 42.276,322.730 41.386,322.400 41.091 C 322.070 40.796,320.810 39.850,319.600 38.990 C 318.390 38.130,317.310 37.311,317.200 37.169 C 317.090 37.027,316.415 36.612,315.700 36.246 C 314.985 35.879,314.400 35.445,314.400 35.281 C 314.400 35.116,313.725 34.628,312.900 34.195 C 312.075 33.762,311.256 33.181,311.080 32.904 C 310.904 32.627,310.533 32.400,310.256 32.400 C 309.978 32.400,309.402 32.079,308.975 31.687 C 308.549 31.295,307.525 30.656,306.700 30.268 C 305.875 29.880,305.200 29.409,305.200 29.221 C 305.200 29.033,304.391 28.546,303.401 28.140 C 302.412 27.733,301.602 27.292,301.601 27.161 C 301.601 27.029,300.880 26.597,300.000 26.200 C 299.120 25.803,298.400 25.326,298.400 25.139 C 298.400 24.953,298.155 24.800,297.856 24.800 C 297.557 24.800,296.676 24.369,295.899 23.842 C 295.123 23.315,293.838 22.648,293.044 22.361 C 292.250 22.074,291.600 21.720,291.600 21.574 C 291.600 21.428,290.745 20.982,289.700 20.583 C 288.655 20.184,287.585 19.642,287.322 19.380 C 287.059 19.117,286.024 18.659,285.022 18.363 C 284.020 18.067,283.200 17.685,283.200 17.513 C 283.200 17.341,283.012 17.200,282.782 17.200 C 282.551 17.200,281.017 16.570,279.373 15.800 C 277.728 15.030,276.197 14.400,275.969 14.400 C 275.742 14.400,274.776 14.045,273.823 13.610 C 272.870 13.176,271.260 12.599,270.245 12.328 C 269.230 12.056,268.400 11.707,268.400 11.551 C 268.400 11.396,267.050 10.950,265.400 10.561 C 263.750 10.172,262.400 9.722,262.400 9.561 C 262.400 9.400,261.005 8.945,259.300 8.551 C 257.595 8.156,256.110 7.714,256.000 7.568 C 255.890 7.422,254.270 6.978,252.400 6.581 C 250.530 6.184,248.910 5.745,248.800 5.605 C 248.690 5.464,246.710 5.012,244.400 4.600 C 242.090 4.188,240.110 3.738,240.000 3.600 C 239.890 3.462,238.000 3.108,235.800 2.813 C 233.600 2.517,231.530 2.128,231.200 1.948 C 229.150 0.828,194.709 -0.474,186.000 0.239 M202.726 75.568 C 203.097 75.771,212.220 84.697,223.000 95.404 C 233.780 106.111,249.454 121.673,257.832 129.987 C 267.654 139.735,273.252 145.583,273.596 146.452 C 273.889 147.193,274.279 147.971,274.464 148.180 C 274.937 148.715,274.884 151.200,274.400 151.200 C 274.180 151.200,274.000 151.464,274.000 151.786 C 274.000 153.272,272.632 155.154,271.043 155.854 C 270.139 156.252,269.273 156.760,269.119 156.982 C 268.738 157.529,264.035 157.499,263.681 156.947 C 263.527 156.706,262.981 156.377,262.468 156.217 C 261.956 156.057,249.582 143.973,234.970 129.363 C 220.359 114.753,208.133 102.800,207.802 102.800 C 207.267 102.800,207.200 114.848,207.200 210.354 C 207.200 331.690,207.504 320.769,204.056 323.122 C 199.502 326.230,192.400 322.874,192.400 317.616 C 192.400 317.193,192.220 316.736,192.000 316.600 C 191.735 316.436,191.600 280.329,191.600 209.576 C 191.600 150.849,191.476 102.800,191.323 102.800 C 191.171 102.800,179.122 114.717,164.548 129.282 C 149.974 143.847,137.638 155.916,137.136 156.102 C 136.634 156.288,136.099 156.639,135.949 156.883 C 135.605 157.439,130.866 157.534,130.483 156.993 C 130.327 156.772,129.557 156.256,128.772 155.844 C 127.412 155.131,126.000 152.878,126.000 151.421 C 126.000 151.105,125.820 150.736,125.600 150.600 C 125.080 150.278,125.080 148.800,125.600 148.800 C 125.820 148.800,126.000 148.448,126.000 148.019 C 126.000 147.589,126.218 146.759,126.485 146.174 C 127.065 144.900,195.542 76.341,196.874 75.700 C 198.013 75.152,201.808 75.067,202.726 75.568 " stroke="none" fill="#ffffff" fill-rule="evenodd"></path></g></svg>