<svg id="svg" version="1.1" width="400" height="400.4065040650406" xmlns="http://www.w3.org/2000/svg" xmlns:xlink="http://www.w3.org/1999/xlink" style="display: block;"><g id="svgg"><path id="path0" d="M185.200 0.428 C 164.360 2.171,144.821 6.474,128.600 12.893 C 126.400 13.763,123.790 14.747,122.800 15.079 C 120.691 15.787,105.535 23.076,105.217 23.536 C 104.931 23.949,100.738 26.440,98.129 27.747 C 94.024 29.803,82.858 37.377,76.800 42.215 C 75.370 43.357,73.964 44.365,73.675 44.454 C 71.894 45.006,45.431 71.473,44.839 73.294 C 44.749 73.572,43.650 75.060,42.396 76.600 C 37.223 82.957,30.206 93.440,26.780 99.929 C 25.581 102.199,24.265 104.418,23.856 104.859 C 22.991 105.791,15.971 120.141,15.079 122.800 C 14.747 123.790,13.759 126.400,12.883 128.600 C -2.283 166.699,-4.165 216.205,7.975 257.658 C 10.005 264.589,13.883 275.441,16.388 281.200 C 17.997 284.899,23.198 295.327,23.570 295.600 C 23.949 295.879,25.228 298.053,27.173 301.727 C 29.308 305.761,35.437 315.053,39.454 320.346 C 41.184 322.626,42.779 324.786,42.998 325.146 C 45.774 329.705,69.404 353.634,73.664 356.200 C 74.030 356.420,76.550 358.288,79.264 360.351 C 85.277 364.920,94.439 371.008,98.602 373.201 C 100.294 374.092,101.943 375.086,102.266 375.409 C 103.623 376.766,118.592 383.995,124.800 386.292 C 138.429 391.334,143.605 392.945,153.296 395.165 C 197.416 405.269,243.724 400.874,283.600 382.797 C 289.358 380.186,298.000 375.636,298.000 375.214 C 298.000 375.040,298.585 374.662,299.300 374.374 C 302.348 373.148,312.331 366.691,319.600 361.246 C 322.130 359.351,324.470 357.685,324.800 357.545 C 328.060 356.157,357.200 326.875,357.200 324.987 C 357.200 324.835,357.887 323.876,358.726 322.856 C 363.213 317.398,372.521 303.258,373.968 299.700 C 374.259 298.985,374.640 298.400,374.814 298.400 C 375.236 298.400,379.786 289.758,382.397 284.000 C 407.454 228.725,405.726 160.926,377.902 107.700 C 376.378 104.785,375.005 102.400,374.851 102.400 C 374.698 102.400,374.038 101.367,373.386 100.104 C 370.389 94.304,363.031 83.299,357.750 76.721 C 356.568 75.248,355.600 73.917,355.600 73.764 C 355.600 72.361,330.075 46.877,325.587 43.800 C 324.625 43.140,321.976 41.203,319.701 39.496 C 314.238 35.398,304.718 29.141,300.876 27.124 C 297.360 25.278,295.090 23.957,294.800 23.588 C 294.062 22.649,280.533 16.245,274.800 14.120 C 258.475 8.072,249.186 5.465,234.600 2.839 C 220.908 0.373,198.768 -0.707,185.200 0.428 M214.400 18.193 C 228.163 19.420,250.879 23.656,252.000 25.204 C 252.110 25.356,254.540 26.254,257.400 27.199 C 265.572 29.900,276.850 34.563,283.400 37.948 C 291.217 41.989,303.366 49.192,303.677 49.971 C 303.745 50.140,305.150 51.235,306.800 52.406 C 320.965 62.452,333.856 74.876,344.564 88.800 C 346.002 90.670,347.596 92.650,348.105 93.200 C 349.211 94.393,352.800 99.397,352.800 99.747 C 352.800 99.882,353.639 101.299,354.664 102.896 C 361.576 113.666,367.242 125.207,371.997 138.200 C 372.721 140.180,373.448 141.890,373.611 142.000 C 374.425 142.549,378.777 159.152,380.374 167.800 C 384.153 188.271,384.088 212.650,380.196 233.700 C 378.518 242.776,374.466 258.222,373.611 258.800 C 373.449 258.910,373.089 259.720,372.811 260.600 C 368.800 273.304,352.512 304.634,348.377 307.600 C 348.224 307.710,346.636 309.681,344.848 311.981 C 333.935 326.022,325.610 334.338,311.400 345.392 C 309.200 347.104,307.310 348.628,307.200 348.780 C 304.170 352.959,273.122 369.096,260.200 373.207 C 259.320 373.487,258.510 373.849,258.400 374.011 C 257.779 374.929,242.101 379.001,232.400 380.764 C 212.619 384.360,189.554 384.508,169.800 381.167 C 159.876 379.488,142.434 375.075,141.600 374.031 C 141.490 373.893,139.780 373.183,137.800 372.453 C 126.767 368.384,115.216 362.912,106.400 357.576 C 103.430 355.779,100.370 353.949,99.600 353.511 C 97.977 352.586,93.095 349.181,92.800 348.768 C 92.690 348.613,90.710 347.009,88.400 345.202 C 86.090 343.395,82.343 340.270,80.074 338.258 C 77.804 336.246,75.262 334.108,74.425 333.508 C 71.276 331.250,59.804 318.179,53.302 309.442 C 51.657 307.231,50.084 305.238,49.808 305.011 C 49.214 304.525,46.399 300.317,45.520 298.600 C 45.182 297.940,43.700 295.420,42.227 293.000 C 36.814 284.104,30.318 269.730,26.593 258.400 C 25.761 255.870,24.940 253.707,24.768 253.594 C 24.361 253.325,21.524 242.019,20.225 235.489 C 15.955 214.023,15.738 189.593,19.627 168.200 C 20.584 162.941,24.386 147.484,24.793 147.200 C 24.951 147.090,25.672 145.200,26.395 143.000 C 27.599 139.337,29.562 134.247,32.797 126.400 C 35.222 120.520,41.709 108.391,45.206 103.200 C 46.021 101.990,47.054 100.280,47.503 99.400 C 47.951 98.520,48.747 97.338,49.271 96.774 C 49.795 96.210,51.778 93.690,53.678 91.174 C 58.682 84.547,65.160 77.020,70.634 71.476 C 75.901 66.140,85.447 58.063,92.307 53.136 C 94.228 51.756,96.282 50.153,96.872 49.573 C 97.461 48.992,98.631 48.194,99.472 47.799 C 100.312 47.403,101.990 46.417,103.200 45.607 C 105.885 43.810,114.235 39.089,118.632 36.882 C 123.816 34.280,136.052 29.358,143.200 26.999 C 145.730 26.164,147.890 25.357,148.000 25.206 C 148.339 24.741,163.070 21.293,169.200 20.244 C 183.947 17.720,200.620 16.964,214.400 18.193 M197.800 75.569 C 194.522 76.473,193.148 77.656,180.798 90.200 C 121.055 150.881,125.600 145.907,125.600 150.607 C 125.600 156.793,130.522 160.438,136.600 158.752 C 137.966 158.373,142.063 154.450,164.600 131.941 L 191.000 105.574 191.200 212.687 C 191.390 314.369,191.436 319.866,192.111 321.102 C 194.680 325.804,204.057 326.218,207.443 321.779 L 208.600 320.262 208.702 212.698 L 208.804 105.133 235.102 131.553 C 264.014 160.598,262.749 159.514,267.134 159.024 C 270.714 158.623,273.630 156.351,274.185 153.530 C 274.329 152.798,274.661 151.766,274.923 151.235 C 275.298 150.476,275.293 150.233,274.900 150.101 C 274.625 150.009,274.400 149.399,274.400 148.747 C 274.400 146.156,274.899 146.707,245.624 117.000 C 239.336 110.620,227.953 99.055,220.327 91.299 C 204.449 75.151,202.995 74.136,197.800 75.569 " stroke="none" fill="#ffffff" fill-rule="evenodd"></path><path id="path1" d="M185.200 0.428 C 164.360 2.171,144.821 6.474,128.600 12.893 C 126.400 13.763,123.790 14.747,122.800 15.079 C 120.691 15.787,105.535 23.076,105.217 23.536 C 104.931 23.949,100.738 26.440,98.129 27.747 C 94.024 29.803,82.858 37.377,76.800 42.215 C 75.370 43.357,73.964 44.365,73.675 44.454 C 71.894 45.006,45.431 71.473,44.839 73.294 C 44.749 73.572,43.650 75.060,42.396 76.600 C 37.223 82.957,30.206 93.440,26.780 99.929 C 25.581 102.199,24.265 104.418,23.856 104.859 C 22.991 105.791,15.971 120.141,15.079 122.800 C 14.747 123.790,13.759 126.400,12.883 128.600 C -2.283 166.699,-4.165 216.205,7.975 257.658 C 10.005 264.589,13.883 275.441,16.388 281.200 C 17.997 284.899,23.198 295.327,23.570 295.600 C 23.949 295.879,25.228 298.053,27.173 301.727 C 29.308 305.761,35.437 315.053,39.454 320.346 C 41.184 322.626,42.779 324.786,42.998 325.146 C 45.774 329.705,69.404 353.634,73.664 356.200 C 74.030 356.420,76.550 358.288,79.264 360.351 C 85.277 364.920,94.439 371.008,98.602 373.201 C 100.294 374.092,101.943 375.086,102.266 375.409 C 103.623 376.766,118.592 383.995,124.800 386.292 C 138.429 391.334,143.605 392.945,153.296 395.165 C 197.416 405.269,243.724 400.874,283.600 382.797 C 289.358 380.186,298.000 375.636,298.000 375.214 C 298.000 375.040,298.585 374.662,299.300 374.374 C 302.348 373.148,312.331 366.691,319.600 361.246 C 322.130 359.351,324.470 357.685,324.800 357.545 C 328.060 356.157,357.200 326.875,357.200 324.987 C 357.200 324.835,357.887 323.876,358.726 322.856 C 363.213 317.398,372.521 303.258,373.968 299.700 C 374.259 298.985,374.640 298.400,374.814 298.400 C 375.236 298.400,379.786 289.758,382.397 284.000 C 407.454 228.725,405.726 160.926,377.902 107.700 C 376.378 104.785,375.005 102.400,374.851 102.400 C 374.698 102.400,374.038 101.367,373.386 100.104 C 370.389 94.304,363.031 83.299,357.750 76.721 C 356.568 75.248,355.600 73.917,355.600 73.764 C 355.600 72.361,330.075 46.877,325.587 43.800 C 324.625 43.140,321.976 41.203,319.701 39.496 C 314.238 35.398,304.718 29.141,300.876 27.124 C 297.360 25.278,295.090 23.957,294.800 23.588 C 294.062 22.649,280.533 16.245,274.800 14.120 C 258.475 8.072,249.186 5.465,234.600 2.839 C 220.908 0.373,198.768 -0.707,185.200 0.428 M214.400 18.193 C 228.163 19.420,250.879 23.656,252.000 25.204 C 252.110 25.356,254.540 26.254,257.400 27.199 C 265.572 29.900,276.850 34.563,283.400 37.948 C 291.217 41.989,303.366 49.192,303.677 49.971 C 303.745 50.140,305.150 51.235,306.800 52.406 C 320.965 62.452,333.856 74.876,344.564 88.800 C 346.002 90.670,347.596 92.650,348.105 93.200 C 349.211 94.393,352.800 99.397,352.800 99.747 C 352.800 99.882,353.639 101.299,354.664 102.896 C 361.576 113.666,367.242 125.207,371.997 138.200 C 372.721 140.180,373.448 141.890,373.611 142.000 C 374.425 142.549,378.777 159.152,380.374 167.800 C 384.153 188.271,384.088 212.650,380.196 233.700 C 378.518 242.776,374.466 258.222,373.611 258.800 C 373.449 258.910,373.089 259.720,372.811 260.600 C 368.800 273.304,352.512 304.634,348.377 307.600 C 348.224 307.710,346.636 309.681,344.848 311.981 C 333.935 326.022,325.610 334.338,311.400 345.392 C 309.200 347.104,307.310 348.628,307.200 348.780 C 304.170 352.959,273.122 369.096,260.200 373.207 C 259.320 373.487,258.510 373.849,258.400 374.011 C 257.779 374.929,242.101 379.001,232.400 380.764 C 212.619 384.360,189.554 384.508,169.800 381.167 C 159.876 379.488,142.434 375.075,141.600 374.031 C 141.490 373.893,139.780 373.183,137.800 372.453 C 126.767 368.384,115.216 362.912,106.400 357.576 C 103.430 355.779,100.370 353.949,99.600 353.511 C 97.977 352.586,93.095 349.181,92.800 348.768 C 92.690 348.613,90.710 347.009,88.400 345.202 C 86.090 343.395,82.343 340.270,80.074 338.258 C 77.804 336.246,75.262 334.108,74.425 333.508 C 71.276 331.250,59.804 318.179,53.302 309.442 C 51.657 307.231,50.084 305.238,49.808 305.011 C 49.214 304.525,46.399 300.317,45.520 298.600 C 45.182 297.940,43.700 295.420,42.227 293.000 C 36.814 284.104,30.318 269.730,26.593 258.400 C 25.761 255.870,24.940 253.707,24.768 253.594 C 24.361 253.325,21.524 242.019,20.225 235.489 C 15.955 214.023,15.738 189.593,19.627 168.200 C 20.584 162.941,24.386 147.484,24.793 147.200 C 24.951 147.090,25.672 145.200,26.395 143.000 C 27.599 139.337,29.562 134.247,32.797 126.400 C 35.222 120.520,41.709 108.391,45.206 103.200 C 46.021 101.990,47.054 100.280,47.503 99.400 C 47.951 98.520,48.747 97.338,49.271 96.774 C 49.795 96.210,51.778 93.690,53.678 91.174 C 58.682 84.547,65.160 77.020,70.634 71.476 C 75.901 66.140,85.447 58.063,92.307 53.136 C 94.228 51.756,96.282 50.153,96.872 49.573 C 97.461 48.992,98.631 48.194,99.472 47.799 C 100.312 47.403,101.990 46.417,103.200 45.607 C 105.885 43.810,114.235 39.089,118.632 36.882 C 123.816 34.280,136.052 29.358,143.200 26.999 C 145.730 26.164,147.890 25.357,148.000 25.206 C 148.339 24.741,163.070 21.293,169.200 20.244 C 183.947 17.720,200.620 16.964,214.400 18.193 M197.800 75.569 C 194.522 76.473,193.148 77.656,180.798 90.200 C 121.055 150.881,125.600 145.907,125.600 150.607 C 125.600 156.793,130.522 160.438,136.600 158.752 C 137.966 158.373,142.063 154.450,164.600 131.941 L 191.000 105.574 191.200 212.687 C 191.390 314.369,191.436 319.866,192.111 321.102 C 194.680 325.804,204.057 326.218,207.443 321.779 L 208.600 320.262 208.702 212.698 L 208.804 105.133 235.102 131.553 C 264.014 160.598,262.749 159.514,267.134 159.024 C 270.714 158.623,273.630 156.351,274.185 153.530 C 274.329 152.798,274.661 151.766,274.923 151.235 C 275.298 150.476,275.293 150.233,274.900 150.101 C 274.625 150.009,274.400 149.399,274.400 148.747 C 274.400 146.156,274.899 146.707,245.624 117.000 C 239.336 110.620,227.953 99.055,220.327 91.299 C 204.449 75.151,202.995 74.136,197.800 75.569 " stroke="none" fill="#ffffff" fill-rule="evenodd"></path><path id="path2" d="M185.200 0.428 C 164.360 2.171,144.821 6.474,128.600 12.893 C 126.400 13.763,123.790 14.747,122.800 15.079 C 120.691 15.787,105.535 23.076,105.217 23.536 C 104.931 23.949,100.738 26.440,98.129 27.747 C 94.024 29.803,82.858 37.377,76.800 42.215 C 75.370 43.357,73.964 44.365,73.675 44.454 C 71.894 45.006,45.431 71.473,44.839 73.294 C 44.749 73.572,43.650 75.060,42.396 76.600 C 37.223 82.957,30.206 93.440,26.780 99.929 C 25.581 102.199,24.265 104.418,23.856 104.859 C 22.991 105.791,15.971 120.141,15.079 122.800 C 14.747 123.790,13.759 126.400,12.883 128.600 C -2.283 166.699,-4.165 216.205,7.975 257.658 C 10.005 264.589,13.883 275.441,16.388 281.200 C 17.997 284.899,23.198 295.327,23.570 295.600 C 23.949 295.879,25.228 298.053,27.173 301.727 C 29.308 305.761,35.437 315.053,39.454 320.346 C 41.184 322.626,42.779 324.786,42.998 325.146 C 45.774 329.705,69.404 353.634,73.664 356.200 C 74.030 356.420,76.550 358.288,79.264 360.351 C 85.277 364.920,94.439 371.008,98.602 373.201 C 100.294 374.092,101.943 375.086,102.266 375.409 C 103.623 376.766,118.592 383.995,124.800 386.292 C 138.429 391.334,143.605 392.945,153.296 395.165 C 197.416 405.269,243.724 400.874,283.600 382.797 C 289.358 380.186,298.000 375.636,298.000 375.214 C 298.000 375.040,298.585 374.662,299.300 374.374 C 302.348 373.148,312.331 366.691,319.600 361.246 C 322.130 359.351,324.470 357.685,324.800 357.545 C 328.060 356.157,357.200 326.875,357.200 324.987 C 357.200 324.835,357.887 323.876,358.726 322.856 C 363.213 317.398,372.521 303.258,373.968 299.700 C 374.259 298.985,374.640 298.400,374.814 298.400 C 375.236 298.400,379.786 289.758,382.397 284.000 C 407.454 228.725,405.726 160.926,377.902 107.700 C 376.378 104.785,375.005 102.400,374.851 102.400 C 374.698 102.400,374.038 101.367,373.386 100.104 C 370.389 94.304,363.031 83.299,357.750 76.721 C 356.568 75.248,355.600 73.917,355.600 73.764 C 355.600 72.361,330.075 46.877,325.587 43.800 C 324.625 43.140,321.976 41.203,319.701 39.496 C 314.238 35.398,304.718 29.141,300.876 27.124 C 297.360 25.278,295.090 23.957,294.800 23.588 C 294.062 22.649,280.533 16.245,274.800 14.120 C 258.475 8.072,249.186 5.465,234.600 2.839 C 220.908 0.373,198.768 -0.707,185.200 0.428 M214.400 18.193 C 228.163 19.420,250.879 23.656,252.000 25.204 C 252.110 25.356,254.540 26.254,257.400 27.199 C 265.572 29.900,276.850 34.563,283.400 37.948 C 291.217 41.989,303.366 49.192,303.677 49.971 C 303.745 50.140,305.150 51.235,306.800 52.406 C 320.965 62.452,333.856 74.876,344.564 88.800 C 346.002 90.670,347.596 92.650,348.105 93.200 C 349.211 94.393,352.800 99.397,352.800 99.747 C 352.800 99.882,353.639 101.299,354.664 102.896 C 361.576 113.666,367.242 125.207,371.997 138.200 C 372.721 140.180,373.448 141.890,373.611 142.000 C 374.425 142.549,378.777 159.152,380.374 167.800 C 384.153 188.271,384.088 212.650,380.196 233.700 C 378.518 242.776,374.466 258.222,373.611 258.800 C 373.449 258.910,373.089 259.720,372.811 260.600 C 368.800 273.304,352.512 304.634,348.377 307.600 C 348.224 307.710,346.636 309.681,344.848 311.981 C 333.935 326.022,325.610 334.338,311.400 345.392 C 309.200 347.104,307.310 348.628,307.200 348.780 C 304.170 352.959,273.122 369.096,260.200 373.207 C 259.320 373.487,258.510 373.849,258.400 374.011 C 257.779 374.929,242.101 379.001,232.400 380.764 C 212.619 384.360,189.554 384.508,169.800 381.167 C 159.876 379.488,142.434 375.075,141.600 374.031 C 141.490 373.893,139.780 373.183,137.800 372.453 C 126.767 368.384,115.216 362.912,106.400 357.576 C 103.430 355.779,100.370 353.949,99.600 353.511 C 97.977 352.586,93.095 349.181,92.800 348.768 C 92.690 348.613,90.710 347.009,88.400 345.202 C 86.090 343.395,82.343 340.270,80.074 338.258 C 77.804 336.246,75.262 334.108,74.425 333.508 C 71.276 331.250,59.804 318.179,53.302 309.442 C 51.657 307.231,50.084 305.238,49.808 305.011 C 49.214 304.525,46.399 300.317,45.520 298.600 C 45.182 297.940,43.700 295.420,42.227 293.000 C 36.814 284.104,30.318 269.730,26.593 258.400 C 25.761 255.870,24.940 253.707,24.768 253.594 C 24.361 253.325,21.524 242.019,20.225 235.489 C 15.955 214.023,15.738 189.593,19.627 168.200 C 20.584 162.941,24.386 147.484,24.793 147.200 C 24.951 147.090,25.672 145.200,26.395 143.000 C 27.599 139.337,29.562 134.247,32.797 126.400 C 35.222 120.520,41.709 108.391,45.206 103.200 C 46.021 101.990,47.054 100.280,47.503 99.400 C 47.951 98.520,48.747 97.338,49.271 96.774 C 49.795 96.210,51.778 93.690,53.678 91.174 C 58.682 84.547,65.160 77.020,70.634 71.476 C 75.901 66.140,85.447 58.063,92.307 53.136 C 94.228 51.756,96.282 50.153,96.872 49.573 C 97.461 48.992,98.631 48.194,99.472 47.799 C 100.312 47.403,101.990 46.417,103.200 45.607 C 105.885 43.810,114.235 39.089,118.632 36.882 C 123.816 34.280,136.052 29.358,143.200 26.999 C 145.730 26.164,147.890 25.357,148.000 25.206 C 148.339 24.741,163.070 21.293,169.200 20.244 C 183.947 17.720,200.620 16.964,214.400 18.193 M197.800 75.569 C 194.522 76.473,193.148 77.656,180.798 90.200 C 121.055 150.881,125.600 145.907,125.600 150.607 C 125.600 156.793,130.522 160.438,136.600 158.752 C 137.966 158.373,142.063 154.450,164.600 131.941 L 191.000 105.574 191.200 212.687 C 191.390 314.369,191.436 319.866,192.111 321.102 C 194.680 325.804,204.057 326.218,207.443 321.779 L 208.600 320.262 208.702 212.698 L 208.804 105.133 235.102 131.553 C 264.014 160.598,262.749 159.514,267.134 159.024 C 270.714 158.623,273.630 156.351,274.185 153.530 C 274.329 152.798,274.661 151.766,274.923 151.235 C 275.298 150.476,275.293 150.233,274.900 150.101 C 274.625 150.009,274.400 149.399,274.400 148.747 C 274.400 146.156,274.899 146.707,245.624 117.000 C 239.336 110.620,227.953 99.055,220.327 91.299 C 204.449 75.151,202.995 74.136,197.800 75.569 " stroke="none" fill="#ffffff" fill-rule="evenodd"></path><path id="path3" d="M185.200 0.428 C 164.360 2.171,144.821 6.474,128.600 12.893 C 126.400 13.763,123.790 14.747,122.800 15.079 C 120.691 15.787,105.535 23.076,105.217 23.536 C 104.931 23.949,100.738 26.440,98.129 27.747 C 94.024 29.803,82.858 37.377,76.800 42.215 C 75.370 43.357,73.964 44.365,73.675 44.454 C 71.894 45.006,45.431 71.473,44.839 73.294 C 44.749 73.572,43.650 75.060,42.396 76.600 C 37.223 82.957,30.206 93.440,26.780 99.929 C 25.581 102.199,24.265 104.418,23.856 104.859 C 22.991 105.791,15.971 120.141,15.079 122.800 C 14.747 123.790,13.759 126.400,12.883 128.600 C -2.283 166.699,-4.165 216.205,7.975 257.658 C 10.005 264.589,13.883 275.441,16.388 281.200 C 17.997 284.899,23.198 295.327,23.570 295.600 C 23.949 295.879,25.228 298.053,27.173 301.727 C 29.308 305.761,35.437 315.053,39.454 320.346 C 41.184 322.626,42.779 324.786,42.998 325.146 C 45.774 329.705,69.404 353.634,73.664 356.200 C 74.030 356.420,76.550 358.288,79.264 360.351 C 85.277 364.920,94.439 371.008,98.602 373.201 C 100.294 374.092,101.943 375.086,102.266 375.409 C 103.623 376.766,118.592 383.995,124.800 386.292 C 138.429 391.334,143.605 392.945,153.296 395.165 C 197.416 405.269,243.724 400.874,283.600 382.797 C 289.358 380.186,298.000 375.636,298.000 375.214 C 298.000 375.040,298.585 374.662,299.300 374.374 C 302.348 373.148,312.331 366.691,319.600 361.246 C 322.130 359.351,324.470 357.685,324.800 357.545 C 328.060 356.157,357.200 326.875,357.200 324.987 C 357.200 324.835,357.887 323.876,358.726 322.856 C 363.213 317.398,372.521 303.258,373.968 299.700 C 374.259 298.985,374.640 298.400,374.814 298.400 C 375.236 298.400,379.786 289.758,382.397 284.000 C 407.454 228.725,405.726 160.926,377.902 107.700 C 376.378 104.785,375.005 102.400,374.851 102.400 C 374.698 102.400,374.038 101.367,373.386 100.104 C 370.389 94.304,363.031 83.299,357.750 76.721 C 356.568 75.248,355.600 73.917,355.600 73.764 C 355.600 72.361,330.075 46.877,325.587 43.800 C 324.625 43.140,321.976 41.203,319.701 39.496 C 314.238 35.398,304.718 29.141,300.876 27.124 C 297.360 25.278,295.090 23.957,294.800 23.588 C 294.062 22.649,280.533 16.245,274.800 14.120 C 258.475 8.072,249.186 5.465,234.600 2.839 C 220.908 0.373,198.768 -0.707,185.200 0.428 M214.400 18.193 C 228.163 19.420,250.879 23.656,252.000 25.204 C 252.110 25.356,254.540 26.254,257.400 27.199 C 265.572 29.900,276.850 34.563,283.400 37.948 C 291.217 41.989,303.366 49.192,303.677 49.971 C 303.745 50.140,305.150 51.235,306.800 52.406 C 320.965 62.452,333.856 74.876,344.564 88.800 C 346.002 90.670,347.596 92.650,348.105 93.200 C 349.211 94.393,352.800 99.397,352.800 99.747 C 352.800 99.882,353.639 101.299,354.664 102.896 C 361.576 113.666,367.242 125.207,371.997 138.200 C 372.721 140.180,373.448 141.890,373.611 142.000 C 374.425 142.549,378.777 159.152,380.374 167.800 C 384.153 188.271,384.088 212.650,380.196 233.700 C 378.518 242.776,374.466 258.222,373.611 258.800 C 373.449 258.910,373.089 259.720,372.811 260.600 C 368.800 273.304,352.512 304.634,348.377 307.600 C 348.224 307.710,346.636 309.681,344.848 311.981 C 333.935 326.022,325.610 334.338,311.400 345.392 C 309.200 347.104,307.310 348.628,307.200 348.780 C 304.170 352.959,273.122 369.096,260.200 373.207 C 259.320 373.487,258.510 373.849,258.400 374.011 C 257.779 374.929,242.101 379.001,232.400 380.764 C 212.619 384.360,189.554 384.508,169.800 381.167 C 159.876 379.488,142.434 375.075,141.600 374.031 C 141.490 373.893,139.780 373.183,137.800 372.453 C 126.767 368.384,115.216 362.912,106.400 357.576 C 103.430 355.779,100.370 353.949,99.600 353.511 C 97.977 352.586,93.095 349.181,92.800 348.768 C 92.690 348.613,90.710 347.009,88.400 345.202 C 86.090 343.395,82.343 340.270,80.074 338.258 C 77.804 336.246,75.262 334.108,74.425 333.508 C 71.276 331.250,59.804 318.179,53.302 309.442 C 51.657 307.231,50.084 305.238,49.808 305.011 C 49.214 304.525,46.399 300.317,45.520 298.600 C 45.182 297.940,43.700 295.420,42.227 293.000 C 36.814 284.104,30.318 269.730,26.593 258.400 C 25.761 255.870,24.940 253.707,24.768 253.594 C 24.361 253.325,21.524 242.019,20.225 235.489 C 15.955 214.023,15.738 189.593,19.627 168.200 C 20.584 162.941,24.386 147.484,24.793 147.200 C 24.951 147.090,25.672 145.200,26.395 143.000 C 27.599 139.337,29.562 134.247,32.797 126.400 C 35.222 120.520,41.709 108.391,45.206 103.200 C 46.021 101.990,47.054 100.280,47.503 99.400 C 47.951 98.520,48.747 97.338,49.271 96.774 C 49.795 96.210,51.778 93.690,53.678 91.174 C 58.682 84.547,65.160 77.020,70.634 71.476 C 75.901 66.140,85.447 58.063,92.307 53.136 C 94.228 51.756,96.282 50.153,96.872 49.573 C 97.461 48.992,98.631 48.194,99.472 47.799 C 100.312 47.403,101.990 46.417,103.200 45.607 C 105.885 43.810,114.235 39.089,118.632 36.882 C 123.816 34.280,136.052 29.358,143.200 26.999 C 145.730 26.164,147.890 25.357,148.000 25.206 C 148.339 24.741,163.070 21.293,169.200 20.244 C 183.947 17.720,200.620 16.964,214.400 18.193 M197.800 75.569 C 194.522 76.473,193.148 77.656,180.798 90.200 C 121.055 150.881,125.600 145.907,125.600 150.607 C 125.600 156.793,130.522 160.438,136.600 158.752 C 137.966 158.373,142.063 154.450,164.600 131.941 L 191.000 105.574 191.200 212.687 C 191.390 314.369,191.436 319.866,192.111 321.102 C 194.680 325.804,204.057 326.218,207.443 321.779 L 208.600 320.262 208.702 212.698 L 208.804 105.133 235.102 131.553 C 264.014 160.598,262.749 159.514,267.134 159.024 C 270.714 158.623,273.630 156.351,274.185 153.530 C 274.329 152.798,274.661 151.766,274.923 151.235 C 275.298 150.476,275.293 150.233,274.900 150.101 C 274.625 150.009,274.400 149.399,274.400 148.747 C 274.400 146.156,274.899 146.707,245.624 117.000 C 239.336 110.620,227.953 99.055,220.327 91.299 C 204.449 75.151,202.995 74.136,197.800 75.569 " stroke="none" fill="#ffffff" fill-rule="evenodd"></path><path id="path4" d="M185.200 0.428 C 164.360 2.171,144.821 6.474,128.600 12.893 C 126.400 13.763,123.790 14.747,122.800 15.079 C 120.691 15.787,105.535 23.076,105.217 23.536 C 104.931 23.949,100.738 26.440,98.129 27.747 C 94.024 29.803,82.858 37.377,76.800 42.215 C 75.370 43.357,73.964 44.365,73.675 44.454 C 71.894 45.006,45.431 71.473,44.839 73.294 C 44.749 73.572,43.650 75.060,42.396 76.600 C 37.223 82.957,30.206 93.440,26.780 99.929 C 25.581 102.199,24.265 104.418,23.856 104.859 C 22.991 105.791,15.971 120.141,15.079 122.800 C 14.747 123.790,13.759 126.400,12.883 128.600 C -2.283 166.699,-4.165 216.205,7.975 257.658 C 10.005 264.589,13.883 275.441,16.388 281.200 C 17.997 284.899,23.198 295.327,23.570 295.600 C 23.949 295.879,25.228 298.053,27.173 301.727 C 29.308 305.761,35.437 315.053,39.454 320.346 C 41.184 322.626,42.779 324.786,42.998 325.146 C 45.774 329.705,69.404 353.634,73.664 356.200 C 74.030 356.420,76.550 358.288,79.264 360.351 C 85.277 364.920,94.439 371.008,98.602 373.201 C 100.294 374.092,101.943 375.086,102.266 375.409 C 103.623 376.766,118.592 383.995,124.800 386.292 C 138.429 391.334,143.605 392.945,153.296 395.165 C 197.416 405.269,243.724 400.874,283.600 382.797 C 289.358 380.186,298.000 375.636,298.000 375.214 C 298.000 375.040,298.585 374.662,299.300 374.374 C 302.348 373.148,312.331 366.691,319.600 361.246 C 322.130 359.351,324.470 357.685,324.800 357.545 C 328.060 356.157,357.200 326.875,357.200 324.987 C 357.200 324.835,357.887 323.876,358.726 322.856 C 363.213 317.398,372.521 303.258,373.968 299.700 C 374.259 298.985,374.640 298.400,374.814 298.400 C 375.236 298.400,379.786 289.758,382.397 284.000 C 407.454 228.725,405.726 160.926,377.902 107.700 C 376.378 104.785,375.005 102.400,374.851 102.400 C 374.698 102.400,374.038 101.367,373.386 100.104 C 370.389 94.304,363.031 83.299,357.750 76.721 C 356.568 75.248,355.600 73.917,355.600 73.764 C 355.600 72.361,330.075 46.877,325.587 43.800 C 324.625 43.140,321.976 41.203,319.701 39.496 C 314.238 35.398,304.718 29.141,300.876 27.124 C 297.360 25.278,295.090 23.957,294.800 23.588 C 294.062 22.649,280.533 16.245,274.800 14.120 C 258.475 8.072,249.186 5.465,234.600 2.839 C 220.908 0.373,198.768 -0.707,185.200 0.428 M214.400 18.193 C 228.163 19.420,250.879 23.656,252.000 25.204 C 252.110 25.356,254.540 26.254,257.400 27.199 C 265.572 29.900,276.850 34.563,283.400 37.948 C 291.217 41.989,303.366 49.192,303.677 49.971 C 303.745 50.140,305.150 51.235,306.800 52.406 C 320.965 62.452,333.856 74.876,344.564 88.800 C 346.002 90.670,347.596 92.650,348.105 93.200 C 349.211 94.393,352.800 99.397,352.800 99.747 C 352.800 99.882,353.639 101.299,354.664 102.896 C 361.576 113.666,367.242 125.207,371.997 138.200 C 372.721 140.180,373.448 141.890,373.611 142.000 C 374.425 142.549,378.777 159.152,380.374 167.800 C 384.153 188.271,384.088 212.650,380.196 233.700 C 378.518 242.776,374.466 258.222,373.611 258.800 C 373.449 258.910,373.089 259.720,372.811 260.600 C 368.800 273.304,352.512 304.634,348.377 307.600 C 348.224 307.710,346.636 309.681,344.848 311.981 C 333.935 326.022,325.610 334.338,311.400 345.392 C 309.200 347.104,307.310 348.628,307.200 348.780 C 304.170 352.959,273.122 369.096,260.200 373.207 C 259.320 373.487,258.510 373.849,258.400 374.011 C 257.779 374.929,242.101 379.001,232.400 380.764 C 212.619 384.360,189.554 384.508,169.800 381.167 C 159.876 379.488,142.434 375.075,141.600 374.031 C 141.490 373.893,139.780 373.183,137.800 372.453 C 126.767 368.384,115.216 362.912,106.400 357.576 C 103.430 355.779,100.370 353.949,99.600 353.511 C 97.977 352.586,93.095 349.181,92.800 348.768 C 92.690 348.613,90.710 347.009,88.400 345.202 C 86.090 343.395,82.343 340.270,80.074 338.258 C 77.804 336.246,75.262 334.108,74.425 333.508 C 71.276 331.250,59.804 318.179,53.302 309.442 C 51.657 307.231,50.084 305.238,49.808 305.011 C 49.214 304.525,46.399 300.317,45.520 298.600 C 45.182 297.940,43.700 295.420,42.227 293.000 C 36.814 284.104,30.318 269.730,26.593 258.400 C 25.761 255.870,24.940 253.707,24.768 253.594 C 24.361 253.325,21.524 242.019,20.225 235.489 C 15.955 214.023,15.738 189.593,19.627 168.200 C 20.584 162.941,24.386 147.484,24.793 147.200 C 24.951 147.090,25.672 145.200,26.395 143.000 C 27.599 139.337,29.562 134.247,32.797 126.400 C 35.222 120.520,41.709 108.391,45.206 103.200 C 46.021 101.990,47.054 100.280,47.503 99.400 C 47.951 98.520,48.747 97.338,49.271 96.774 C 49.795 96.210,51.778 93.690,53.678 91.174 C 58.682 84.547,65.160 77.020,70.634 71.476 C 75.901 66.140,85.447 58.063,92.307 53.136 C 94.228 51.756,96.282 50.153,96.872 49.573 C 97.461 48.992,98.631 48.194,99.472 47.799 C 100.312 47.403,101.990 46.417,103.200 45.607 C 105.885 43.810,114.235 39.089,118.632 36.882 C 123.816 34.280,136.052 29.358,143.200 26.999 C 145.730 26.164,147.890 25.357,148.000 25.206 C 148.339 24.741,163.070 21.293,169.200 20.244 C 183.947 17.720,200.620 16.964,214.400 18.193 M197.800 75.569 C 194.522 76.473,193.148 77.656,180.798 90.200 C 121.055 150.881,125.600 145.907,125.600 150.607 C 125.600 156.793,130.522 160.438,136.600 158.752 C 137.966 158.373,142.063 154.450,164.600 131.941 L 191.000 105.574 191.200 212.687 C 191.390 314.369,191.436 319.866,192.111 321.102 C 194.680 325.804,204.057 326.218,207.443 321.779 L 208.600 320.262 208.702 212.698 L 208.804 105.133 235.102 131.553 C 264.014 160.598,262.749 159.514,267.134 159.024 C 270.714 158.623,273.630 156.351,274.185 153.530 C 274.329 152.798,274.661 151.766,274.923 151.235 C 275.298 150.476,275.293 150.233,274.900 150.101 C 274.625 150.009,274.400 149.399,274.400 148.747 C 274.400 146.156,274.899 146.707,245.624 117.000 C 239.336 110.620,227.953 99.055,220.327 91.299 C 204.449 75.151,202.995 74.136,197.800 75.569 " stroke="none" fill="#ffffff" fill-rule="evenodd"></path></g></svg>